<?xml version="1.0" encoding="utf-8"?>
<!-- Generator: Adobe Illustrator 23.0.2, SVG Export Plug-In . SVG Version: 6.00 Build 0)  -->
<svg version="1.1" id="レイヤー_1" xmlns="http://www.w3.org/2000/svg" xmlns:xlink="http://www.w3.org/1999/xlink" x="0px"
	 y="0px" viewBox="0 0 361.4 139.1" style="enable-background:new 0 0 361.4 139.1;" xml:space="preserve">
<style type="text/css">
	.st0{enable-background:new    ;}
	.st1{fill:#FFFFFF;}
</style>
<g class="st0">
	<path class="st1" d="M66.1,87c-0.2-0.1-0.4-0.1-0.5-0.1c-1.5-0.1-3-0.2-4.5-0.4c-1.5-0.1-3-0.3-4.5-0.4c-1.9-0.2-3.8-0.3-5.7-0.5
		c-1.9-0.2-3.8-0.5-5.6-0.8c-1.1-0.2-2.2-0.5-3.3-0.8c-1.1-0.3-2.1-0.7-3.1-1.2c-0.7-0.4-1.4-0.8-1.9-1.3c-0.5-0.5-1-1.1-1.4-1.8
		c-0.2-0.3-0.4-0.5-0.6-0.8c-0.2-0.2-0.5-0.5-0.6-0.8c-0.3-0.3-0.6-0.7-0.8-1c-0.3-0.3-0.5-0.7-0.6-1c-0.4-0.7-0.5-1.4-0.4-2.1
		c0.1-0.7,0.2-1.4,0.5-2.1c0.4-0.9,0.9-1.8,1.4-2.6c0.6-0.8,1.2-1.5,1.9-2.2c1.6-1.6,3.4-3.2,5.5-4.7c0.9-0.6,1.8-1.3,2.7-1.9
		c0.9-0.6,1.9-1.2,2.8-1.8c0.8-0.4,1.7-0.9,2.4-1.3c0.8-0.5,1.6-0.9,2.4-1.3c1.3-0.7,2.6-1.3,3.9-1.9c1.3-0.6,2.6-1.1,4-1.6
		c0.8-0.3,1.6-0.6,2.4-0.8c0.8-0.3,1.6-0.5,2.5-0.8c1.4-0.3,2.8-0.6,4.2-0.7s2.8-0.2,4.3,0c1,0.1,2,0.3,2.9,0.5
		c0.9,0.2,1.8,0.6,2.6,1.2c0.4,0.3,0.8,0.6,1.2,0.9c0.4,0.4,0.7,0.7,1.1,1.1c0.7,0.7,1.3,1.6,2.1,2.6c0.5,0.7,0.8,1.4,1,2.2
		c0.2,0.8,0.2,1.6,0.1,2.4c0,0.8-0.2,1.6-0.4,2.4c-0.2,0.7-0.5,1.4-0.9,2.1c-0.3,0.4-0.6,0.9-1,1.3c-0.3,0.4-0.7,0.9-1,1.3
		c-0.2,0.2-0.3,0.4-0.5,0.5c-0.2,0.2-0.4,0.4-0.6,0.5c-0.3,0.2-0.5,0.2-0.7,0c-0.2-0.1-0.3-0.2-0.5-0.3c-0.1-0.1-0.3-0.3-0.3-0.5
		c0-0.1-0.1-0.2-0.2-0.3c-0.1-0.1-0.2-0.2-0.3-0.3c-0.2-0.3-0.3-0.7-0.1-1.2c0.3-0.4,0.6-0.9,0.9-1.4c0.3-0.5,0.6-1,0.9-1.5
		c0-0.1,0-0.2,0.1-0.3l-0.1-0.1l-1,1.7L78.6,65c0.1-0.2,0.1-0.3,0.2-0.4c0.1-0.1,0.1-0.3,0.2-0.4c0.5-1.2,1-2.4,1.4-3.7
		c0.4-1.3,0.6-2.6,0.6-3.9c0-0.4,0-0.7-0.1-0.9c0-0.1-0.1-0.3-0.4-0.4c-0.6-0.2-1.2-0.4-1.7-0.5c-0.6-0.1-1.2-0.2-1.8-0.3
		c-1.3-0.2-2.7-0.1-4,0c-1.3,0.2-2.7,0.4-4,0.7c-1,0.3-2,0.6-3,0.9c-1,0.3-2,0.6-2.9,1c-0.8,0.3-1.5,0.6-2.2,0.9
		c-0.7,0.3-1.4,0.7-2.1,1c-1.2,0.5-2.3,1.1-3.4,1.7c-1.1,0.6-2.2,1.2-3.3,1.8c-1.1,0.7-2.3,1.4-3.4,2.1c-1.1,0.7-2.2,1.5-3.3,2.2
		c-0.7,0.5-1.4,1-2,1.5c-0.6,0.5-1.3,1.1-1.9,1.6c-0.3,0.3-0.7,0.6-1,0.9s-0.6,0.7-1,1c-0.6,0.6-1.1,1.3-1.6,2
		c-0.5,0.7-0.9,1.4-1.3,2.2c-0.4,0.7-0.5,1.6-0.5,2.5c0,0.3,0.2,0.6,0.5,0.6c1.1,0.5,2.1,0.9,3.2,1.2s2.2,0.6,3.3,0.8
		c1.8,0.4,3.5,0.7,5.3,0.9c1.8,0.2,3.5,0.4,5.3,0.6c1.6,0.1,3.2,0.2,4.7,0.4c1.6,0.1,3.2,0.3,4.7,0.4c0.5,0.1,1.1,0.1,1.6,0.2
		c0.5,0.1,1.1,0.2,1.6,0.4c0.3,0,0.6,0.2,0.8,0.3c0.2,0.2,0.5,0.4,0.8,0.6c0.7,0.5,1.3,1,1.8,1.6c0.5,0.6,1,1.2,1.5,1.9
		c0.1,0.1,0.3,0.4,0.4,0.7c0.1,0.2,0,0.5-0.2,0.8c-0.6,0.7-1.2,1.3-1.9,1.8c-0.7,0.5-1.5,1-2.2,1.4c-0.6,0.4-1.2,0.7-1.8,1
		c-0.6,0.3-1.2,0.7-1.8,1c-0.5,0.3-1.1,0.6-1.6,0.9c-0.5,0.3-1.1,0.6-1.6,0.9c-0.4,0.2-0.9,0.4-1.3,0.7c-0.4,0.2-0.9,0.5-1.3,0.7
		c-0.7,0.4-1.4,0.8-2.1,1.1c-0.7,0.4-1.4,0.8-2.1,1.2c-0.9,0.5-1.8,1-2.7,1.5c-0.9,0.5-1.8,1-2.7,1.6c-0.8,0.4-1.5,0.9-2.3,1.4
		c-0.8,0.5-1.5,1-2.3,1.5c-0.9,0.5-1.8,1.1-2.7,1.7s-1.8,1.2-2.7,1.8c-1.1,0.7-2.2,1.5-3.3,2.2c-1.1,0.8-2.2,1.5-3.3,2.3
		c-0.7,0.5-1.4,1.1-2.1,1.6c-0.7,0.6-1.4,1.1-2.1,1.7c-0.9,0.8-1.9,1.7-3,2.6c-0.8,0.7-1.7,1.6-2.5,2.5c-0.4,0.4-0.7,0.8-1.1,1.3
		c-0.4,0.4-0.7,0.9-1,1.4c-0.4,0.6-0.7,1.2-1,1.9c-0.3,0.6-0.5,1.3-0.5,2.1c0,0.3,0.1,0.6,0.4,0.7c0.7,0.1,1.4,0.2,2,0.4
		c0.6,0.1,1.3,0.3,2,0.4c1.2,0.2,2.5,0.2,3.7,0.2c1.2,0,2.5-0.1,3.7-0.3c1.1-0.1,2.1-0.2,3.1-0.3c1-0.1,2-0.3,3.1-0.5
		c1.3-0.2,2.6-0.5,3.9-0.8c1.3-0.3,2.6-0.6,3.8-0.9c0.8-0.2,1.6-0.4,2.4-0.6c0.8-0.2,1.6-0.4,2.4-0.6c0.7-0.2,1.4-0.5,2.1-0.7
		c0.7-0.2,1.4-0.5,2-0.7c1.1-0.4,2.1-0.8,3.2-1.2c1.1-0.4,2.2-0.8,3.2-1.2c1.7-0.6,3.4-1.4,5.1-2.2c1.4-0.6,2.9-1.3,4.2-2
		c1.4-0.7,2.7-1.4,4.1-2c0.7-0.4,1.4-0.8,2.1-1.1c0.7-0.4,1.4-0.8,2-1.2c0.9-0.5,1.7-1.1,2.6-1.6c0.8-0.5,1.7-1,2.5-1.5
		c0.7-0.5,1.4-0.9,2.1-1.4c0.7-0.5,1.4-0.9,2.1-1.4c0.8-0.6,1.7-1.1,2.6-1.6c0.4-0.2,0.7-0.3,1-0.4c0.3-0.1,0.7-0.2,1-0.4l0.4-0.1
		l0,0.2c-0.7,0.2-1.3,0.5-1.9,0.8c-0.6,0.3-1.2,0.6-1.8,1c-0.3,0.1-0.5,0.3-0.8,0.4c-0.3,0.1-0.5,0.3-0.8,0.4
		c-0.2,0.1-0.3,0.2-0.5,0.3c-0.2,0.1-0.3,0.2-0.6,0.4l-1.6,1.2c-0.3,0.2-0.6,0.4-0.8,0.6s-0.5,0.4-0.9,0.5c-0.2,0.1-0.5,0.3-0.7,0.4
		c-0.2,0.1-0.5,0.3-0.7,0.4c-0.3,0.1-0.5,0.3-0.8,0.5c-0.3,0.2-0.5,0.4-0.9,0.5c-0.5,0.3-1,0.6-1.5,0.8c-0.5,0.3-1,0.6-1.5,0.8
		c-0.7,0.4-1.4,0.8-2.1,1.2c-0.7,0.4-1.4,0.8-2.2,1.2c-0.4,0.2-0.8,0.4-1.2,0.6c-0.4,0.2-0.8,0.4-1.2,0.5c-0.4,0.2-0.9,0.4-1.3,0.7
		c-0.4,0.2-0.9,0.4-1.4,0.7c-0.8,0.4-1.5,0.7-2.3,1.1c-0.8,0.3-1.5,0.7-2.3,1.1c-0.2,0.1-0.5,0.2-0.7,0.3c-0.3,0.1-0.5,0.2-0.7,0.3
		c-0.1,0-0.2,0.1-0.3,0.2l0.2,0c0.9-0.4,1.8-0.8,2.7-1.1s1.8-0.7,2.7-1.1c0.5-0.2,1-0.4,1.5-0.6c0.5-0.2,1-0.5,1.4-0.7
		c0.2-0.1,0.5-0.2,0.7-0.3s0.5-0.2,0.8-0.4c0.6-0.3,1.2-0.6,1.8-0.9c0.6-0.3,1.2-0.6,1.8-0.9c0.4-0.2,0.9-0.5,1.3-0.7
		c0.4-0.2,0.9-0.5,1.3-0.7c0.6-0.4,1.2-0.7,1.9-1.1c0.6-0.4,1.3-0.8,1.9-1.1c0.7-0.5,1.5-1,2.3-1.5c0.8-0.5,1.6-0.9,2.3-1.5
		c0.6-0.4,1.2-0.8,1.8-1.2c0.6-0.4,1.2-0.8,1.8-1.2c0.5-0.3,1-0.6,1.5-0.8c0.5-0.2,1-0.5,1.6-0.7c0.6-0.2,1.2-0.3,1.8-0.2
		c0.1,0,0.2,0.1,0.3,0.1c0.1,0,0.1,0.1,0.1,0.2c0,0.1,0.1,0.1,0.2,0.1c0.2,0,0.3,0.1,0.3,0.2c0,0.1,0,0.2,0,0.3
		c0,0.8-0.3,1.6-0.9,2.4c-0.6,0.8-1.1,1.5-1.7,2.1c-1.1,1.1-2.3,2.1-3.6,2.9c-0.7,0.4-1.3,0.8-2,1.3c-0.7,0.4-1.3,0.8-2,1.2
		c-0.7,0.4-1.3,0.8-2,1.2c-0.7,0.4-1.3,0.7-2,1.1c-1,0.5-2,1-3,1.5c-1,0.5-2,1-3,1.4c-1.2,0.5-2.3,1.1-3.5,1.6
		c-1.1,0.5-2.3,1-3.5,1.6c-0.5,0.2-1,0.4-1.5,0.7c-0.5,0.3-1,0.5-1.5,0.7c-0.9,0.4-1.8,0.8-2.8,1.1c-0.9,0.3-1.9,0.7-2.8,1.1
		c-0.8,0.3-1.5,0.5-2.2,0.8c-0.7,0.2-1.5,0.5-2.2,0.7c-0.7,0.2-1.4,0.4-2.1,0.6c-0.7,0.2-1.4,0.4-2.1,0.6c-0.6,0.1-1.1,0.3-1.7,0.4
		c-0.6,0.1-1.1,0.3-1.7,0.5c-0.3,0.1-0.6,0.2-0.8,0.3c-0.3,0.1-0.6,0.1-0.8,0.2c-1.4,0.2-2.7,0.5-4.1,0.8c-1.3,0.3-2.7,0.5-4.1,0.7
		c-0.8,0.1-1.5,0.2-2.3,0.3c-0.7,0.1-1.5,0.1-2.3,0.1c-1,0-1.9,0-2.9,0.1c-1,0-1.9,0-2.9-0.1c-1.2-0.1-2.4-0.3-3.6-0.7
		c-1-0.3-1.8-0.7-2.6-1.3c-0.8-0.6-1.4-1.3-2-2.1c-0.2-0.4-0.5-0.8-0.8-1.1c-0.3-0.4-0.6-0.7-0.9-1c-1-1.1-1.4-2.3-1.3-3.6
		c0-0.5,0.1-0.9,0.3-1.3c0.2-0.4,0.4-0.8,0.6-1.2c0.6-1.1,1.3-2.2,2-3.1s1.6-1.8,2.6-2.7c1-1,2.1-2,3.3-2.9c1.1-0.9,2.3-1.8,3.4-2.7
		c1.2-0.8,2.3-1.7,3.5-2.4c1.2-0.8,2.3-1.6,3.5-2.4c0.3-0.3,0.7-0.5,1-0.7c0.3-0.2,0.7-0.5,1-0.7c1.1-0.7,2.2-1.4,3.2-2
		c1.5-1,3-1.9,4.5-2.8c1.5-0.9,3-1.8,4.5-2.7c0.9-0.5,1.8-1.1,2.7-1.5c0.9-0.5,1.9-1,2.8-1.6c1-0.6,2-1.1,3-1.7c1-0.5,2-1.1,3-1.7
		c0.9-0.6,1.9-1.1,2.8-1.6c1-0.5,1.9-1.1,2.8-1.6C65.7,87.5,65.9,87.4,66.1,87L66.1,87z M16,122.8L16,122.8l0.3-0.2
		c0.3-0.4,0.6-0.9,0.9-1.3c0.3-0.4,0.6-0.9,1-1.3c0.6-0.6,1.2-1.3,1.8-1.9c0.6-0.6,1.2-1.2,1.8-1.8c0.5-0.5,0.9-0.9,1.4-1.3
		c0.5-0.4,0.9-0.8,1.4-1.1c0.3-0.3,0.6-0.6,0.9-0.8c0.3-0.2,0.6-0.5,1-0.7c0.4-0.3,0.9-0.6,1.3-0.9c0.4-0.3,0.8-0.6,1.3-0.9
		c0.3-0.3,0.7-0.5,0.9-0.7c0.3-0.2,0.6-0.4,0.9-0.6c0.6-0.4,1.1-0.8,1.7-1.2s1.1-0.8,1.7-1.2c0.5-0.3,0.9-0.6,1.3-0.9
		c0.4-0.3,0.9-0.6,1.3-0.9l5.1-3.3c0.7-0.4,1.4-0.8,2.1-1.3c0.7-0.4,1.4-0.9,2.1-1.3c0.8-0.4,1.5-0.8,2.2-1.2
		c0.7-0.4,1.4-0.8,2.2-1.2c0.7-0.4,1.4-0.8,2.1-1.2c0.7-0.4,1.4-0.8,2.1-1.1c0.4-0.2,0.8-0.4,1.2-0.6c0.4-0.2,0.8-0.4,1.2-0.6
		c0.5-0.3,1-0.6,1.4-0.9c0.5-0.3,0.9-0.6,1.4-0.9c0.8-0.5,1.6-0.9,2.4-1.4s1.6-0.9,2.4-1.3c0.4-0.3,0.8-0.5,1.2-0.8
		c0.4-0.2,0.8-0.5,1.1-0.8l0-0.2c-0.1,0-0.2,0-0.3,0c-0.1,0-0.2,0-0.3,0.1c-0.2,0.1-0.4,0.3-0.6,0.4c-0.2,0.1-0.4,0.3-0.6,0.4
		c-0.5,0.3-1,0.6-1.4,0.9c-0.5,0.3-0.9,0.5-1.4,0.8c-0.3,0.2-0.6,0.3-0.9,0.5c-0.3,0.1-0.6,0.3-0.9,0.5c-0.2,0.1-0.5,0.3-0.7,0.5
		c-0.3,0.2-0.5,0.4-0.8,0.5c-0.3,0.2-0.6,0.3-0.9,0.5c-0.3,0.2-0.6,0.4-0.8,0.5c-0.2,0.1-0.5,0.3-0.7,0.4s-0.5,0.3-0.8,0.4l-3.8,2
		c-0.6,0.4-1.3,0.7-1.9,1c-0.6,0.3-1.3,0.7-1.9,1c-0.5,0.3-1.1,0.7-1.6,0.9c-0.5,0.3-1,0.6-1.5,0.9c-0.6,0.3-1.1,0.7-1.7,1
		c-0.5,0.3-1.1,0.6-1.7,1c-0.4,0.3-0.9,0.5-1.3,0.8c-0.4,0.2-0.8,0.5-1.3,0.8c-0.5,0.3-1.1,0.7-1.6,1c-0.5,0.3-1.1,0.7-1.6,1
		c-0.3,0.2-0.6,0.4-0.9,0.6c-0.3,0.2-0.6,0.4-0.9,0.6c-0.2,0.1-0.3,0.2-0.5,0.3c-0.1,0.1-0.3,0.2-0.5,0.3c-0.3,0.2-0.6,0.4-0.9,0.6
		c-0.3,0.2-0.6,0.4-1,0.7c-0.3,0.2-0.6,0.4-0.9,0.6s-0.6,0.4-0.9,0.7c-0.2,0.1-0.4,0.3-0.6,0.4c-0.2,0.1-0.4,0.3-0.6,0.4
		c-0.4,0.2-0.8,0.5-1.1,0.8c-0.3,0.3-0.7,0.6-1,0.9c-0.1,0.1-0.2,0.2-0.3,0.2c-0.3,0.2-0.6,0.5-0.9,0.7c-0.3,0.2-0.6,0.5-0.9,0.7
		c-0.3,0.2-0.6,0.5-0.9,0.7c-0.3,0.2-0.6,0.5-0.9,0.7c-0.3,0.2-0.5,0.5-0.7,0.6s-0.5,0.4-0.7,0.6c-0.5,0.5-1.1,1-1.6,1.5
		c-0.5,0.5-1,1-1.4,1.6c-0.4,0.4-0.7,0.8-1,1.2s-0.6,0.8-0.9,1.3c-0.1,0.1-0.2,0.3-0.3,0.5C16.1,122.5,16.1,122.6,16,122.8z
		 M55.7,54.9l0-0.1l-0.2,0l-1.2,0.4c-0.4,0.2-0.7,0.3-1,0.5c-0.3,0.2-0.6,0.4-1,0.6c-0.4,0.2-0.8,0.4-1.2,0.7s-0.8,0.4-1.2,0.7
		c-0.2,0.1-0.4,0.2-0.6,0.5c-0.4,0.2-0.9,0.4-1.3,0.7c-0.4,0.2-0.8,0.5-1.2,0.7l-1.2,0.7c-0.5,0.3-1,0.7-1.5,1.1
		c-0.5,0.4-1,0.7-1.5,1.1l-1.2,0.9c-0.4,0.4-0.9,0.7-1.3,1c-0.4,0.3-0.9,0.7-1.3,1.1c-0.6,0.5-1.1,1-1.7,1.6c-0.5,0.6-1,1.1-1.6,1.6
		c-0.7,0.7-1.2,1.5-1.6,2.3c-0.1,0.2-0.1,0.4-0.1,0.5l0.1-0.1c0.2-0.4,0.5-0.7,0.7-1.1c0.2-0.4,0.5-0.7,0.8-1
		c0.7-0.9,1.5-1.8,2.4-2.5c0.9-0.8,1.7-1.5,2.6-2.2c0.5-0.4,0.9-0.8,1.4-1.1c0.5-0.4,0.9-0.7,1.4-1.1c0.5-0.4,1-0.8,1.6-1.1
		c0.5-0.4,1.1-0.7,1.6-1.1c0.4-0.3,0.8-0.5,1.2-0.7c0.4-0.2,0.8-0.5,1.2-0.7c0.4-0.2,0.8-0.4,1.2-0.6c0.4-0.2,0.7-0.4,1.1-0.6
		c0.5-0.2,1-0.5,1.4-0.7c0.4-0.2,0.9-0.5,1.4-0.7c0.4-0.2,0.7-0.3,1-0.5C55,55.2,55.3,55.1,55.7,54.9z M62.4,52.1L62.4,52.1
		c-0.1-0.1-0.2-0.1-0.3-0.1c-0.1,0-0.2,0-0.2,0.1c-0.5,0.2-1,0.4-1.5,0.6c-0.5,0.2-1,0.4-1.5,0.6c-0.4,0.2-0.7,0.3-1.1,0.4
		c-0.4,0.1-0.7,0.3-1.1,0.4c-0.1,0-0.2,0.1-0.3,0.1c-0.1,0.1-0.2,0.1-0.3,0.2l0.1,0.1c1-0.4,2.1-0.8,3-1.2
		C60.3,52.9,61.4,52.5,62.4,52.1z M57.9,124.3l0-0.1c-0.2,0.1-0.5,0.2-0.9,0.4c0,0,0,0.1,0.1,0.1C57.2,124.6,57.5,124.5,57.9,124.3z
		 M78.2,65.8l-0.5,0.8l-0.1-0.1c0.1-0.1,0.2-0.2,0.2-0.4c0.1-0.2,0.2-0.3,0.3-0.4C78.1,65.8,78.1,65.8,78.2,65.8
		C78.2,65.8,78.2,65.8,78.2,65.8z M80.6,61L80.6,61c-0.2,0.1-0.4,0.4-0.5,0.8C80,62.1,80,62.4,80,62.6c0.1-0.3,0.2-0.6,0.3-0.9
		C80.4,61.5,80.5,61.2,80.6,61z"/>
	<path class="st1" d="M91.2,84.4c0,0.5-0.1,1.1-0.4,1.8c-0.1,0.3-0.2,0.5-0.3,0.8c-0.1,0.3-0.2,0.5-0.3,0.8
		c-0.3,0.6-0.6,1.2-0.8,1.7c-0.3,0.6-0.5,1.1-0.8,1.7c-0.4,0.8-0.8,1.5-1.3,2.1c-0.2,0.3-0.4,0.5-0.6,0.8c-0.2,0.2-0.4,0.5-0.6,0.8
		c-0.2,0.4-0.4,0.7-0.6,0.9c0,0.1-0.1,0.1-0.1,0.1c0,0-0.1,0.1-0.1,0.2c-0.3,0.4-0.6,0.7-0.9,1.1c-0.3,0.4-0.6,0.7-0.9,1.1
		c-0.5,0.5-0.9,0.9-1.4,1.3c-0.5,0.4-1,0.8-1.4,1.3c-0.1,0.1-0.2,0.2-0.3,0.3c-0.1,0.1-0.2,0.2-0.3,0.3l0.1,0.1
		c0-0.1,0.1-0.1,0.1-0.1c0,0,0.1,0,0.1-0.1c0.5-0.4,0.9-0.7,1.3-1.1c0.4-0.3,0.8-0.7,1.3-1.1c0.5-0.5,0.9-0.9,1.2-1.4
		c0.4-0.5,0.8-1,1.2-1.4c0.1-0.1,0.1-0.1,0.2-0.2c0-0.1,0-0.1,0.1-0.2c0-0.1,0.1-0.1,0.3-0.3c1.1-1.5,2-2.9,2.7-4.2
		c0.4-0.7,0.8-1.4,1.1-2.1c0.3-0.7,0.6-1.5,0.9-2.2c0.1-0.3,0.1-0.5,0.2-0.7c0.1-0.2,0.2-0.4,0.2-0.7c0.2-0.5,0.3-1,0.4-1.5
		c0.1-0.5,0.2-1,0.3-1.6c0.1-0.3,0.2-0.4,0.3-0.3c0.2,0.1,0.3,0.1,0.5,0.1s0.3,0.1,0.4,0.1c0.4,0.2,0.7,0.4,0.8,0.8
		C94,83.6,94,84,94,84.4c0,0.8,0,1.6-0.2,2.4c-0.2,0.8-0.4,1.5-0.6,2.3c-0.4,1-0.8,1.8-1.3,2.6c-0.3,0.6-0.6,1.1-0.9,1.7
		c-0.3,0.5-0.7,1.1-1,1.6c-0.3,0.4-0.5,0.8-0.8,1.2c-0.2,0.4-0.5,0.8-0.9,1.2c-0.8,1-1.5,1.9-2.4,2.8c-0.8,0.9-1.7,1.7-2.7,2.5
		c-0.5,0.3-1,0.6-1.4,0.9c-0.5,0.3-1,0.4-1.6,0.5c-0.5,0.1-1,0-1.4-0.2c-0.5-0.3-1-0.6-1.5-0.9c-0.5-0.3-1-0.6-1.5-0.9
		c-0.6-0.4-1-1-1.1-1.7c-0.3-1.4-0.3-2.8,0.1-4.2l0.6-1.9l0.2,0c0,0.1,0,0.2,0,0.3c-0.1,0.3-0.2,0.6-0.3,0.9c-0.1,0.3-0.2,0.6-0.3,1
		c0,0.1,0,0.2,0,0.3C75,96.9,75,97,75,97.1c-0.1,0.3-0.1,0.5-0.1,0.8c0,0.3,0,0.6-0.1,0.9c0,0.1,0,0.2,0,0.4c0,0.1,0,0.3,0,0.4
		l0.1,0l0-0.2c0-0.3,0-0.7,0-0.9s0-0.6,0.1-0.9c0-0.1,0-0.4,0-0.7c0.1-0.3,0.1-0.5,0.2-0.7c0.1-0.2,0.2-0.4,0.2-0.7l0.7-2.1
		c0.2-0.6,0.5-1.2,0.8-1.8c0.3-0.6,0.7-1.2,1-1.8c0.3-0.6,0.6-1.1,1-1.6c0.4-0.5,0.8-1,1.3-1.5c0-0.1,0.1-0.1,0.2-0.1
		c0.1,0,0.1-0.1,0.2-0.2c0.1-0.1,0.2-0.2,0.2-0.3c0.2,0,0.3,0,0.4,0c0,0,0.1,0,0.1,0c0.1,0,0.1,0,0.1,0c0.3,0.2,0.6,0.4,0.9,0.5
		c0.3,0.1,0.6,0.3,0.9,0.5c0.2,0.1,0.2,0.2,0.1,0.4c-0.2,0.4-0.4,0.7-0.5,0.9c-0.1,0.3-0.3,0.5-0.5,0.7c-0.2,0.2-0.3,0.4-0.4,0.7
		c-0.3,0.4-0.5,0.9-0.8,1.3c-0.3,0.5-0.5,0.9-0.7,1.3c-0.2,0.5-0.5,1-0.7,1.6c-0.2,0.5-0.4,1-0.6,1.5c-0.2,0.4-0.3,0.8-0.4,1.2
		c-0.1,0.4-0.2,0.8-0.4,1.2c-0.1,0.3-0.1,0.5-0.1,0.8c0,0.3-0.1,0.6-0.1,0.8c-0.1,0.3-0.1,0.5-0.1,0.7c0,0.2,0,0.4-0.1,0.7l0.1,0.6
		c0,0.2,0.2,0.3,0.4,0.1c0.8-0.3,1.5-0.7,2.1-1.3c0.5-0.5,0.9-0.9,1.4-1.3c0.5-0.4,0.9-0.9,1.3-1.3c0.6-0.7,1.3-1.5,1.9-2.2
		c0.6-0.7,1.2-1.5,1.7-2.4c0.5-0.8,0.9-1.5,1.3-2.3c0.4-0.8,0.8-1.6,1.2-2.4l0.9-2.4c0.1-0.3,0.2-0.5,0.3-0.8
		C91,85,91.1,84.7,91.2,84.4z M75.8,94c0-0.3,0.1-0.5,0.2-0.7c0.1-0.2,0.2-0.4,0.3-0.7c0.1,0.1,0,0.3-0.1,0.7
		C76,93.6,75.9,93.9,75.8,94z M77.1,91c-0.1,0.3-0.1,0.5-0.3,0.6c-0.1,0.2-0.3,0.4-0.4,0.6c0,0-0.1,0-0.1-0.1
		c0.1-0.2,0.2-0.4,0.3-0.6c0.1-0.2,0.2-0.4,0.3-0.6C77,90.9,77.1,90.9,77.1,91C77.1,91,77.1,91,77.1,91z M80.8,86.2
		c-0.4,0.3-0.8,0.6-1.1,1c-0.3,0.4-0.6,0.8-1,1.1c0,0,0-0.1-0.1-0.1c0.3-0.4,0.6-0.8,1-1.2C79.9,86.7,80.3,86.4,80.8,86.2z
		 M91.2,84.4c0-0.2,0-0.4,0.1-0.5c0-0.2,0-0.3,0.1-0.5c0,0,0.1,0,0.1,0c0,0,0,0,0.1,0c-0.1,0.2-0.1,0.3-0.1,0.5
		C91.4,84.1,91.3,84.2,91.2,84.4z"/>
	<path class="st1" d="M108.1,91.2c0.2-0.2,0.4-0.4,0.6-0.6c0.2-0.2,0.4-0.3,0.5-0.6c0.4-0.6,0.9-1.1,1.3-1.6
		c0.4-0.5,0.8-1.1,1.3-1.6c0.2-0.2,0.3-0.4,0.4-0.5c0.1-0.2,0.2-0.4,0.4-0.6c0.1-0.2,0.2-0.3,0.4-0.5c0.1-0.2,0.3-0.3,0.4-0.4
		c0.2-0.1,0.4-0.2,0.4-0.1c0.2,0.1,0.4,0.2,0.6,0.3s0.4,0.2,0.4,0.5c0.1,0.4,0.1,0.7,0,1.1c-0.2,0.7-0.5,1.3-0.8,1.9
		c-0.3,0.6-0.6,1.2-1.1,1.8c-0.2,0.3-0.5,0.7-0.8,1c-0.3,0.3-0.5,0.6-0.8,1c-0.5,0.8-1.1,1.5-1.8,2.1c-0.6,0.6-1.3,1.2-2,1.8
		c-1,0.9-2,1.6-3,2.3c-1,0.7-2.1,1.3-3.3,1.7c-0.6,0.2-1.1,0.3-1.7,0.4c-0.6,0-1.1-0.1-1.6-0.4c-1.1-0.7-2.2-1.4-3.3-2.1
		c-0.4-0.3-0.8-0.7-0.9-1.3c-0.2-0.5-0.2-1.1-0.2-1.6c0-0.8,0.1-1.6,0.3-2.4c0.3-0.8,0.6-1.5,1-2.2c0.5-0.9,1.1-1.7,1.7-2.4
		c0.6-0.7,1.3-1.4,2-2.1c1-1,2.3-1.8,3.7-2.4c0.9-0.3,1.7-0.3,2.5,0.3c0.6,0.3,1.2,0.7,1.7,1.2c0.3,0.2,0.5,0.5,0.4,0.9
		c-0.1,0.3-0.3,0.6-0.3,1c-0.1,0.3-0.2,0.6-0.4,0.9c-0.5,0.9-1.1,1.7-1.8,2.5c-0.7,0.8-1.4,1.4-2.3,2c-0.5,0.3-1.1,0.5-1.7,0.7
		c-0.6,0.2-1.2,0-1.9-0.3c-0.1-0.1-0.1-0.1-0.2-0.2c-0.1,0-0.1-0.1-0.2-0.2c-0.6,0.9-0.9,1.7-1,2.4c-0.1,0.4-0.2,0.8-0.3,1.2
		c-0.1,0.4-0.1,0.8-0.1,1.2l0.2,0.9c0,0.2,0.2,0.3,0.5,0.3c0.5,0,1-0.2,1.5-0.4c0.5-0.2,1-0.5,1.5-0.7c0.8-0.5,1.6-1,2.4-1.5
		c0.8-0.5,1.5-1.1,2.2-1.8c0.6-0.6,1.2-1.2,1.7-1.7c0.6-0.6,1.2-1.1,1.7-1.7c0-0.1,0.1-0.1,0.1-0.1c0,0,0.1-0.1,0.1-0.1l0.1,0
		c0,0.1-0.1,0.2-0.2,0.3C108.3,90.8,108.2,91,108.1,91.2c-0.1,0-0.2,0.1-0.4,0.2c-0.4,0.4-0.8,0.8-1.2,1.2c-0.4,0.4-0.8,0.8-1.3,1.2
		c-0.5,0.4-0.9,0.8-1.4,1.2c-0.5,0.4-1,0.8-1.5,1.1c-0.2,0.1-0.5,0.3-0.7,0.5c-0.3,0.2-0.5,0.3-0.7,0.5c0.2,0,0.3-0.1,0.4-0.1
		c0.6-0.4,1.1-0.8,1.7-1.2c0.6-0.4,1.1-0.8,1.7-1.2c0.6-0.5,1.1-1,1.6-1.5c0.5-0.5,1-1,1.6-1.6c0-0.1,0.1-0.1,0.1-0.2
		C108,91.3,108,91.3,108.1,91.2z M93.9,96L93.9,96c0.1-0.1,0.1-0.1,0.1-0.1c0,0,0-0.1,0-0.1c-0.1-0.8,0-1.6,0.3-2.5
		c0.4-1.3,0.9-2.5,1.6-3.5c0.5-0.8,1.1-1.6,1.8-2.3c0.7-0.7,1.3-1.3,2.1-2c0.9-0.7,1.7-1.2,2.6-1.6c0.1,0,0.2,0,0.2-0.1
		c0,0,0.1-0.1,0.2-0.1c-1.2,0.3-2.2,0.8-3.2,1.6c-0.3,0.2-0.5,0.4-0.7,0.6c-0.2,0.2-0.5,0.5-0.7,0.7c-0.6,0.4-1,0.9-1.4,1.4
		c-0.4,0.5-0.8,1.1-1.2,1.7c-0.2,0.3-0.5,0.7-0.6,1.1c-0.2,0.4-0.4,0.8-0.6,1.2c-0.4,1.1-0.6,2.2-0.6,3.4L93.9,96z M98.9,91.4
		c1.2-0.6,2.1-1.3,2.9-2.2c0.8-0.9,1.5-1.9,2.2-2.9c-0.4,0.2-0.7,0.3-0.9,0.4c-0.9,0.7-1.6,1.4-2.4,2.1
		C100,89.6,99.4,90.4,98.9,91.4z M109.6,89.3c-0.1,0.1-0.1,0.2-0.2,0.3s-0.1,0.1-0.2,0.3c-0.1,0-0.1-0.1-0.1-0.1
		c0.2-0.2,0.3-0.4,0.4-0.5C109.5,89.2,109.5,89.2,109.6,89.3C109.6,89.2,109.6,89.2,109.6,89.3z"/>
	<path class="st1" d="M123.2,83.7c-0.2,0.2-0.3,0.4-0.5,0.6c-0.4,0.6-0.9,1.2-1.4,1.8c-0.5,0.6-0.9,1.2-1.4,1.8
		c-0.4,0.5-0.7,0.9-1.1,1.4c-0.4,0.5-0.7,0.9-1,1.4c-0.4,0.7-0.8,1.4-1.2,2.1c-0.4,0.7-0.8,1.4-1.2,2.1c-0.2,0.4-0.5,0.8-0.7,1.2
		s-0.6,0.7-1,1c-0.4,0.2-0.7,0.2-0.9,0c-0.4-0.3-0.9-0.6-1.3-1c-0.4-0.3-0.9-0.7-1.3-1c-0.2-0.2-0.4-0.4-0.4-0.7c0-0.4,0-0.9,0-1.3
		c0-0.4,0-0.9,0-1.3c0.1-1.1,0.3-2.1,0.7-3.1c0.4-1,0.8-2,1.3-3c0.6-1.3,1.2-2.6,2-3.9c0.3-0.6,0.6-1.2,1-1.8c0.4-0.6,0.7-1.2,1-1.8
		c0.1-0.2,0.2-0.4,0.4-0.6c0.2-0.2,0.3-0.4,0.5-0.5c0.3-0.3,0.7-0.3,1-0.1c0.7,0.4,1.4,0.8,2,1.2c0.3,0.2,0.4,0.5,0.2,0.9
		c-0.3,0.4-0.5,0.9-0.8,1.4c-0.3,0.5-0.5,0.9-0.8,1.4c-0.5,0.9-0.9,1.8-1.4,2.8c-0.4,1-0.9,1.9-1.4,2.8c-0.3,0.6-0.5,1.3-0.8,1.9
		c-0.3,0.6-0.5,1.3-0.8,1.9c-0.1,0.2-0.1,0.4-0.1,0.6c0,0.2-0.1,0.5-0.1,0.7c0.3-0.4,0.5-0.6,0.6-0.7l2.8-3.8
		c1.4-1.9,2.8-3.7,4.2-5.5c0.1-0.2,0.3-0.3,0.4-0.5c0.2-0.2,0.3-0.3,0.4-0.5c0.2-0.4,0.4-0.7,0.5-0.9c0.2-0.2,0.3-0.4,0.5-0.6
		c0.2-0.2,0.3-0.4,0.5-0.6l0.2-0.3l0-0.1c-0.1,0.1-0.3,0.2-0.4,0.4l-0.1-0.1c0.3-0.4,0.6-0.6,0.8-0.7c0-0.1,0.1-0.1,0.2-0.1
		c0.1,0,0.2,0,0.2,0.1c0.4,0.3,0.9,0.6,1.3,0.9c0.4,0.3,0.9,0.6,1.3,0.9c0.8,0.5,1.1,1.3,0.8,2.3c-0.3,1.1-0.6,2.1-0.9,3.2
		c-0.3,1-0.6,2.1-0.9,3.2c-0.1,0.6-0.3,1.1-0.4,1.6c-0.1,0.5-0.2,1.1-0.4,1.6c0,0.1,0,0.2,0,0.3c0,0.1,0,0.3,0,0.4
		c0.2-0.2,0.4-0.3,0.5-0.5c0.1-0.1,0.3-0.3,0.5-0.4c0.3-0.4,0.7-0.9,1-1.2c0.4-0.4,0.7-0.8,1-1.2c0.2-0.3,0.4-0.5,0.6-0.8
		c0.2-0.2,0.4-0.5,0.6-0.8c0.5-0.6,1-1.2,1.4-1.8c0.5-0.6,1-1.2,1.4-1.8l0.5-0.8c0.2-0.1,0.3-0.2,0.3-0.3c0.1,0,0.1,0.1,0.2,0
		c-0.1,0.3-0.2,0.5-0.3,0.7c-0.1,0.2-0.2,0.4-0.2,0.7l0.1,0.1c0.1-0.3,0.3-0.5,0.5-0.7c0.2-0.2,0.3-0.5,0.5-0.8
		c0.2,0.2,0.2,0.4,0,0.7c-0.1,0.3-0.3,0.6-0.4,0.9c-0.1,0.3-0.3,0.6-0.5,1c-0.4,0.7-0.7,1.5-1.1,2.2c-0.4,0.7-0.8,1.4-1.4,2
		c-0.7,0.9-1.4,1.8-2.1,2.7c-0.7,0.9-1.5,1.7-2.5,2.5l-0.4,0.3c-0.2,0.2-0.5,0.3-0.9,0.1c-0.4-0.3-0.9-0.6-1.3-0.9
		c-0.4-0.3-0.8-0.6-1.3-0.9c-0.3-0.2-0.5-0.4-0.5-0.7c-0.1-0.3-0.1-0.6-0.2-1c0-0.1,0.1-0.1,0-0.2c-0.3-0.9-0.3-1.7,0-2.5
		c0.2-0.8,0.5-1.7,0.7-2.5c0.1-0.6,0.3-1.1,0.5-1.7c0.2-0.6,0.4-1.2,0.5-1.7c0-0.1,0.1-0.1,0-0.2c0,0,0-0.1,0-0.2l-0.1-0.1
		C123.5,83.3,123.3,83.5,123.2,83.7z M113.5,83.6C113.5,83.5,113.6,83.5,113.5,83.6c0.1-0.1,0.1-0.1,0.2-0.2
		c0.1-0.3,0.2-0.5,0.3-0.8c0.1-0.2,0.3-0.5,0.4-0.8c0.3-0.7,0.7-1.3,1-2c0.4-0.6,0.7-1.2,1.2-1.8c0.1-0.1,0.1-0.2,0.2-0.3
		c0.1-0.1,0.1-0.2,0.2-0.3l-0.1-0.1c-0.3,0.3-0.6,0.5-0.8,0.7c-0.5,0.8-0.9,1.5-1.3,2.3c-0.4,0.8-0.9,1.6-1.3,2.4
		C113.5,83,113.5,83.2,113.5,83.6c-0.1,0-0.2,0-0.2,0.1c0,0-0.1,0.1-0.1,0.1c-0.3,0.6-0.6,1.3-0.9,1.9s-0.6,1.3-0.9,1.9
		c-0.6,1.3-1,2.7-1.3,4.2c0,0.2,0,0.4,0,0.5l0.1,0c0,0,0-0.1,0-0.1c0,0,0-0.1,0-0.1c0.1-0.8,0.3-1.6,0.5-2.3
		c0.2-0.7,0.5-1.5,0.8-2.2c0.1-0.2,0.1-0.3,0.2-0.5c0.1-0.2,0.2-0.4,0.2-0.6c0.2-0.3,0.4-0.6,0.6-1c0.2-0.3,0.4-0.7,0.5-1
		c0.1-0.1,0.1-0.2,0.2-0.4C113.4,83.9,113.4,83.8,113.5,83.6z M124.3,82.8C124.2,82.8,124.2,82.8,124.3,82.8c-0.1,0-0.2,0.2-0.3,0.3
		c-0.1,0.4-0.2,0.8-0.3,1.2c-0.1,0.4-0.2,0.7-0.3,1.1c-0.2,0.9-0.5,1.7-0.7,2.6s-0.4,1.8-0.5,2.7c-0.1,0.6,0,1,0.2,1.3
		c0-0.2,0-0.5,0-0.7c0-0.2,0-0.4,0-0.6c0.1-0.5,0.1-0.9,0.2-1.4c0.1-0.5,0.2-0.9,0.3-1.4c0.2-0.8,0.5-1.6,0.7-2.4
		c0.2-0.8,0.5-1.6,0.7-2.4C124.3,83.1,124.3,82.9,124.3,82.8z"/>
	<path class="st1" d="M147.7,62.1c-0.3,0-0.7-0.1-1-0.1s-0.7-0.1-1-0.1l0,0.1c0.3,0,0.6,0.1,0.9,0.1c0.3,0,0.6,0.1,0.9,0.1
		c1.9,0.2,3.7,0.7,5.2,1.6c0.3,0.1,0.5,0.2,0.7,0.4c0.2,0.2,0.4,0.3,0.7,0.5c0.3,0.2,0.5,0.4,0.5,0.7c0.1,0.3,0.1,0.6,0.1,1
		l-0.2-0.1c-0.5-0.5-1-0.8-1.6-1c-0.6-0.2-1.2-0.4-1.8-0.5c-0.7-0.1-1.4-0.2-2.1-0.3c-0.7,0-1.4-0.1-2.1-0.2c-0.4,0-0.8-0.1-1.2-0.1
		c-0.4,0-0.8-0.1-1.2-0.1c-0.2,0-0.4,0-0.6,0.1c-0.2,0.1-0.3,0.2-0.5,0.5c-0.5,0.9-1,1.7-1.4,2.5c-0.5,0.8-0.9,1.6-1.4,2.5
		c-0.7,1.4-1.4,2.8-2.1,4.3c-0.7,1.4-1.3,2.9-1.9,4.4c-0.4,1.1-0.9,2.1-1.3,3.2s-0.8,2.1-1.1,3.2c-0.2,0.6-0.4,1.1-0.6,1.7
		s-0.4,1.1-0.5,1.7c-0.1,0.6-0.3,1.2-0.4,1.8c-0.1,0.6-0.3,1.2-0.4,1.8c-0.1,0.4,0.1,0.5,0.5,0.4c0,0,0.1,0,0.1-0.1
		c0,0,0.1-0.1,0.1-0.1c0.1,0,0.3-0.1,0.4-0.1c-0.1,0.2-0.2,0.3-0.3,0.3l0,0.1c0.2-0.1,0.3-0.2,0.5-0.2c0.2,0,0.3-0.1,0.5-0.2
		c0.9-0.6,1.8-1.2,2.7-1.9c0.9-0.6,1.7-1.4,2.4-2.2l3.1-3.4c0.1-0.2,0.2-0.3,0.4-0.3c-0.2,0.4-0.4,0.8-0.7,1.1
		c-0.3,0.3-0.5,0.7-0.8,1l0.2,0.1c0.3-0.4,0.7-0.9,1-1.3c0.4-0.4,0.7-0.8,1.1-1.3l0.1,0.1c0,0.1-0.1,0.1,0,0.2s0,0.1,0,0.2
		c-0.1,0.1-0.2,0.2-0.2,0.4c-0.1,0.1-0.2,0.3-0.2,0.4c-0.7,1-1.3,1.9-2.1,2.8c-0.7,0.9-1.5,1.8-2.3,2.7c-0.5,0.5-0.9,1-1.3,1.5
		c-0.4,0.5-0.9,1-1.4,1.4c-0.3,0.3-0.7,0.6-1.1,0.8c-0.4,0.2-0.8,0.4-1.3,0.5c-0.6,0.2-1,0.1-1.3-0.4c-0.3-0.4-0.6-0.8-1-1.3
		c-0.3-0.4-0.6-0.9-0.9-1.3c-0.1-0.2-0.2-0.5-0.3-0.8c-0.1-0.3-0.1-0.6-0.1-0.9c-0.1-1.1,0-2.1,0.1-3.2c0.2-1.1,0.4-2.1,0.6-3.1
		c0.4-1.7,0.9-3.3,1.4-4.9c0.5-1.6,1.2-3.2,1.8-4.9c0.5-1.2,1-2.3,1.5-3.4c0.5-1.1,1-2.3,1.6-3.4c0.2-0.4,0.4-0.8,0.6-1.2
		c0.2-0.4,0.4-0.8,0.6-1.2c0.1-0.1,0.1-0.2,0.2-0.4c-0.2,0-0.5,0-0.6,0c-0.2,0-0.3,0-0.5,0c-1.2,0.1-2.5,0.3-3.7,0.4
		c-1.2,0.1-2.4,0.3-3.6,0.5c-1.1,0.2-2.1,0.4-3.1,0.6c-1,0.2-2.1,0.4-3.1,0.6l-0.9,0.1c-0.3-0.1-0.3-0.2-0.3-0.4c0-0.2,0-0.3,0-0.5
		c0-0.2,0-0.3,0.1-0.5c0.1-0.2,0.2-0.3,0.3-0.4c0.2-0.1,0.5-0.3,0.7-0.4c0.3-0.1,0.5-0.3,0.8-0.4c1.3-0.5,2.6-0.8,3.9-1
		c1.3-0.2,2.6-0.4,3.9-0.7c0.4-0.1,0.8-0.1,1.2-0.2c0.4,0,0.8-0.1,1.3-0.1c0.8,0,1.5-0.1,2.2-0.1c0.7,0,1.5-0.1,2.2-0.1l0.3,0l0-0.2
		c-1.1,0.1-2.1,0.2-3.1,0.2c-1,0.1-2,0.1-3,0.2c-1,0.1-2.1,0.3-3.1,0.5c-1,0.2-2,0.3-3.1,0.5c0.2,0,0.4-0.1,0.5-0.1
		c0.1,0,0.3-0.1,0.4-0.1c0.9-0.2,1.7-0.3,2.5-0.4s1.6-0.3,2.5-0.4c0.7-0.1,1.4-0.2,2.1-0.2c0.7-0.1,1.4-0.1,2.1-0.2c0.3,0,0.7,0,1,0
		c0.3,0,0.6,0,1,0c0.2,0,0.5-0.2,0.6-0.5c0.2-0.3,0.4-0.6,0.6-0.9c0.2-0.3,0.4-0.6,0.6-0.9c0.2-0.4,0.5-0.8,0.7-1.1
		c0.3-0.4,0.5-0.7,0.7-1.1c0.5-0.8,1.1-1.6,1.7-2.4c0.6-0.8,1.2-1.5,1.9-2.2c0.1-0.1,0.1-0.1,0.2-0.1c0,0,0.1,0,0.2-0.1
		c0.4-0.3,0.7-0.4,0.8-0.4c0.2,0,0.4,0.2,0.8,0.5c0.7,0.6,1.4,1.4,2,2.3c0.1,0.2,0.2,0.3,0.2,0.3c0,0-0.1,0.1-0.3,0.2
		c-0.3,0.1-0.5,0.3-0.7,0.5c-0.6,0.6-1.2,1.3-1.7,2.1s-1,1.5-1.5,2.2c-0.2,0.2-0.3,0.4-0.4,0.6c-0.1,0.2-0.3,0.4-0.4,0.7
		c-0.2,0.3-0.1,0.4,0.1,0.4c0.3,0.1,0.5,0.1,0.7,0.1c0.2,0,0.5,0,0.7,0.1c0.1,0,0.1,0.1,0.2,0C147.5,62,147.6,62,147.7,62.1
		L147.7,62.1z M126.4,63.3c0.2-0.1,0.5-0.2,0.8-0.2l0,0.1C127,63.3,126.8,63.3,126.4,63.3L126.4,63.3z M131.2,84.8
		c-0.1,0.2-0.2,0.5-0.3,0.9c-0.1,0.5-0.2,0.9-0.3,1.4c-0.1,0.5-0.1,1-0.2,1.4s0,0.7,0,0.9C130.7,87.9,130.9,86.3,131.2,84.8z
		 M131.7,82.6c0.9-3.2,2-6.3,3.3-9.2c1.3-3,2.7-5.9,4.1-8.9c-0.2,0.1-0.6,0.5-1,1.4c-0.4,0.8-0.9,1.9-1.5,3.1
		c-0.5,1.2-1.1,2.6-1.7,4c-0.6,1.4-1.1,2.8-1.6,4.1c-0.5,1.3-0.9,2.5-1.2,3.5C131.9,81.6,131.7,82.2,131.7,82.6z M147.3,52.4l-0.2,0
		c-0.2,0.1-0.5,0.4-0.8,0.7c-1.1,1.2-2.2,2.5-3.1,4.1c-0.2,0.3-0.5,0.7-0.7,1c-0.3,0.3-0.5,0.7-0.6,1.1l-0.1,0.2
		c-0.2,0.3-0.4,0.5-0.5,0.8c-0.2,0.2-0.3,0.5-0.5,0.7c0,0.1-0.1,0.1,0,0.2l0,0.2c0.1,0,0.2-0.1,0.3-0.1c0.1-0.3,0.3-0.5,0.4-0.7
		c0.1-0.2,0.3-0.4,0.4-0.7c0.3-0.4,0.5-0.9,0.8-1.3c0.2-0.4,0.5-0.9,0.8-1.3c0.6-0.8,1.2-1.7,1.9-2.5
		C145.8,53.9,146.5,53.1,147.3,52.4z"/>
	<path class="st1" d="M178.2,74c-0.2,0.2-0.3,0.4-0.5,0.6c-0.4,0.6-0.9,1.2-1.4,1.8c-0.5,0.6-0.9,1.2-1.4,1.8
		c-0.4,0.5-0.7,0.9-1.1,1.4c-0.4,0.5-0.7,0.9-1,1.4c-0.4,0.7-0.8,1.4-1.2,2.1c-0.4,0.7-0.8,1.4-1.2,2.1c-0.2,0.4-0.5,0.8-0.7,1.2
		c-0.2,0.4-0.6,0.7-1,1c-0.4,0.2-0.7,0.2-0.9,0c-0.4-0.3-0.9-0.6-1.3-1c-0.4-0.3-0.9-0.7-1.3-1c-0.2-0.2-0.4-0.4-0.4-0.7
		c0-0.4,0-0.9,0-1.3c0-0.4,0-0.9,0-1.3c0.1-1.1,0.3-2.1,0.7-3.1c0.4-1,0.8-2,1.3-3c0.6-1.3,1.2-2.6,2-3.9c0.3-0.6,0.6-1.2,1-1.8
		c0.4-0.6,0.7-1.2,1-1.8c0.1-0.2,0.2-0.4,0.4-0.6c0.2-0.2,0.3-0.4,0.5-0.5c0.3-0.3,0.7-0.3,1-0.1c0.7,0.4,1.4,0.8,2,1.2
		c0.3,0.2,0.4,0.5,0.2,0.9c-0.3,0.4-0.5,0.9-0.8,1.4c-0.3,0.5-0.5,0.9-0.8,1.4c-0.5,0.9-0.9,1.8-1.4,2.8c-0.4,1-0.9,1.9-1.4,2.8
		c-0.3,0.6-0.5,1.3-0.8,1.9c-0.3,0.6-0.5,1.3-0.8,1.9c-0.1,0.2-0.1,0.4-0.1,0.6c0,0.2-0.1,0.5-0.1,0.7c0.3-0.4,0.5-0.6,0.6-0.7
		l2.8-3.8c1.4-1.9,2.8-3.7,4.2-5.5c0.1-0.2,0.3-0.3,0.4-0.5c0.2-0.2,0.3-0.3,0.4-0.5c0.2-0.4,0.4-0.7,0.5-0.9
		c0.2-0.2,0.3-0.4,0.5-0.6c0.2-0.2,0.3-0.4,0.5-0.6l0.2-0.3l0-0.1c-0.1,0.1-0.3,0.2-0.4,0.4l-0.1-0.1c0.3-0.4,0.6-0.6,0.8-0.7
		c0-0.1,0.1-0.1,0.2-0.1c0.1,0,0.2,0,0.2,0.1c0.4,0.3,0.9,0.6,1.3,0.9s0.9,0.6,1.3,0.9c0.8,0.5,1.1,1.3,0.8,2.3
		c-0.3,1.1-0.6,2.1-0.9,3.2c-0.3,1-0.6,2.1-0.9,3.2c-0.1,0.6-0.3,1.1-0.4,1.6c-0.1,0.5-0.2,1.1-0.4,1.6c0,0.1,0,0.2,0,0.3
		c0,0.1,0,0.3,0,0.4c0.2-0.2,0.4-0.3,0.5-0.5c0.1-0.1,0.3-0.3,0.5-0.4c0.3-0.4,0.7-0.9,1-1.2c0.4-0.4,0.7-0.8,1-1.2
		c0.2-0.3,0.4-0.5,0.6-0.8c0.2-0.2,0.4-0.5,0.6-0.8c0.5-0.6,1-1.2,1.4-1.8c0.5-0.6,1-1.2,1.4-1.8l0.5-0.8c0.2-0.1,0.3-0.2,0.3-0.3
		c0.1,0,0.1,0.1,0.2,0c-0.1,0.3-0.2,0.5-0.3,0.7s-0.2,0.4-0.2,0.7l0.1,0.1c0.1-0.3,0.3-0.5,0.5-0.7c0.2-0.2,0.3-0.5,0.5-0.8
		c0.2,0.2,0.2,0.4,0,0.7c-0.1,0.3-0.3,0.6-0.4,0.9c-0.1,0.3-0.3,0.6-0.5,1c-0.4,0.7-0.7,1.5-1.1,2.2c-0.4,0.7-0.8,1.4-1.4,2
		c-0.7,0.9-1.4,1.8-2.1,2.7c-0.7,0.9-1.5,1.7-2.5,2.5l-0.4,0.3c-0.2,0.2-0.5,0.3-0.9,0.1c-0.4-0.3-0.9-0.6-1.3-0.9
		c-0.4-0.3-0.8-0.6-1.3-0.9c-0.3-0.2-0.5-0.4-0.5-0.7c-0.1-0.3-0.1-0.6-0.2-1c0-0.1,0.1-0.1,0-0.2c-0.3-0.9-0.3-1.7,0-2.5
		c0.2-0.8,0.4-1.7,0.7-2.5c0.1-0.6,0.3-1.1,0.5-1.7c0.2-0.6,0.4-1.2,0.5-1.7c0-0.1,0.1-0.1,0-0.2c0,0,0-0.1,0-0.2l-0.1-0.1
		C178.5,73.6,178.3,73.8,178.2,74z M168.5,73.9C168.6,73.8,168.6,73.8,168.5,73.9c0.1-0.1,0.1-0.1,0.2-0.2c0.1-0.3,0.2-0.5,0.3-0.8
		c0.1-0.2,0.3-0.5,0.4-0.8c0.3-0.7,0.7-1.3,1-2c0.4-0.6,0.7-1.2,1.2-1.8c0.1-0.1,0.1-0.2,0.2-0.3c0.1-0.1,0.1-0.2,0.2-0.3l-0.1-0.1
		c-0.3,0.3-0.6,0.5-0.8,0.7c-0.5,0.8-0.9,1.5-1.3,2.3c-0.4,0.8-0.9,1.6-1.3,2.3C168.5,73.3,168.5,73.5,168.5,73.9
		c-0.1,0-0.2,0-0.2,0.1c0,0-0.1,0.1-0.1,0.1c-0.3,0.6-0.6,1.3-0.9,1.9c-0.3,0.6-0.6,1.3-0.9,1.9c-0.6,1.3-1,2.7-1.3,4.2
		c0,0.2,0,0.4,0,0.5l0.1,0c0,0,0-0.1,0-0.1c0,0,0-0.1,0-0.1c0.1-0.8,0.3-1.6,0.5-2.3c0.2-0.7,0.5-1.5,0.8-2.2
		c0.1-0.2,0.1-0.3,0.2-0.5c0.1-0.2,0.2-0.4,0.2-0.6c0.2-0.3,0.4-0.7,0.6-1c0.2-0.3,0.4-0.7,0.5-1c0.1-0.1,0.1-0.2,0.2-0.4
		C168.4,74.2,168.5,74.1,168.5,73.9z M179.3,73.1C179.2,73.1,179.2,73.1,179.3,73.1c-0.1,0-0.2,0.2-0.3,0.3
		c-0.1,0.4-0.2,0.8-0.3,1.2c-0.1,0.4-0.2,0.7-0.3,1.1c-0.2,0.9-0.5,1.7-0.7,2.6c-0.3,0.9-0.4,1.8-0.5,2.7c-0.1,0.6,0,1,0.2,1.3
		c0-0.2,0-0.5,0-0.6c0-0.2,0-0.4,0-0.6c0.1-0.5,0.1-0.9,0.2-1.4c0.1-0.5,0.2-0.9,0.3-1.4c0.2-0.8,0.5-1.6,0.7-2.4
		c0.2-0.8,0.5-1.6,0.7-2.4C179.3,73.4,179.3,73.2,179.3,73.1z"/>
	<path class="st1" d="M206.3,52c-0.3,0.4-0.6,0.7-1,1c-0.3,0.3-0.6,0.7-0.9,1c-0.6,0.7-1.2,1.4-1.7,2.1c-0.3,0.4-0.6,0.8-0.8,1.2
		c-0.2,0.4-0.5,0.8-0.7,1.2c-0.3,0.4-0.5,0.9-0.8,1.3c-0.3,0.4-0.5,0.9-0.8,1.3c-0.3,0.5-0.6,1.1-0.9,1.6c-0.3,0.5-0.6,1-0.9,1.6
		c-0.3,0.5-0.5,1-0.7,1.4c-0.2,0.5-0.4,0.9-0.7,1.4c-0.3,0.6-0.6,1.3-0.9,1.9c-0.3,0.7-0.6,1.3-0.9,2c-0.1,0.2-0.1,0.4,0,0.7
		c0,0.1,0,0.1,0.1,0.1c0.1,0,0.1,0,0.2,0l4-0.7c1-0.2,2-0.4,3-0.4s2-0.1,3,0c0.5,0,1.1,0,1.6,0.1c0.5,0.1,1,0.1,1.6,0.2
		c0.3,0.1,0.5,0.1,0.8,0.2c0.3,0.1,0.6,0.2,0.9,0.4c-0.1-0.1-0.2-0.1-0.3-0.2c-0.1-0.1-0.1-0.1-0.2-0.2c0.6,0.2,0.9,0.6,0.9,1.2
		c0,0.4-0.1,0.9-0.1,1.4c-0.1,0.5-0.1,0.9-0.1,1.4c-0.1,0.4-0.3,0.5-0.6,0.6c-0.3,0-0.4-0.2-0.2-0.5c0.1-0.2,0.1-0.4,0-0.6
		c-0.1-0.2-0.2-0.3-0.5-0.3c-0.6,0-1.2-0.1-1.8-0.1c-0.6,0-1.2-0.1-1.8,0c-0.7,0-1.4,0.1-2.2,0.1c-0.7,0.1-1.4,0.1-2.1,0.3
		c-0.9,0.1-1.7,0.2-2.6,0.4s-1.7,0.3-2.6,0.5c-0.3,0.1-0.7,0.1-1,0.2c-0.3,0.1-0.7,0.2-1,0.2c-0.4,0.1-0.6,0.3-0.7,0.6
		c-0.3,0.9-0.5,1.8-0.8,2.6c0,0.3,0,0.6,0.1,0.9c0.7,1.2,1.1,2.5,1.3,3.9c0.4,2.5,0.4,5.1-0.1,7.8c-0.1,0.7-0.3,1.3-0.5,1.9
		c-0.2,0.6-0.5,1.1-0.8,1.7c-0.2,0.4-0.4,0.8-0.6,1c-0.2,0.3-0.5,0.4-0.8,0.2c-0.3-0.1-0.6-0.3-0.9-0.6l-1-0.7
		c-1.5-0.8-2.4-1.9-2.6-3.5c-0.3-1.7-0.4-3.3-0.4-5c0-0.8,0.1-1.7,0.2-2.5c0.1-0.8,0.3-1.7,0.5-2.6c0.1-0.6,0.2-1.1,0.3-1.6
		c0.1-0.5,0.2-1,0.4-1.6c0-0.1,0-0.2,0.1-0.3c0-0.1,0-0.2,0-0.4c-0.2,0.1-0.4,0.2-0.7,0.2c-0.2,0-0.4,0.1-0.6,0.3
		c-0.7,0.3-1.4,0.6-2.2,0.9c-0.7,0.3-1.4,0.6-2.1,0.9c-0.6,0.3-1.2,0.7-1.6,1.3c0,0.1-0.1,0.1-0.1,0.1c0,0-0.1,0.1-0.2,0.2l-0.1-0.4
		c0-0.3,0.1-0.6,0.1-0.9c0-0.3,0.1-0.6,0.1-0.9c0.1-0.3,0.1-0.5,0.2-0.7c0.1-0.2,0.2-0.4,0.3-0.6c0,0,0-0.1,0.1-0.1
		c0.3-0.3,0.7-0.5,1-0.7c0.3-0.2,0.7-0.5,1-0.7c1.1-0.8,2.2-1.4,3.4-1.8c0.4-0.2,0.7-0.3,1.1-0.5c0.4-0.2,0.7-0.3,1.1-0.5
		c-0.7,0.2-1.3,0.4-1.9,0.6c-0.6,0.3-1.3,0.5-1.9,0.8c0.1-0.1,0.2-0.1,0.3-0.2c0.1-0.1,0.2-0.1,0.4-0.2c0.6-0.2,1.1-0.4,1.6-0.6
		c0.5-0.2,1.1-0.4,1.6-0.7c0.2-0.1,0.3-0.3,0.4-0.4c0.3-0.8,0.6-1.7,0.9-2.5c0.3-0.8,0.6-1.6,0.9-2.4c0.5-1,0.9-2,1.3-2.9
		c0.4-1,0.9-1.9,1.4-2.8c0.4-0.8,0.8-1.5,1.3-2.2c0.5-0.7,0.9-1.4,1.3-2.1l0.9-1.2c0.1-0.1,0.2-0.2,0.2-0.3l0.1,0.1
		c-0.1,0.1-0.2,0.2-0.2,0.4c-0.1,0.1-0.2,0.3-0.2,0.4c-0.3,0.5-0.6,1-0.9,1.5c-0.3,0.5-0.6,1-0.9,1.5c-0.4,0.6-0.7,1.2-1.1,1.8
		c-0.3,0.6-0.7,1.2-1,1.8c-0.4,0.8-0.8,1.7-1.2,2.5c-0.4,0.8-0.8,1.7-1.2,2.6c-0.2,0.6-0.5,1.2-0.6,1.8c-0.2,0.6-0.4,1.2-0.6,1.8
		c0,0.1-0.1,0.1,0,0.2c0,0,0,0.1,0,0.2c0,0,0.1,0,0.1,0.1l0.2-0.2c0.4-0.9,0.7-1.8,1.1-2.7c0.3-0.9,0.7-1.8,1.1-2.7
		c0.8-1.8,1.6-3.5,2.6-5.3c0.5-0.8,1-1.6,1.5-2.5c0.5-0.8,1.1-1.6,1.6-2.4c0.4-0.6,0.9-1.2,1.4-1.8s1-1.2,1.4-1.8
		c0.7-0.9,1.5-1.6,2.3-2.2c0.2-0.1,0.4-0.3,0.7-0.4c0.2-0.1,0.4-0.2,0.7-0.4l0.1,0l0.1,0c0.5,0.2,0.9,0.4,1.3,0.6
		C205.5,51.3,205.9,51.6,206.3,52L206.3,52z M187.8,77.5c0,0-0.1,0-0.2,0c-0.1,0.1-0.1,0.2-0.1,0.3c-0.2,0.8-0.4,1.6-0.5,2.4
		c-0.2,0.8-0.3,1.5-0.5,2.4c-0.4,2.1-0.5,4.1-0.4,6.2l0.1,0.6c0,0,0.1,0,0.1,0c0,0,0,0,0.1,0c-0.2-2.1-0.1-4.1,0.2-6
		C186.9,81.4,187.3,79.5,187.8,77.5z M186.2,89.7C186.2,89.7,186.2,89.6,186.2,89.7l0.1,0.7l0.1,0L186.2,89.7z M191.6,81.3
		c-0.2,0.2-0.2,0.4-0.3,0.5c-0.1,0.3-0.1,0.5-0.2,0.8c-0.1,0.3-0.1,0.5-0.2,0.8c-0.1,0.8-0.2,1.7-0.4,2.4c-0.2,0.8-0.3,1.6-0.4,2.4
		c-0.2,1.3-0.3,2.6-0.4,3.8c0,0.3,0,0.6,0,0.9c0.1,0.3,0.1,0.6,0.2,1c0.1,0.4,0.2,0.4,0.5,0.1c0.1-0.2,0.2-0.4,0.4-0.6
		c0.1-0.2,0.2-0.4,0.3-0.7c0.1-0.3,0.3-0.5,0.3-0.8c0.1-0.3,0.2-0.6,0.3-0.8c0.2-0.6,0.4-1.1,0.5-1.7c0.2-1.4,0.3-2.8,0.2-4.3
		c0-0.5-0.1-1-0.2-1.5c-0.1-0.5-0.2-1-0.3-1.5C191.9,81.9,191.8,81.7,191.6,81.3z M208.7,71c-0.8-0.3-1.5-0.4-2.3-0.4
		c-0.8,0-1.6,0-2.4,0c-0.8,0-1.5,0.1-2.3,0.1c-0.8,0-1.5,0.1-2.3,0.1c1.6-0.2,3.1-0.3,4.7-0.4C205.6,70.3,207.2,70.5,208.7,71z
		 M200.4,52.3l1.9-1.4c0,0,0,0.1,0.1,0.1c-0.3,0.3-0.7,0.6-1,0.8c-0.3,0.2-0.6,0.5-1,0.7C200.5,52.4,200.4,52.3,200.4,52.3z"/>
	<path class="st1" d="M221.5,65.1c-0.1,0.1-0.2,0.1-0.3,0.1c-0.1,0-0.2,0.1-0.3,0.1l0,0.1c0.1,0,0.2,0,0.3-0.1
		c0.1,0,0.2-0.1,0.3-0.1c0,0,0.1,0,0.1-0.1s0.1-0.1,0.1-0.1c0.1,0,0.3-0.1,0.4-0.1c0.1,0,0.3,0,0.4,0.2c0.3,0.4,0.2,0.9-0.1,1.3
		c-0.4,0.5-0.9,0.9-1.4,1.2c-0.5,0.3-1.1,0.6-1.7,0.8c-2,0.7-3.9,1.1-5.9,1l-0.1,0c0,0.1,0,0.2,0.1,0.2c0,0,0.1,0.1,0.1,0.1
		c0.3,0.3,0.4,0.7,0.5,1.1c0.1,0.4,0.1,0.8,0.1,1.2c0,1.1-0.1,2.2-0.4,3.1c-0.3,1-0.8,1.9-1.4,2.8c-0.3,0.3-0.5,0.7-0.8,1
		c-0.3,0.3-0.5,0.7-0.8,0.9c-0.3,0.3-0.7,0.7-1.1,0.9c-0.4,0.3-0.9,0.5-1.4,0.6c-0.6,0.1-1.1,0-1.6-0.2c-0.1-0.1-0.2-0.1-0.3-0.2
		c-0.1-0.1-0.2-0.1-0.3-0.2c-0.3-0.3-0.6-0.5-0.9-0.8c-0.3-0.2-0.6-0.4-0.9-0.6c-1.4-0.8-2-2-1.8-3.7c0-0.5,0.1-1.1,0.2-1.6
		c0.1-0.5,0.3-1,0.5-1.5c0.2-0.5,0.5-1,0.8-1.5c0.3-0.5,0.5-1,0.8-1.5c0.4-0.6,0.8-1.2,1.1-1.8c0.4-0.6,0.8-1.2,1.2-1.8
		c0.6-0.8,1.2-1.6,1.9-2.3c0.7-0.8,1.4-1.4,2.2-2.1c0.3-0.3,0.7-0.6,1.1-0.8c0.4-0.2,0.8-0.4,1.2-0.6c1-0.3,1.8-0.2,2.6,0.5
		c0.1,0.1,0.2,0.2,0.3,0.2c0.1,0.1,0.2,0.2,0.3,0.2c0.2,0.2,0.2,0.4,0,0.6c-0.4,0.4-0.8,0.7-1.2,1.1s-0.8,0.7-1.2,1
		c-0.3,0.3-0.6,0.6-0.8,0.9c-0.2,0.3-0.5,0.6-0.8,0.9c-0.1,0.1-0.2,0.3-0.4,0.4c-0.1,0.2-0.2,0.3-0.3,0.4c-0.1,0.1-0.1,0.1-0.1,0.2
		c0,0,0,0.1,0,0.2c0.1,0.1,0.2,0.1,0.3,0.2c0.9,0,1.8-0.1,2.7-0.2c0.9-0.1,1.8-0.3,2.6-0.6c0.6-0.2,1.3-0.4,1.9-0.6
		c0.6-0.2,1.3-0.4,1.9-0.6L221.5,65.1L221.5,65.1z M209.1,64.3C209.1,64.3,209.1,64.3,209.1,64.3c-0.2,0-0.3,0-0.3,0.1
		c-0.4,0.5-0.7,0.9-1.1,1.3c-0.3,0.4-0.7,0.8-1,1.3c-0.6,0.8-1.2,1.6-1.7,2.5c-0.5,0.9-1,1.8-1.4,2.7c-0.2,0.4-0.3,0.8-0.4,1.2
		c-0.1,0.4-0.3,0.8-0.4,1.2c0,0.1,0,0.2,0,0.3s0,0.2,0,0.3c0.1-0.2,0.2-0.3,0.2-0.4c0.1-0.4,0.2-0.8,0.3-1.2
		c0.1-0.4,0.2-0.7,0.4-1.1c0.3-0.6,0.6-1.2,0.9-1.7c0.3-0.6,0.6-1.1,1-1.7c0.4-0.7,0.8-1.4,1.2-2s0.9-1.3,1.5-1.9
		c0.2-0.2,0.3-0.3,0.4-0.5C208.9,64.7,209,64.5,209.1,64.3z M211.4,69.3c0-0.1-0.1-0.2-0.1-0.2c-0.1,0-0.3-0.1-0.6-0.2
		c-0.2,0-0.4,0.1-0.5,0.2c-0.6,0.9-1.2,1.8-1.8,2.7c-0.6,0.9-1.1,1.8-1.5,2.9c-0.5,1-0.7,2.2-0.8,3.6c-0.1,0.4,0,0.5,0.3,0.2
		c0.3-0.3,0.7-0.5,1-0.7c0.3-0.2,0.6-0.4,0.9-0.7c0.3-0.3,0.6-0.6,0.9-1c0.3-0.4,0.5-0.8,0.7-1.2c0.3-0.5,0.5-1,0.7-1.4
		c0.2-0.5,0.4-1,0.5-1.5c0.1-0.4,0.2-0.8,0.2-1.3S211.5,69.8,211.4,69.3z M211.5,71.7c-0.6,2.4-1.8,4.4-3.5,6.2
		c0.3-0.1,0.6-0.4,1.1-0.9c0.4-0.6,0.9-1.2,1.2-1.9c0.4-0.7,0.7-1.3,1-2C211.5,72.4,211.6,71.9,211.5,71.7z M214.4,67.2L214.4,67.2
		l1.9-0.3l0-0.1L214.4,67.2z M219.9,65.9c0,0,0-0.1-0.1-0.1c-0.5,0.2-1,0.4-1.6,0.5c-0.5,0.2-1,0.3-1.6,0.5l0,0.1
		c0.5-0.2,1-0.4,1.6-0.5C218.8,66.2,219.3,66.1,219.9,65.9z"/>
	<path class="st1" d="M222.4,72.8l-0.3,0.9c0,0,0.1,0,0.1,0.1c0.8-1.3,1.7-2.6,2.5-3.9c0.8-1.3,1.6-2.6,2.4-3.9
		c0.8-1.3,1.7-2.5,2.7-3.7c0.9-1.2,1.9-2.4,2.8-3.6c0-0.1,0-0.1-0.1-0.1c0,0-0.1,0-0.1,0.1c0,0-0.1,0.1-0.2,0.1c0,0,0-0.1-0.1-0.1
		c0.1-0.1,0.1-0.1,0.2-0.2c0-0.1,0.1-0.1,0.2-0.2c0.1-0.1,0.2-0.2,0.5-0.2c0.6,0.2,1.1,0.5,1.7,0.8c0.5,0.3,1,0.6,1.5,0.9
		c0.4,0.2,0.6,0.5,0.7,0.9c0.1,0.4,0.1,0.8,0,1.2c-0.1,0.6-0.3,1.1-0.4,1.6s-0.3,1-0.4,1.6c-0.1,0.3-0.1,0.5-0.1,0.6
		s-0.1,0.4-0.2,0.6c-0.1,0.5-0.4,0.8-0.8,0.9c-0.4,0.1-0.8,0-1.2-0.3c-0.1-0.1-0.2-0.1-0.3-0.2c-0.1,0-0.2-0.1-0.3-0.2
		c-0.5-0.3-0.9-0.7-1.1-1.1c-0.3-0.4-0.4-0.9-0.3-1.5c0-0.1,0-0.2,0-0.2c-0.2,0.1-0.3,0.3-0.3,0.5c0,0.2,0.1,0.4,0.1,0.6l-0.5-0.4
		c-0.1,0.1-0.2,0.2-0.4,0.4c-0.6,1.1-1.3,2.2-2,3.2c-0.7,1.1-1.3,2.1-1.9,3.2c-0.6,1.1-1.2,2.2-1.8,3.3c-0.6,1.1-1.2,2.1-1.9,3.2
		c-0.2,0.3-0.4,0.5-0.5,0.7c-0.1,0.2-0.3,0.4-0.5,0.7c-0.2,0.4-0.6,0.5-1,0.2c-0.5-0.3-1.1-0.6-1.6-0.9c-0.5-0.3-1-0.6-1.6-0.9
		c-0.3-0.2-0.5-0.5-0.5-0.9c0-0.2-0.1-0.5-0.1-0.8c0-0.3,0-0.5,0-0.8c0-1,0-2,0.2-3c0.1-1,0.4-1.9,0.6-2.9c0.2-0.6,0.4-1.2,0.5-1.9
		c0.2-0.6,0.4-1.2,0.6-1.8c0.3-0.9,0.6-1.8,1-2.7c0.3-0.9,0.7-1.7,1.1-2.5c0-0.1,0.1-0.1,0.1-0.2c0-0.1,0-0.1,0.1-0.2
		c0.2-0.2,0.3-0.3,0.6-0.2c0.4,0.2,0.9,0.4,1.4,0.6c0.5,0.2,0.9,0.4,1.4,0.7c0.3,0.1,0.4,0.3,0.3,0.7c-0.1,0.6-0.3,1.1-0.5,1.7
		c-0.2,0.6-0.3,1.1-0.5,1.7c-0.2,0.7-0.4,1.3-0.6,2c-0.2,0.6-0.4,1.3-0.6,1.9c-0.2,0.5-0.3,0.9-0.4,1.4c-0.1,0.5-0.2,0.9-0.4,1.3
		c0,0.1-0.1,0.2-0.1,0.3C222.2,72.6,222.3,72.7,222.4,72.8z M219.7,65.9c0.1-0.1,0.2-0.2,0.2-0.3c0.1-0.2,0.1-0.4,0.2-0.6
		c0.1-0.2,0.2-0.4,0.2-0.5c0.2-0.6,0.4-1.1,0.6-1.6c0.2-0.5,0.4-1,0.6-1.6c0.1-0.3,0.2-0.6,0.2-0.7c0,0-0.1,0-0.1,0.1
		c-0.3,0.2-0.4,0.4-0.5,0.7c-0.1,0.3-0.2,0.6-0.3,0.8c-0.2,0.5-0.4,1-0.6,1.5c-0.2,0.5-0.3,1-0.5,1.5
		C219.9,65.4,219.8,65.7,219.7,65.9c-0.1,0.1-0.1,0.2-0.2,0.3c-0.4,1-0.7,2-0.9,2.9c-0.2,0.5-0.3,1-0.4,1.5c-0.1,0.5-0.2,1-0.4,1.5
		c-0.1,0.7-0.2,1.4-0.2,2.1c0,0.7-0.1,1.4-0.1,2.1l0.1,0.8l0.1,0.1c0-0.1,0-0.1,0-0.2c0-0.6,0-1.2,0-1.8c0-0.6,0-1.2,0.1-1.8
		c0.1-0.7,0.2-1.4,0.4-2.1c0.1-0.7,0.3-1.4,0.6-2.1c0.3-0.8,0.6-1.8,0.9-2.9L219.7,65.9z"/>
	<path class="st1" d="M243.4,67.7c0.2-0.2,0.3-0.3,0.5-0.5s0.3-0.3,0.4-0.5c0.7-0.8,1.3-1.5,1.9-2.2c0.6-0.7,1.3-1.5,2-2.2
		c0.5-0.6,1-1.1,1.5-1.6c0.5-0.5,1-1.1,1.5-1.7c0.4-0.4,0.7-0.8,1.1-1.2c0.4-0.4,0.8-0.8,1.1-1.2c0-0.1,0.1-0.1,0.1-0.1
		c0,0,0.1,0,0.1-0.1l-0.1-0.1c-0.2,0.1-0.4,0.3-0.6,0.5c-0.2,0.2-0.4,0.3-0.6,0.5c0,0,0-0.1-0.1-0.1c0.5-0.4,1-0.9,1.6-1.3
		c0.1-0.1,0.2-0.1,0.4,0c0.6,0.2,1.1,0.5,1.6,0.8c0.5,0.3,1,0.7,1.4,1.1c0.2,0.3,0.3,0.6,0.3,0.8c0,0.5-0.1,1-0.2,1.5
		c-0.1,0.5-0.3,0.9-0.5,1.3c-0.2,0.5-0.4,1-0.6,1.5c-0.2,0.5-0.4,1-0.6,1.5c0,0.1,0,0.2,0,0.3c0.4-0.3,0.7-0.7,1.1-1s0.6-0.7,1-1.1
		c-0.3,0.6-0.7,1.1-1.2,1.5c-0.5,0.4-0.9,0.9-1.2,1.4l0.1,0.1l0.7-0.8c0.6-0.7,1.1-1.4,1.6-2c0.5-0.7,1.1-1.3,1.7-2
		c0.6-0.6,1.1-1.3,1.6-1.9c0.5-0.6,1-1.2,1.6-1.9c1-1.2,2.1-2.3,3.4-3.5c0.2-0.2,0.4-0.4,0.7-0.6c0.3-0.2,0.5-0.4,0.8-0.6
		c0.1-0.1,0.2-0.2,0.3-0.2c0.1,0,0.2-0.1,0.3-0.2c-0.4,0.2-0.6,0.3-0.7,0.3c-0.1,0-0.1-0.1-0.1-0.1c0.2-0.1,0.3-0.2,0.5-0.3
		c0.2-0.1,0.4-0.2,0.5-0.3c0.3-0.1,0.6-0.1,0.9,0.1c0.4,0.3,0.8,0.5,1.2,0.8c0.4,0.2,0.8,0.5,1.2,0.8c0.6,0.4,0.8,1,0.8,1.7
		c0,0.4-0.1,0.9-0.2,1.3c-0.1,0.4-0.2,0.9-0.4,1.3c-0.3,0.8-0.5,1.6-0.8,2.3c-0.3,0.8-0.6,1.6-0.9,2.4c-0.2,0.7-0.4,1.3-0.6,2
		c-0.2,0.6-0.4,1.3-0.6,2c-0.2,0.5-0.3,1-0.3,1.4l0.1,0.1c0.1,0,0.2,0,0.2-0.1c0,0,0.1,0,0.2-0.1c0.8-0.6,1.5-1.2,2.2-1.9
		c0.7-0.7,1.3-1.4,1.9-2.2c0.6-0.7,1.1-1.4,1.7-2.1c0.6-0.7,1.2-1.4,1.7-2.1c0.2-0.3,0.4-0.5,0.6-0.8c0.2-0.3,0.4-0.5,0.6-0.8
		c0-0.1,0.1-0.2,0.3-0.3c-0.8,1.2-1.6,2.3-2.5,3.4c-0.9,1.1-1.8,2.2-2.6,3.3c0.1,0,0.1,0.1,0.1,0.1c0.1-0.2,0.2-0.3,0.4-0.5
		c0.1-0.1,0.2-0.3,0.4-0.4c0.4-0.5,0.7-0.9,1.1-1.4c0.4-0.5,0.8-1,1.2-1.4c0.4-0.5,0.8-1,1.2-1.6c0.4-0.5,0.8-1,1.2-1.6
		c0.4-0.5,0.7-0.9,1-1.4c0.3-0.4,0.7-0.9,1.2-1.2c0.3-0.2,0.5-0.3,0.6-0.3c0.1,0,0.4,0.1,0.6,0.3c0.3,0.2,0.5,0.4,0.5,0.5
		c0.1,0.1,0,0.4-0.1,0.8c-0.2,0.5-0.4,0.9-0.6,1.3c-0.2,0.4-0.5,0.8-0.7,1.3c-0.4,0.6-0.9,1.2-1.3,1.9c-0.4,0.7-0.9,1.3-1.3,2.1
		c-0.5,0.9-1.1,1.7-1.8,2.5c-0.7,0.8-1.3,1.6-2,2.3c-1,1.2-2.2,2.2-3.6,3c-0.1,0.1-0.3,0.2-0.4,0.3c-0.2,0.1-0.3,0.1-0.4,0.2
		c-0.7,0.4-1.4,0.3-2-0.2c-0.3-0.3-0.6-0.6-1-0.8c-0.4-0.2-0.7-0.4-1.1-0.6c-0.3-0.1-0.5-0.3-0.8-0.5c-0.3-0.2-0.4-0.5-0.5-0.9
		c0-0.2,0-0.4,0-0.6c0-0.2,0-0.4,0-0.6c0-1.1,0.2-2.2,0.5-3.2c0.4-0.9,0.7-1.9,1-2.8c0.3-1,0.6-1.9,0.9-2.9c0.1-0.3,0.2-0.6,0.3-0.9
		c0.1-0.3,0.3-0.6,0.4-0.9c0.1-0.2,0.2-0.4,0.2-0.6c0,0-0.1,0-0.1-0.1c-0.1,0.1-0.2,0.2-0.3,0.2c-0.1,0-0.2,0.1-0.3,0.2
		c-0.4,0.4-0.7,0.8-1.1,1.2c-0.4,0.4-0.7,0.8-1.1,1.3l-4.2,4.9c-0.4,0.5-0.8,1-1.1,1.5c-0.4,0.5-0.7,1-1.1,1.5
		c-0.3,0.3-0.5,0.7-0.8,1.1c-0.2,0.4-0.5,0.8-0.9,1.1c-0.4,0.5-0.7,0.9-1.1,1.3c-0.4,0.4-0.8,0.8-1.3,1.1c-0.4,0.4-0.7,0.5-1,0.5
		s-0.7-0.2-1.1-0.5c-0.2-0.2-0.4-0.4-0.6-0.5c-0.2-0.1-0.4-0.3-0.7-0.4c-0.2-0.1-0.3-0.2-0.5-0.3c-0.2-0.1-0.3-0.3-0.5-0.4
		c-0.2-0.2-0.3-0.3-0.2-0.5c0-0.2,0-0.5,0-0.7c0-0.2,0-0.5,0.1-0.7c0.2-0.7,0.3-1.4,0.5-2.1c0.2-0.7,0.5-1.4,0.8-2.1
		c0-0.1,0-0.2,0-0.4c0,0.1-0.1,0.1-0.1,0.1c0,0-0.1,0-0.1,0.1l-2.9,3.6c-0.2,0.3-0.5,0.7-0.7,1c-0.3,0.3-0.5,0.6-0.7,1
		c-0.4,0.5-0.7,0.9-1.1,1.5c-0.3,0.5-0.7,1-1.1,1.5c-0.7,0.9-1.5,1.9-2.5,2.9c-0.2,0.2-0.4,0.4-0.7,0.5c-0.3,0.1-0.5,0.1-0.8,0
		c-0.3-0.1-0.6-0.3-0.8-0.6c-0.2-0.1-0.3-0.2-0.5-0.3c-0.2-0.1-0.4-0.3-0.5-0.4c-0.2-0.2-0.5-0.3-0.7-0.4c-0.2-0.1-0.5-0.3-0.7-0.5
		c-0.2-0.2-0.3-0.5-0.3-0.8c0-0.8,0-1.5,0.1-2.3c0.1-0.7,0.2-1.5,0.5-2.2c0.1-0.6,0.3-1.1,0.5-1.6c0.2-0.5,0.4-1,0.6-1.6
		c0.2-0.4,0.4-0.8,0.5-1.3c0.2-0.4,0.4-0.8,0.6-1.3c0.3-0.6,0.6-1.2,0.9-1.8c0.3-0.6,0.7-1.3,1.1-1.9c0.1-0.2,0.2-0.3,0.3-0.5
		c0.1-0.1,0.3-0.3,0.5-0.4c0.2-0.2,0.4-0.2,0.7-0.1l2.5,1.5c0.2,0.2,0.3,0.4,0.2,0.6c-0.3,0.6-0.6,1.3-0.9,1.9
		c-0.3,0.6-0.6,1.3-0.9,1.9c-0.2,0.4-0.4,0.8-0.5,1.3c-0.2,0.4-0.4,0.8-0.5,1.3c-0.2,0.4-0.3,0.7-0.4,1.1c-0.1,0.3-0.3,0.7-0.4,1.1
		c-0.1,0.3-0.1,0.5-0.2,0.7c-0.1,0.2-0.1,0.5-0.2,0.7c0.2-0.1,0.3-0.2,0.3-0.3c1.2-1.4,2.3-2.8,3.5-4.1c1.2-1.3,2.4-2.7,3.6-4
		c0.1-0.1,0.2-0.2,0.3-0.2c-0.3,0.4-0.6,0.8-1,1.1c-0.4,0.5-0.9,1-1.3,1.6c-0.4,0.5-0.9,1-1.3,1.6c-0.5,0.5-0.9,1-1.3,1.5
		c-0.4,0.5-0.8,1-1.3,1.5C243.5,67.5,243.4,67.7,243.4,67.7l-0.1,0c-0.2,0.3-0.4,0.5-0.6,0.7c-0.2,0.2-0.4,0.4-0.6,0.7
		c0,0.1,0,0.2,0,0.3c0.1-0.1,0.3-0.3,0.4-0.5c0.2-0.2,0.3-0.4,0.5-0.6C243.1,68.1,243.2,67.9,243.4,67.7z M237.6,70.8
		c0.1,0,0.1,0.1,0.2,0c0-0.5,0-0.9,0.1-1.1l-0.2,0c0,0.2,0,0.4,0,0.5C237.6,70.4,237.6,70.6,237.6,70.8z M237.8,68.7
		c0.1,0,0.1,0.1,0.2,0c0.1-0.2,0.1-0.3,0.1-0.5c0-0.1,0-0.3,0.1-0.5c-0.1,0-0.1-0.1-0.2,0c-0.1,0.2-0.1,0.3-0.1,0.5
		C237.9,68.4,237.9,68.5,237.8,68.7z M238.8,65.7l-0.2,0c-0.1,0.2-0.1,0.4-0.2,0.6c-0.1,0.2-0.2,0.4-0.2,0.6c0.1,0,0.1,0.1,0.2,0
		c0.1-0.2,0.1-0.4,0.2-0.6C238.7,66.1,238.7,65.9,238.8,65.7z M240.1,62.1C240.2,62.1,240.2,62.1,240.1,62.1
		c0.1-0.1,0.1-0.1,0.2-0.2l1.1-2.4l0-0.1c-0.1,0.1-0.2,0.2-0.2,0.3c-0.1,0.3-0.3,0.6-0.4,0.9c-0.1,0.3-0.3,0.6-0.4,1
		C240.2,61.6,240.2,61.8,240.1,62.1L240.1,62.1c-0.3,0.5-0.5,1-0.7,1.4s-0.5,1-0.7,1.4l0,0.3c0.2-0.4,0.3-0.8,0.5-1.2
		c0.2-0.3,0.4-0.7,0.5-1.2c0.1-0.2,0.1-0.3,0.1-0.4C240,62.4,240.1,62.3,240.1,62.1z M242.3,57.9c0.1-0.1,0.2-0.2,0.4-0.4
		c0.1-0.1,0.2-0.2,0.3-0.3c0.1-0.1,0.1-0.2,0.2-0.3c0.1-0.1,0.1-0.1,0.2-0.2c0,0,0-0.1-0.1-0.1c0,0.1-0.1,0.1-0.1,0.1
		c0,0-0.1,0-0.2,0.1c-0.2,0.2-0.4,0.4-0.5,0.6C242.4,57.5,242.4,57.7,242.3,57.9c-0.3,0.2-0.5,0.6-0.7,1.1c0.2-0.2,0.3-0.3,0.4-0.5
		C242.2,58.4,242.3,58.1,242.3,57.9z M252.7,61.6L252.7,61.6c-0.2,0.2-0.3,0.3-0.4,0.4c-0.2,0.6-0.4,1.1-0.6,1.7
		c-0.2,0.6-0.4,1.1-0.6,1.7c-0.1,0.4-0.2,0.7-0.3,1.1c-0.1,0.4-0.2,0.7-0.3,1.1c-0.1,0.2-0.1,0.3-0.1,0.5c0,0.2,0,0.3,0,0.5l0.1,0.1
		c0.2-1.2,0.5-2.4,0.9-3.6C251.8,63.9,252.3,62.8,252.7,61.6z M260.1,59.8c-0.3,0.3-0.6,0.7-0.9,1.1c-0.3,0.4-0.6,0.7-0.9,1.1
		l-0.1-0.1l1.8-2.3C260.1,59.7,260.1,59.7,260.1,59.8z M267.6,58.1c0.2-0.4,0.3-0.7,0.4-1c0.1-0.3,0.2-0.6,0.4-0.9
		c0.1-0.2,0.1-0.4,0.2-0.6c0.1-0.2,0.1-0.4,0.2-0.6c0,0-0.1,0-0.1-0.1c-0.1,0.1-0.1,0.2-0.1,0.2c0,0.1-0.1,0.1-0.1,0.2
		c-0.2,0.4-0.3,0.8-0.4,1.2c-0.1,0.4-0.2,0.8-0.4,1.2c0,0.1-0.1,0.1,0,0.2C267.6,57.9,267.5,58,267.6,58.1c-0.3,0.4-0.4,0.8-0.6,1.2
		c-0.2,0.4-0.3,0.9-0.5,1.3c-0.2,0.4-0.3,0.8-0.4,1.2c-0.1,0.4-0.2,0.8-0.3,1.2c-0.1,0.6-0.3,1.1-0.4,1.6s-0.2,1-0.2,1.6l0,0.2
		l0.1-0.2c0.1-0.8,0.3-1.4,0.4-2.1c0.2-0.8,0.5-1.6,0.7-2.4c0.2-0.8,0.5-1.5,0.7-2.3c0.1-0.3,0.2-0.5,0.3-0.7
		C267.5,58.6,267.5,58.4,267.6,58.1z M269.2,67.9c-0.1,0.1-0.3,0.2-0.5,0.3l0.2,0.1c0.1-0.1,0.2-0.1,0.2-0.2
		C269.1,68.1,269.2,68,269.2,67.9c0.4,0,0.6-0.2,0.9-0.6C269.7,67.5,269.4,67.7,269.2,67.9z"/>
	<path class="st1" d="M291.5,49.2c0.1-0.1,0.3-0.2,0.4-0.4c0.2-0.2,0.3-0.3,0.6-0.1c0.3,0.2,0.6,0.4,0.8,0.7c0.2,0.3,0.4,0.6,0.6,1
		c0,0.3,0,0.5,0,0.6c0,0.2-0.1,0.4-0.3,0.6c-0.3,0.4-0.6,0.9-0.9,1.3c-0.3,0.4-0.6,0.9-0.9,1.3c-0.4,0.7-0.8,1.4-1.2,2.1
		c-0.4,0.7-0.8,1.3-1.2,2c-0.1,0.3-0.3,0.6-0.4,1c-0.1,0.3-0.3,0.7-0.4,1c-0.1,0.6-0.3,1.1-0.5,1.7c-0.2,0.6-0.3,1.1-0.3,1.7
		c0,0.3,0.1,0.4,0.4,0.4c0.7-0.1,1.4-0.4,2.2-0.9c0.4-0.3,0.9-0.6,1.3-0.9c0.4-0.3,0.8-0.6,1.3-1c0,0,0.1,0,0.1-0.1
		c0,0,0.1-0.1,0.2-0.1c-0.1,0.1-0.2,0.2-0.2,0.3c-0.1,0.1-0.2,0.2-0.2,0.3c-0.1,0.1-0.2,0.2-0.2,0.3c-0.1,0.1-0.2,0.2-0.2,0.3
		c-0.3,0.1-0.4,0.3-0.5,0.4l0,0.1c0.1-0.1,0.3-0.2,0.4-0.3c0.2-0.1,0.3-0.2,0.4-0.3c0.2-0.3,0.5-0.6,0.8-0.8
		c0.3-0.2,0.5-0.5,0.8-0.8c0.4-0.4,0.7-0.8,1.1-1.1c0.4-0.4,0.7-0.7,1.2-1.1c0,0,0.1-0.1,0.2-0.1l0,0.3l-0.1,0.2l0.1,0.1
		c0.1-0.1,0.1-0.2,0.2-0.3c0.1-0.1,0.1-0.1,0.1-0.2l0.1,0c0,0.1,0,0.2,0,0.3c-0.2,0.4-0.3,0.8-0.5,1.3c-0.1,0.4-0.3,0.8-0.5,1.3
		c-0.8,1.8-2,3.4-3.7,4.5c-0.3,0.3-0.7,0.5-1.1,0.7c-0.4,0.2-0.8,0.3-1.2,0.4c-0.9,0.2-1.7-0.1-2.1-0.9c-0.3-0.4-0.6-0.8-0.9-1.2
		c-0.3-0.4-0.6-0.8-0.9-1.2c-0.1-0.2-0.2-0.4-0.2-0.6c-0.1-0.2-0.2-0.4-0.3-0.5l0-0.3c-0.2,0-0.3,0.1-0.3,0.3c-0.4,0.5-0.7,1-1,1.5
		c-0.3,0.5-0.7,1-1,1.4c-0.3,0.4-0.6,0.9-0.9,1.3c-0.3,0.4-0.7,0.8-1.1,1.1c-0.3,0.1-0.5,0.3-0.6,0.4c-0.6,0.3-1.1,0.3-1.6-0.2
		c-0.3-0.3-0.7-0.7-1.1-1c-0.4-0.4-0.7-0.7-1.1-1c-0.4-0.3-0.6-0.8-0.6-1.4c-0.1-0.8-0.1-1.5,0.1-2.2c0.2-0.7,0.5-1.4,0.8-2.1
		c0.3-0.8,0.7-1.7,1.2-2.5c0.4-0.8,0.9-1.6,1.5-2.4c0.5-0.8,1.1-1.5,1.7-2.2c0.6-0.7,1.3-1.3,2-1.9c0.4-0.4,0.8-0.7,1.2-0.9
		c0.4-0.3,0.9-0.5,1.4-0.5c0.7-0.1,1.2,0,1.8,0.4c0.5,0.3,1,0.6,1.4,1c0.2,0.2,0.4,0.2,0.5,0c0.2-0.3,0.4-0.5,0.6-0.8
		c0.2-0.2,0.4-0.5,0.6-0.8c0.3-0.4,0.5-0.6,0.8-0.6C291.7,48.9,291.6,49.1,291.5,49.2c-0.1,0.1-0.2,0.2-0.3,0.3
		c-0.1,0.1-0.2,0.2-0.3,0.3l0.2,0.1c0.1-0.2,0.1-0.3,0.2-0.4C291.4,49.4,291.4,49.3,291.5,49.2z M279.2,56.6
		c-0.1,0.1-0.3,0.3-0.5,0.8c-0.3,0.5-0.5,1-0.8,1.5c-0.3,0.6-0.5,1.1-0.7,1.5c-0.2,0.5-0.3,0.8-0.3,0.8c0.4-0.8,0.8-1.5,1.1-2.3
		C278.4,58.2,278.8,57.4,279.2,56.6z M288.9,52.3c-0.1,0-0.1-0.1-0.1-0.1c-0.1,0-0.2,0.1-0.3,0.1c-0.8,0.3-1.6,0.8-2.3,1.5
		c-0.4,0.4-0.7,0.8-1.1,1.1c-0.4,0.4-0.7,0.8-1.1,1.2c-0.5,0.5-0.8,0.9-1.2,1.4c-0.3,0.5-0.6,1-0.9,1.5c-0.3,0.5-0.6,1-0.8,1.5
		c-0.3,0.5-0.5,1-0.8,1.5c-0.2,0.4-0.3,0.7-0.4,1.1c-0.1,0.4-0.2,0.7-0.4,1.1c-0.1,0.1-0.1,0.3-0.1,0.5c0,0,0,0.1,0.1,0.1
		c0.4-0.3,0.7-0.6,1-0.9c0.2-0.2,0.4-0.4,0.5-0.5c0.1-0.2,0.3-0.3,0.5-0.5c0.1-0.2,0.2-0.4,0.4-0.6c0.1-0.2,0.3-0.3,0.5-0.5l0.1,0
		c-0.4,0.5-0.7,0.9-1,1.3c-0.3,0.4-0.6,0.8-1,1.2c0.2,0,0.3-0.1,0.5-0.3c0.4-0.6,0.9-1.1,1.4-1.7c0.5-0.6,0.9-1.2,1.4-1.8
		c1-1.4,2-2.7,2.9-4.2c0.2-0.2,0.4-0.5,0.5-0.7c0.2-0.2,0.2-0.5,0.2-0.9l0.1-0.1c0.2-0.2,0.4-0.5,0.5-0.7c0.1-0.2,0.3-0.5,0.4-0.7
		c0.1-0.1,0.2-0.2,0.3-0.4C288.7,52.6,288.8,52.4,288.9,52.3z M279.4,56L279.4,56c0.2-0.1,0.3-0.3,0.5-0.5c0.1-0.2,0.3-0.4,0.4-0.6
		l-0.1,0c-0.2,0.2-0.3,0.4-0.5,0.6C279.7,55.7,279.5,55.9,279.4,56z M291,63.3c0,0,0-0.1-0.1-0.1c-0.3,0.2-0.6,0.3-0.9,0.5
		c-0.3,0.2-0.5,0.3-0.8,0.5C289.8,64.1,290.4,63.8,291,63.3z"/>
	<path class="st1" d="M312.4,33c-0.3,0-0.7-0.1-1-0.1s-0.7-0.1-1-0.1l0,0.1c0.3,0,0.6,0.1,0.9,0.1c0.3,0,0.6,0.1,0.9,0.1
		c1.9,0.2,3.7,0.7,5.2,1.6c0.3,0.1,0.5,0.2,0.7,0.4c0.2,0.2,0.4,0.3,0.7,0.5c0.3,0.2,0.5,0.4,0.5,0.7c0.1,0.3,0.1,0.6,0.1,1
		l-0.2-0.1c-0.5-0.5-1-0.8-1.6-1c-0.6-0.2-1.2-0.4-1.8-0.5c-0.7-0.1-1.4-0.2-2.1-0.3c-0.7,0-1.4-0.1-2.1-0.2c-0.4,0-0.8-0.1-1.2-0.1
		c-0.4,0-0.8-0.1-1.2-0.1c-0.2,0-0.4,0-0.6,0.1c-0.2,0.1-0.3,0.2-0.5,0.5c-0.5,0.9-1,1.7-1.4,2.5c-0.5,0.8-0.9,1.6-1.4,2.5
		c-0.7,1.4-1.4,2.8-2.1,4.3c-0.7,1.4-1.3,2.9-1.9,4.4c-0.4,1.1-0.9,2.1-1.3,3.2c-0.4,1.1-0.8,2.1-1.1,3.2c-0.2,0.6-0.4,1.1-0.6,1.7
		s-0.4,1.1-0.5,1.7c-0.1,0.6-0.3,1.2-0.4,1.8c-0.1,0.6-0.3,1.2-0.4,1.8c-0.1,0.4,0.1,0.5,0.5,0.4c0,0,0.1,0,0.1-0.1
		c0,0,0.1-0.1,0.1-0.1c0.1,0,0.3-0.1,0.4-0.1c-0.1,0.2-0.2,0.3-0.3,0.3l0,0.1c0.2-0.1,0.3-0.2,0.5-0.2c0.2,0,0.3-0.1,0.5-0.2
		c0.9-0.6,1.8-1.2,2.7-1.9c0.9-0.6,1.7-1.4,2.4-2.2l3.1-3.4c0.1-0.2,0.2-0.3,0.4-0.3c-0.2,0.4-0.4,0.8-0.7,1.1
		c-0.3,0.3-0.5,0.7-0.8,1l0.2,0.1c0.3-0.4,0.7-0.9,1-1.3c0.4-0.4,0.7-0.8,1.1-1.3l0.1,0.1c0,0.1-0.1,0.1,0,0.2c0,0,0,0.1,0,0.2
		c-0.1,0.1-0.2,0.2-0.2,0.4c-0.1,0.1-0.1,0.3-0.2,0.4c-0.7,1-1.3,1.9-2.1,2.8c-0.7,0.9-1.5,1.8-2.3,2.7c-0.5,0.5-0.9,1-1.3,1.5
		c-0.4,0.5-0.9,1-1.4,1.4c-0.3,0.3-0.7,0.6-1.1,0.8c-0.4,0.2-0.8,0.4-1.3,0.5c-0.5,0.2-1,0.1-1.3-0.4c-0.3-0.4-0.6-0.8-1-1.3
		s-0.6-0.9-0.9-1.3c-0.1-0.2-0.2-0.5-0.3-0.8c-0.1-0.3-0.1-0.6-0.1-0.9c-0.1-1.1,0-2.1,0.1-3.2c0.2-1.1,0.4-2.1,0.6-3.1
		c0.4-1.7,0.9-3.3,1.4-4.9c0.5-1.6,1.2-3.2,1.8-4.9c0.5-1.2,1-2.3,1.5-3.4c0.5-1.1,1-2.3,1.6-3.4c0.2-0.4,0.4-0.8,0.6-1.2
		c0.2-0.4,0.4-0.8,0.6-1.2c0.1-0.1,0.1-0.2,0.2-0.4c-0.2,0-0.5,0-0.6,0s-0.3,0-0.5,0c-1.2,0.1-2.5,0.3-3.7,0.4
		c-1.2,0.1-2.4,0.3-3.6,0.5c-1.1,0.2-2.1,0.4-3.1,0.6c-1,0.2-2.1,0.4-3.1,0.6l-0.9,0.1c-0.3-0.1-0.3-0.2-0.3-0.4c0-0.1,0-0.3,0-0.5
		c0-0.2,0-0.3,0.1-0.5c0.1-0.2,0.2-0.3,0.3-0.4c0.2-0.1,0.5-0.3,0.7-0.4c0.3-0.1,0.5-0.3,0.8-0.4c1.3-0.5,2.6-0.8,3.9-1
		c1.3-0.2,2.6-0.4,3.9-0.7c0.4-0.1,0.8-0.1,1.2-0.2c0.4,0,0.8-0.1,1.3-0.1c0.8,0,1.5-0.1,2.2-0.1c0.7,0,1.5-0.1,2.2-0.1l0.3-0.1
		l0-0.2c-1.1,0.1-2.1,0.2-3.1,0.2c-1,0.1-2,0.1-3,0.2c-1,0.1-2.1,0.3-3.1,0.5c-1,0.2-2,0.3-3.1,0.5c0.2,0,0.4-0.1,0.5-0.1
		c0.1,0,0.3-0.1,0.4-0.1c0.9-0.2,1.7-0.3,2.5-0.4c0.8-0.1,1.6-0.3,2.5-0.4c0.7-0.1,1.4-0.2,2.1-0.2s1.4-0.1,2.1-0.2c0.3,0,0.7,0,1,0
		c0.3,0,0.6,0,1,0c0.2,0,0.5-0.2,0.6-0.5c0.2-0.3,0.4-0.6,0.6-0.9c0.2-0.3,0.4-0.6,0.6-0.9c0.2-0.4,0.5-0.8,0.7-1.1
		c0.3-0.4,0.5-0.7,0.7-1.1c0.5-0.8,1.1-1.6,1.7-2.4c0.6-0.8,1.2-1.5,1.9-2.2c0.1-0.1,0.1-0.1,0.2-0.1c0,0,0.1,0,0.2-0.1
		c0.4-0.3,0.7-0.4,0.8-0.4c0.2,0,0.4,0.2,0.8,0.5c0.7,0.6,1.4,1.4,2,2.3c0.1,0.2,0.2,0.3,0.2,0.3c0,0-0.1,0.1-0.3,0.2
		c-0.3,0.1-0.5,0.3-0.7,0.5c-0.6,0.6-1.2,1.3-1.7,2.1c-0.5,0.7-1,1.5-1.5,2.2c-0.2,0.2-0.3,0.4-0.4,0.6c-0.1,0.2-0.3,0.4-0.4,0.7
		c-0.2,0.3-0.1,0.4,0.1,0.4c0.3,0.1,0.5,0.1,0.7,0.1c0.2,0,0.5,0,0.7,0.1c0.1,0,0.1,0.1,0.2,0C312.2,32.9,312.3,32.9,312.4,33
		L312.4,33z M291.1,34.3c0.2-0.1,0.5-0.2,0.8-0.2l0,0.1C291.8,34.2,291.5,34.3,291.1,34.3L291.1,34.3z M295.9,55.8
		c-0.1,0.2-0.2,0.5-0.3,0.9c-0.1,0.5-0.2,0.9-0.3,1.4c-0.1,0.5-0.1,1-0.2,1.4s0,0.7,0,0.9C295.4,58.8,295.6,57.3,295.9,55.8z
		 M296.5,53.5c0.9-3.2,2-6.3,3.3-9.2c1.3-3,2.7-5.9,4.1-8.9c-0.2,0.1-0.6,0.6-1,1.4c-0.4,0.8-0.9,1.9-1.5,3.1
		c-0.5,1.2-1.1,2.6-1.7,4c-0.6,1.4-1.1,2.8-1.6,4.1c-0.5,1.3-0.9,2.5-1.2,3.5C296.6,52.5,296.4,53.2,296.5,53.5z M312,23.4l-0.2,0
		c-0.2,0.1-0.5,0.4-0.8,0.7c-1.1,1.2-2.2,2.5-3.1,4.1c-0.2,0.3-0.5,0.7-0.7,1c-0.3,0.3-0.5,0.7-0.6,1.1l-0.1,0.2
		c-0.2,0.3-0.4,0.5-0.5,0.8c-0.2,0.2-0.3,0.5-0.5,0.7c0,0.1-0.1,0.1,0,0.2l0,0.2c0.1,0,0.2-0.1,0.3-0.1c0.1-0.3,0.3-0.5,0.4-0.7
		c0.1-0.2,0.3-0.4,0.4-0.7c0.3-0.4,0.5-0.9,0.8-1.3c0.2-0.4,0.5-0.9,0.8-1.3c0.6-0.8,1.2-1.7,1.9-2.5
		C310.5,24.9,311.2,24.1,312,23.4z"/>
	<path class="st1" d="M310.8,61l-0.1,0.2l0.3-0.1c0.3-0.3,0.6-0.6,0.9-0.8c0.3-0.2,0.6-0.5,0.9-0.8c0.5-0.5,0.9-1,1.3-1.5
		c0.4-0.5,0.8-1.1,1.2-1.6c0.1-0.1,0.2-0.3,0.4-0.4c0.1-0.2,0.2-0.3,0.4-0.5l0.3,0l0,0.2c0,0.1-0.1,0.2-0.1,0.3c0,0.1,0,0.2-0.1,0.3
		c0,0,0.1,0,0.1,0.1c0.1-0.3,0.2-0.5,0.2-0.7c0.1,0,0.1,0.1,0.1,0.1c0,0,0.1,0,0.1,0.1l0.1,0.4c0,0.5-0.1,0.9-0.3,1.3
		c-0.2,0.4-0.4,0.8-0.6,1.2c-0.7,1.4-1.6,2.6-2.6,3.7c-0.2,0.2-0.3,0.3-0.5,0.4c-0.1,0.1-0.3,0.2-0.5,0.4c-0.5,0.3-1,0.3-1.5,0
		l-1.3-0.9c-0.1-0.1-0.2-0.2-0.4-0.3c-0.2-0.1-0.3-0.2-0.4-0.3c-0.5-0.3-0.8-0.6-1-1c-0.2-0.4-0.3-0.9-0.4-1.4c0-0.7,0-1.4,0-2.1
		c0-0.7,0.1-1.4,0.3-2.1c0.1-0.4,0.2-0.8,0.3-1.1c0.1-0.3,0.2-0.7,0.4-1.1c0.2-0.7,0.4-1.3,0.7-2c0.2-0.6,0.5-1.3,0.7-2
		c0.6-1.7,1.3-3.2,2.2-4.7c0.2-0.3,0.4-0.7,0.7-1c0.3-0.3,0.5-0.7,0.7-1c0.2-0.4,0.4-0.4,0.8-0.2c0.4,0.2,0.8,0.5,1.1,0.7
		c0.4,0.2,0.7,0.4,1.1,0.6c0.2,0.1,0.2,0.3,0,0.7c-0.2,0.5-0.5,1-0.7,1.5c-0.2,0.5-0.4,1-0.7,1.5c-0.4,0.9-0.7,1.8-1.1,2.6
		c-0.3,0.8-0.7,1.7-1,2.6c-0.5,1.2-0.9,2.4-1.2,3.6c-0.3,1.2-0.6,2.4-0.9,3.6c-0.1,0.2-0.1,0.4-0.1,0.6c0,0.2,0,0.5-0.1,0.7
		c0,0,0,0.1,0.1,0.1C310.7,60.8,310.7,60.9,310.8,61z M307.6,59C307.6,59,307.7,59,307.6,59c0.1,0,0.1-0.1,0.1-0.2
		c0-0.5,0-1.1,0-1.6c0-0.5,0.1-1,0.2-1.6c0.1-0.5,0.2-1,0.4-1.5c0.2-0.5,0.3-1,0.5-1.5l2.3-5.9c0.5-1.4,1.3-2.7,2.2-4
		c0-0.1,0.1-0.2,0.1-0.4l-0.1-0.1c-0.1,0.1-0.1,0.2-0.2,0.3c-0.1,0.1-0.1,0.1-0.2,0.3c-0.5,0.8-1,1.6-1.4,2.4
		c-0.4,0.8-0.8,1.7-1.2,2.5c-0.2,0.6-0.5,1.2-0.6,1.8c-0.2,0.6-0.4,1.2-0.6,1.8c-0.2,0.5-0.3,1-0.5,1.5c-0.2,0.5-0.3,1.1-0.5,1.6
		c-0.2,0.9-0.4,1.8-0.4,2.9c-0.1,0.3-0.1,0.5,0,0.8C307.6,58.5,307.6,58.8,307.6,59z M315.2,38.1c0-0.1,0-0.2,0-0.2c0,0,0-0.1,0-0.2
		c0.2-0.4,0.4-0.9,0.6-1.3c0.2-0.4,0.4-0.9,0.7-1.3c0.3-0.6,0.8-1.3,1.3-2c0.4-0.6,0.9-0.7,1.4-0.5l2,1.2c0.3,0.1,0.4,0.4,0.2,0.7
		c-0.3,0.6-0.7,1.2-1,1.8c-0.3,0.6-0.6,1.2-1,1.8c-0.4,0.8-0.9,1.5-1.4,2.1c-0.2,0.2-0.4,0.3-0.7,0.3c-0.3,0-0.6-0.1-0.8-0.3
		c-0.1-0.1-0.2-0.2-0.4-0.3c-0.1-0.1-0.3-0.2-0.4-0.3c-0.3-0.1-0.4-0.3-0.5-0.5c0-0.2,0-0.4,0-0.7c0.1-0.6,0.3-1.1,0.6-1.5
		c0.2-0.5,0.5-0.9,0.8-1.3c0.2-0.4,0.5-0.8,0.7-1.2c0.3-0.4,0.5-0.8,0.8-1.2c0.1-0.1,0.1-0.2,0.2-0.2c0.1,0,0.1-0.1,0.2-0.1
		c0,0,0-0.1-0.1-0.1c-0.1,0.1-0.2,0.1-0.2,0.2c-0.1,0-0.1,0.1-0.2,0.2c-0.6,0.7-1,1.5-1.5,2.2c-0.4,0.8-0.8,1.6-1.2,2.4
		c0,0.1-0.1,0.1-0.1,0.1c0,0,0,0.1-0.1,0.1c0,0,0,0.1,0,0.1c0,0,0,0.1,0,0.1L315.2,38.1z"/>
	<path class="st1" d="M333.8,45.3c-0.1,0.1-0.2,0.1-0.3,0.1s-0.2,0.1-0.3,0.1l0,0.1c0.1,0,0.2,0,0.3-0.1c0.1,0,0.2-0.1,0.3-0.1
		c0,0,0.1,0,0.1-0.1c0,0,0.1-0.1,0.1-0.1c0.1,0,0.3-0.1,0.4-0.1c0.1,0,0.3,0,0.4,0.2c0.3,0.4,0.2,0.9-0.1,1.3
		c-0.4,0.5-0.9,0.9-1.4,1.2c-0.5,0.3-1.1,0.6-1.7,0.8c-2,0.7-3.9,1.1-5.9,1l-0.1,0c0,0.1,0,0.2,0.1,0.2c0,0,0.1,0.1,0.1,0.1
		c0.3,0.3,0.4,0.7,0.5,1.1c0.1,0.4,0.1,0.8,0.1,1.2c0,1.1-0.1,2.2-0.4,3.1c-0.3,1-0.8,1.9-1.4,2.8c-0.3,0.3-0.5,0.7-0.8,1
		c-0.3,0.3-0.5,0.7-0.8,0.9c-0.3,0.4-0.7,0.7-1.1,0.9c-0.4,0.3-0.9,0.5-1.4,0.6c-0.6,0.1-1.1,0-1.6-0.2c-0.1-0.1-0.2-0.1-0.3-0.2
		c-0.1-0.1-0.2-0.1-0.3-0.2c-0.3-0.3-0.6-0.5-0.9-0.8c-0.3-0.2-0.6-0.4-0.9-0.6c-1.4-0.8-2-2-1.8-3.7c0-0.5,0.1-1.1,0.2-1.6
		c0.1-0.5,0.3-1,0.5-1.5c0.2-0.5,0.5-1,0.8-1.5c0.3-0.5,0.5-1,0.8-1.5c0.4-0.6,0.8-1.2,1.1-1.8c0.4-0.6,0.8-1.2,1.2-1.8
		c0.6-0.8,1.2-1.6,1.9-2.3c0.7-0.8,1.4-1.4,2.2-2.1c0.3-0.3,0.7-0.6,1.1-0.8c0.4-0.2,0.8-0.4,1.2-0.6c1-0.3,1.8-0.2,2.6,0.5
		c0.1,0.1,0.2,0.2,0.3,0.2c0.1,0.1,0.2,0.2,0.3,0.2c0.2,0.2,0.2,0.4,0,0.6c-0.4,0.4-0.8,0.7-1.2,1.1c-0.4,0.3-0.8,0.7-1.2,1
		c-0.3,0.3-0.6,0.6-0.8,0.9c-0.2,0.3-0.5,0.6-0.8,0.9c-0.1,0.1-0.2,0.3-0.4,0.4c-0.1,0.2-0.2,0.3-0.3,0.4c-0.1,0.1-0.1,0.1-0.1,0.2
		c0,0,0,0.1,0,0.2c0.1,0.1,0.2,0.1,0.3,0.2c0.9,0,1.8-0.1,2.7-0.2c0.9-0.1,1.8-0.3,2.6-0.6c0.6-0.2,1.3-0.4,1.9-0.6
		c0.6-0.2,1.3-0.4,1.9-0.6L333.8,45.3L333.8,45.3z M321.3,44.5C321.3,44.5,321.3,44.5,321.3,44.5c-0.2,0-0.3,0-0.3,0.1
		c-0.4,0.5-0.7,0.9-1.1,1.3c-0.3,0.4-0.7,0.8-1,1.3c-0.6,0.8-1.2,1.6-1.7,2.5c-0.5,0.9-1,1.8-1.4,2.7c-0.2,0.4-0.3,0.8-0.4,1.2
		c-0.1,0.4-0.3,0.8-0.4,1.2c0,0.1,0,0.2,0,0.3s0,0.2,0,0.3c0.1-0.2,0.2-0.3,0.2-0.4c0.1-0.4,0.2-0.8,0.3-1.2
		c0.1-0.4,0.2-0.7,0.4-1.1c0.3-0.6,0.6-1.2,0.9-1.7c0.3-0.6,0.6-1.1,1-1.7c0.4-0.7,0.8-1.4,1.2-2c0.4-0.7,0.9-1.3,1.5-1.9
		c0.2-0.2,0.3-0.3,0.4-0.5C321.1,44.9,321.2,44.7,321.3,44.5z M323.7,49.5c0-0.1-0.1-0.2-0.1-0.2c-0.1,0-0.3-0.1-0.6-0.2
		c-0.2,0-0.4,0.1-0.5,0.2c-0.6,0.9-1.2,1.8-1.8,2.7c-0.6,0.9-1.1,1.8-1.5,2.9c-0.5,1-0.7,2.2-0.8,3.6c-0.1,0.4,0,0.5,0.3,0.2
		c0.3-0.3,0.7-0.5,1-0.7c0.3-0.2,0.6-0.4,0.9-0.7c0.3-0.3,0.6-0.6,0.9-1c0.3-0.4,0.5-0.8,0.7-1.2c0.3-0.5,0.5-1,0.7-1.4
		c0.2-0.5,0.4-1,0.5-1.5c0.1-0.4,0.2-0.8,0.2-1.3C323.7,50.5,323.7,50,323.7,49.5z M323.7,51.9c-0.6,2.4-1.8,4.4-3.5,6.2
		c0.3,0,0.6-0.4,1.1-0.9c0.4-0.6,0.9-1.2,1.2-1.9c0.4-0.7,0.7-1.3,1-2C323.7,52.6,323.8,52.1,323.7,51.9z M326.7,47.4L326.7,47.4
		l1.9-0.3l0-0.1L326.7,47.4z M332.1,46.1c0,0,0-0.1-0.1-0.1c-0.5,0.2-1,0.4-1.6,0.5c-0.5,0.2-1,0.3-1.6,0.5l0,0.1
		c0.5-0.2,1-0.4,1.6-0.5C331,46.4,331.6,46.3,332.1,46.1z"/>
	<path class="st1" d="M343.5,44.8c-0.2,0.2-0.3,0.4-0.5,0.6c-0.4,0.6-0.9,1.2-1.4,1.8c-0.5,0.6-0.9,1.2-1.4,1.8
		c-0.4,0.5-0.7,0.9-1.1,1.4c-0.4,0.5-0.7,0.9-1,1.4c-0.4,0.7-0.8,1.4-1.2,2.1c-0.4,0.7-0.8,1.4-1.2,2.1c-0.2,0.4-0.5,0.8-0.7,1.2
		c-0.2,0.4-0.6,0.7-1,1c-0.4,0.2-0.7,0.2-0.9,0c-0.4-0.3-0.9-0.6-1.3-1c-0.4-0.3-0.9-0.7-1.3-1c-0.2-0.2-0.4-0.4-0.4-0.7
		c0-0.4,0-0.9,0-1.3c0-0.4,0-0.9,0-1.3c0.1-1.1,0.3-2.1,0.7-3.1c0.4-1,0.8-2,1.3-3c0.6-1.3,1.2-2.6,2-3.9c0.3-0.6,0.6-1.2,1-1.8
		c0.4-0.6,0.7-1.2,1-1.8c0.1-0.2,0.2-0.4,0.4-0.6c0.2-0.2,0.3-0.4,0.5-0.5c0.3-0.3,0.7-0.3,1-0.1c0.7,0.4,1.4,0.8,2,1.2
		c0.3,0.2,0.4,0.5,0.2,0.9c-0.3,0.4-0.5,0.9-0.8,1.4c-0.3,0.5-0.5,0.9-0.8,1.4c-0.5,0.9-0.9,1.8-1.4,2.8c-0.4,1-0.9,1.9-1.4,2.8
		c-0.3,0.6-0.5,1.3-0.8,1.9c-0.3,0.6-0.5,1.3-0.8,1.9c-0.1,0.2-0.1,0.4-0.1,0.6c0,0.2-0.1,0.5-0.1,0.7c0.3-0.4,0.5-0.6,0.6-0.7
		l2.8-3.8c1.4-1.9,2.8-3.7,4.2-5.5c0.1-0.2,0.3-0.3,0.4-0.5c0.2-0.2,0.3-0.3,0.4-0.5c0.2-0.4,0.4-0.7,0.5-0.9
		c0.2-0.2,0.3-0.4,0.5-0.6c0.2-0.2,0.3-0.4,0.5-0.6l0.2-0.3l0-0.1c-0.1,0.1-0.3,0.2-0.4,0.4l-0.1-0.1c0.3-0.4,0.6-0.6,0.8-0.7
		c0-0.1,0.1-0.1,0.2-0.1c0.1,0,0.2,0,0.2,0.1c0.4,0.3,0.9,0.6,1.3,0.9c0.4,0.3,0.9,0.6,1.3,0.9c0.8,0.5,1.1,1.3,0.8,2.3
		c-0.3,1.1-0.6,2.1-0.9,3.2c-0.3,1-0.6,2.1-0.9,3.2c-0.1,0.6-0.3,1.1-0.4,1.6c-0.1,0.5-0.2,1.1-0.4,1.6c0,0.1,0,0.2,0,0.3
		c0,0.1,0,0.3,0,0.4c0.2-0.2,0.4-0.3,0.5-0.5c0.1-0.1,0.3-0.3,0.5-0.4c0.3-0.4,0.7-0.9,1-1.2c0.4-0.4,0.7-0.8,1-1.2
		c0.2-0.3,0.4-0.5,0.6-0.8c0.2-0.2,0.4-0.5,0.6-0.8c0.5-0.6,1-1.2,1.4-1.8c0.5-0.6,1-1.2,1.4-1.8l0.5-0.8c0.2-0.1,0.3-0.2,0.3-0.3
		c0.1,0,0.1,0.1,0.2,0c-0.1,0.3-0.2,0.5-0.3,0.7c-0.1,0.2-0.2,0.4-0.2,0.7l0.1,0.1c0.1-0.3,0.3-0.5,0.5-0.7c0.2-0.2,0.3-0.5,0.5-0.8
		c0.2,0.2,0.2,0.4,0,0.7c-0.1,0.3-0.3,0.6-0.4,0.9c-0.1,0.3-0.3,0.6-0.5,1c-0.4,0.7-0.7,1.5-1.1,2.2c-0.4,0.7-0.8,1.4-1.4,2
		c-0.7,0.9-1.4,1.8-2.1,2.7c-0.7,0.9-1.5,1.7-2.5,2.5l-0.4,0.3c-0.2,0.2-0.5,0.3-0.9,0.1c-0.4-0.3-0.9-0.6-1.3-0.9
		c-0.4-0.3-0.8-0.6-1.3-0.9c-0.3-0.2-0.5-0.4-0.5-0.7c-0.1-0.3-0.2-0.6-0.2-1c0-0.1,0.1-0.1,0-0.2c-0.3-0.9-0.3-1.7,0-2.5
		c0.2-0.8,0.4-1.7,0.7-2.5c0.1-0.6,0.3-1.1,0.5-1.7c0.2-0.6,0.4-1.2,0.5-1.7c0-0.1,0.1-0.1,0-0.2c0,0,0-0.1,0-0.2l-0.1-0.1
		C343.8,44.4,343.6,44.6,343.5,44.8z M333.8,44.8C333.8,44.7,333.9,44.7,333.8,44.8c0.1-0.1,0.1-0.1,0.2-0.2
		c0.1-0.3,0.2-0.5,0.3-0.8c0.1-0.2,0.3-0.5,0.4-0.8c0.3-0.7,0.7-1.3,1-2c0.4-0.6,0.7-1.2,1.2-1.8c0.1-0.1,0.1-0.2,0.2-0.3
		c0.1-0.1,0.1-0.2,0.2-0.3l-0.1-0.1c-0.3,0.3-0.6,0.5-0.8,0.7c-0.5,0.8-0.9,1.5-1.3,2.3c-0.4,0.8-0.9,1.6-1.3,2.4
		C333.8,44.2,333.8,44.4,333.8,44.8c-0.1,0-0.2,0-0.2,0.1c0,0-0.1,0.1-0.1,0.1c-0.3,0.6-0.6,1.3-0.9,1.9c-0.3,0.6-0.6,1.3-0.9,1.9
		c-0.6,1.3-1,2.7-1.3,4.2c0,0.2,0,0.4,0,0.5l0.1,0c0,0,0-0.1,0-0.1c0,0,0-0.1,0-0.1c0.1-0.8,0.3-1.6,0.5-2.3
		c0.2-0.7,0.5-1.5,0.8-2.2c0.1-0.2,0.1-0.3,0.2-0.5c0.1-0.2,0.2-0.4,0.2-0.6c0.2-0.3,0.4-0.6,0.6-1c0.2-0.3,0.4-0.7,0.5-1
		c0.1-0.1,0.1-0.2,0.2-0.4C333.7,45.1,333.7,44.9,333.8,44.8z M344.6,44C344.5,44,344.5,43.9,344.6,44c-0.1,0-0.2,0.2-0.3,0.3
		c-0.1,0.4-0.2,0.8-0.3,1.2c-0.1,0.4-0.2,0.7-0.3,1.1c-0.2,0.9-0.5,1.7-0.7,2.6c-0.3,0.9-0.4,1.8-0.5,2.7c-0.1,0.6,0,1,0.2,1.3
		c0-0.2,0-0.5,0-0.7c0-0.2,0-0.4,0-0.6c0.1-0.5,0.1-0.9,0.2-1.4c0.1-0.5,0.2-0.9,0.3-1.4c0.2-0.8,0.5-1.6,0.7-2.4
		c0.2-0.8,0.5-1.6,0.7-2.4C344.6,44.2,344.6,44.1,344.6,44z"/>
</g>
</svg>
