<?xml version="1.0" encoding="utf-8"?>
<!-- Generator: Adobe Illustrator 23.0.2, SVG Export Plug-In . SVG Version: 6.00 Build 0)  -->
<svg version="1.1" id="レイヤー_1" xmlns="http://www.w3.org/2000/svg" xmlns:xlink="http://www.w3.org/1999/xlink" x="0px"
	 y="0px" viewBox="0 0 118.1 96.2" style="enable-background:new 0 0 118.1 96.2;" xml:space="preserve">
<style type="text/css">
	.st0{enable-background:new    ;}
	.st1{fill:#FFFFFF;}
</style>
<g class="st0">
	<path class="st1" d="M18.1,65.7c0-0.1,0.2-0.1,0.3-0.1c0.3-0.2,0.6-0.3,1-0.4c0.3-0.1,0.7-0.2,1-0.3c0.3-0.1,0.6-0.2,0.9-0.2
		c0.3-0.1,0.6-0.1,0.9-0.2c0.2,0,0.4-0.1,0.6-0.1c0.2,0,0.4-0.1,0.6-0.2c0,0,0.1-0.1,0.2-0.3l0-0.1c-0.2,0-0.5,0.1-0.7,0.2
		c-0.2,0.1-0.4,0.1-0.7,0.2c-0.2,0.1-0.5,0.2-0.7,0.2c-0.3,0-0.5,0.1-0.7,0.2L19,65.2c-0.5,0.2-0.9,0.3-1.3,0.4
		c-0.4,0.1-0.8,0.2-1.2,0.4c-0.3,0.1-0.6,0.2-1,0.4c-0.3,0.1-0.7,0.3-1,0.4c0,0.1-0.1,0.1-0.3,0.1c-0.3,0.2-0.5,0.1-0.6-0.3
		c-0.1-0.4-0.1-0.7-0.2-1.1c-0.1-0.3-0.1-0.7-0.1-1c0-0.3,0.1-0.6,0.4-0.8c0.4-0.2,0.7-0.4,1.1-0.6c0.4-0.2,0.7-0.4,1.1-0.5
		c1.2-0.5,2.3-0.9,3.4-1.3c0.8-0.2,1.7-0.5,2.5-0.7c0.8-0.2,1.6-0.5,2.5-0.7c0.3-0.1,0.5-0.2,0.7-0.3c0.2-0.1,0.3-0.4,0.4-0.7
		c0.4-1.2,0.8-2.5,1.2-3.7c0.4-1.2,0.8-2.5,1.2-3.8c0.6-2,1.2-4.1,1.9-6.1c0.7-2,1.4-4,2-6c0.4-1,0.7-2.1,1.1-3.1
		c0.4-1,0.7-2,1.1-3.1c0.5-1.3,0.9-2.5,1.3-3.7c0.4-1.2,0.9-2.5,1.3-3.7c0.2-0.4,0.3-0.8,0.5-1.2c0.2-0.4,0.3-0.8,0.5-1.2
		c0-0.1,0.1-0.1,0-0.2c0-0.1,0-0.1,0-0.2c-0.2-0.1-0.4-0.1-0.5-0.1L34,23.4c-0.6,0.2-1.2,0.3-1.8,0.4c-0.6,0.1-1.1,0.3-1.7,0.5
		c-0.2,0-0.5,0.1-0.7,0.1c-0.3,0-0.5,0.1-0.7,0.2c-0.6,0.1-1.1,0.3-1.6,0.4c-0.5,0.1-1.1,0.3-1.6,0.4c-0.6,0.2-1.3,0.4-1.9,0.5
		c-0.6,0.1-1.2,0.3-1.9,0.5l-4.4,1.2c-0.3,0.1-0.6,0.1-0.9,0.2S16.1,28,15.8,28c0.6-0.2,1.1-0.4,1.7-0.5s1.2-0.3,1.7-0.5
		c0.6-0.1,1.1-0.3,1.6-0.4c0.5-0.1,1.1-0.3,1.6-0.4c0.2-0.1,0.4-0.1,0.6-0.1c0.2,0,0.4,0,0.6-0.1c0.3-0.1,0.5-0.2,0.8-0.3
		c0.3-0.1,0.5-0.2,0.8-0.3l0.1,0c0.2,0.1,0.4,0.1,0.5,0c0.1,0,0.2-0.1,0.4-0.2c0,0,0.1,0,0.1,0c0,0,0,0,0.1,0c0.2,0,0.5-0.1,0.7-0.2
		c0.3-0.1,0.5-0.1,0.7-0.2c0.4-0.1,0.7-0.2,1-0.3c0.3-0.1,0.6-0.1,1-0.2c0.3-0.1,0.6-0.2,0.9-0.2c0.3,0,0.6-0.1,0.9-0.2
		c0.4-0.1,0.8-0.2,1.2-0.3c0.4-0.1,0.8-0.2,1.2-0.2c0.4-0.1,0.7-0.2,1.1-0.3c0.3-0.1,0.7-0.1,1.1-0.3c0.2,0,0.4-0.1,0.6-0.1
		c0.2-0.1,0.4-0.1,0.6-0.1l0.3-0.2l0-0.1c-0.4,0.1-0.8,0.2-1,0.2c-0.5,0.1-1.1,0.2-1.6,0.3c-0.6,0.1-1.1,0.3-1.7,0.4
		c-0.3,0.1-0.6,0.2-0.8,0.3c-0.3,0.1-0.6,0.1-0.8,0.2L29,24.1c-0.5,0.1-1,0.3-1.5,0.4c-0.5,0.1-1,0.3-1.5,0.4
		c-0.4,0.1-0.7,0.1-1,0.2c-0.3,0.1-0.6,0.2-0.9,0.3c-0.4,0.1-0.8,0.2-1.3,0.4c-0.4,0.1-0.8,0.2-1.2,0.4c-0.6,0.2-1.3,0.4-1.8,0.5
		c-0.6,0.2-1.2,0.3-1.8,0.5l-2.7,0.7c-0.2,0-0.5,0.1-0.7,0.1c-0.2,0-0.5,0-0.7-0.1c-0.1-0.1-0.2-0.2-0.3-0.3
		c-0.1-0.1-0.2-0.2-0.3-0.3c-0.2-0.4-0.3-0.7-0.3-1.1c0-0.4,0.2-0.7,0.6-0.9c0.4-0.2,0.7-0.3,1-0.5c0.3-0.2,0.7-0.3,1-0.5
		c1.1-0.4,2.2-0.8,3.3-1.1c1.1-0.4,2.2-0.8,3.3-1.1c1-0.3,2-0.6,3-0.9c1-0.3,2-0.6,3-0.9c0.7-0.2,1.4-0.4,2.1-0.6
		c0.7-0.2,1.5-0.4,2.2-0.6c0.8-0.2,1.7-0.5,2.5-0.7c0.8-0.2,1.7-0.5,2.5-0.7c0.4-0.1,0.8-0.2,1.2-0.3c0.4-0.1,0.8-0.2,1.2-0.3
		c0.7-0.2,1.3-0.3,1.9-0.5c0.6-0.2,1.3-0.3,1.9-0.5c0.5-0.1,1-0.3,1.5-0.3c0.5-0.1,1-0.2,1.5-0.3c0.9-0.2,1.9-0.4,2.8-0.6
		c0.9-0.2,1.9-0.4,2.8-0.6l0.4-0.1c1.1-0.2,2.3-0.5,3.4-0.7c1.1-0.2,2.2-0.4,3.3-0.7c0.3-0.1,0.6-0.1,1-0.2c0.3-0.1,0.6-0.1,0.9-0.2
		c2.1-0.4,4.3-0.8,6.4-1.2c2.1-0.4,4.2-0.8,6.4-1.2c0.9-0.2,1.9-0.3,2.8-0.5c0.9-0.1,1.9-0.3,2.8-0.4c0.7-0.1,1.3-0.2,2-0.3
		c0.7-0.1,1.4-0.2,2-0.3c1-0.1,1.9-0.3,2.9-0.4c0.9-0.1,1.9-0.3,2.9-0.3c0.9-0.1,1.7-0.2,2.6-0.3c0.9-0.1,1.7-0.2,2.5-0.2
		s1.6-0.1,2.5,0c0.8,0,1.7,0,2.5,0c0.2,0,0.4,0.1,0.6,0.2c0.4,0.1,0.5,0.3,0.5,0.7c-0.1,0.3-0.1,0.5-0.1,0.6c0,0.2,0,0.4,0,0.6
		c0,0.4,0,0.8-0.1,1.1c0,0.4,0,0.7-0.1,1.1c0,0.4,0,0.9-0.1,1.4c0,0,0,0.1-0.1,0.2c-0.1,0.1-0.1,0.1-0.2,0.2
		c-0.2,0.1-0.4,0.2-0.6,0.3c-0.2,0.1-0.4,0.2-0.6,0.3c-0.7,0.1-1.3,0.2-1.9,0.3c-0.6,0.1-1.2,0.1-1.9,0.1c0,0-0.1,0-0.1,0
		c-0.1,0-0.1,0-0.1,0l0-0.1c0.2,0,0.5,0,0.7,0c0.2,0,0.4,0,0.7,0c0.4-0.1,0.7-0.1,1.1-0.2c0.3-0.1,0.7-0.1,1.1-0.2
		c0.3,0,0.6,0,0.9-0.2c0.2-0.2,0.5-0.3,0.8-0.4c0,0,0-0.1,0.2-0.2c-0.2,0-0.3,0-0.4,0c-0.5,0.2-1,0.3-1.5,0.5
		c-0.5,0.1-1,0.2-1.5,0.3c-0.5,0.1-1,0.1-1.4,0.1s-1,0-1.4,0.1c-0.4,0-0.8,0-1.2,0c-0.4,0-0.8,0.1-1.2,0c-0.1,0-0.2,0-0.3,0
		c-0.1,0-0.2-0.1-0.3-0.1c0.1-0.2,0.1-0.4,0.2-0.5l-0.2-0.2c0.1-0.1,0.1-0.2,0.2-0.3c0.1-0.1,0.2-0.1,0.3-0.3c-0.2,0-0.4,0-0.5,0
		s-0.3,0-0.4,0c-0.7,0.1-1.4,0.1-2.1,0.2c-0.7,0.1-1.4,0.2-2.1,0.2c-1,0.1-2.1,0.3-3.1,0.4c-1,0.1-2.1,0.3-3.2,0.5
		c-2.5,0.4-5,0.8-7.5,1.2c-2.5,0.4-4.9,0.8-7.5,1.3c-1.1,0.2-2.3,0.4-3.4,0.6c-1.1,0.2-2.2,0.4-3.3,0.6c-0.9,0.2-1.8,0.4-2.6,0.5
		c-0.9,0.2-1.8,0.3-2.6,0.5c-1.1,0.2-2.2,0.5-3.3,0.7c-1.1,0.2-2.2,0.5-3.3,0.7c-0.6,0.2-1.2,0.3-1.8,0.4c-0.6,0.1-1.2,0.3-1.7,0.4
		c-0.1,0-0.3,0.1-0.3,0.1c0.1,0,0.1,0.1,0.1,0.1c0.3,0.1,0.4,0.3,0.4,0.4s0,0.3-0.1,0.5L42.1,25c-0.4,1-0.8,2.1-1.2,3.1
		c-0.4,1.1-0.8,2.1-1.2,3.2c-0.6,1.5-1.1,3-1.6,4.6c-0.5,1.5-1,3-1.5,4.5c-0.5,1.4-1,2.7-1.4,4.1c-0.5,1.4-0.9,2.7-1.4,4.1
		c-0.4,1.3-0.9,2.7-1.4,4c-0.5,1.4-0.9,2.7-1.4,4C31.1,56.9,31,57,31,57.2c0,0.2-0.1,0.4-0.2,0.6c-0.1,0.3,0.1,0.4,0.3,0.3
		c1.5-0.4,3-0.8,4.6-1c1.6-0.3,3.1-0.5,4.6-0.8c1.1-0.1,2.2-0.3,3.3-0.4c1.1-0.1,2.2-0.2,3.3-0.3c0.5,0,1-0.1,1.4-0.1
		c0.5,0,0.9,0,1.4,0c0.4,0,0.8,0.1,1.2,0.2c0.4,0.1,0.7,0.3,1,0.5c0.4,0.2,0.6,0.5,0.6,0.9c0,0.4,0,0.8,0.1,1.2c0,0.4,0,0.8,0,1.3
		c0,0.2-0.1,0.3-0.4,0.4c-0.2,0-0.5,0-0.8,0c-0.3,0-0.6,0-0.8,0c-1,0-2,0-3,0c-1,0-2,0.1-2.9,0.1c-0.3,0-0.6,0-0.8,0.1
		c-0.3,0-0.5,0.1-0.7,0.1c-1.3,0.2-2.5,0.4-3.8,0.6c-1.3,0.2-2.5,0.4-3.8,0.6c-0.9,0.2-1.9,0.4-2.9,0.6c-1,0.2-1.9,0.5-2.8,0.7
		c-0.3,0-0.5,0.2-0.5,0.5c-0.3,1-0.6,2-0.9,3c-0.3,1-0.6,2-0.9,3c-0.3,1.1-0.7,2.3-1,3.4c-0.3,1.1-0.7,2.3-1,3.5
		c-0.2,0.9-0.5,1.8-0.8,2.8c-0.3,0.9-0.5,1.8-0.8,2.8c-0.3,1.3-0.6,2.7-0.9,4c-0.3,1.3-0.6,2.7-0.9,4c-0.1,0.6-0.3,1.1-0.5,1.7
		c-0.2,0.6-0.4,1.2-0.6,1.7c-0.1,0.2-0.2,0.4-0.5,0.7c0.3-0.7,0.6-1.4,0.8-2.1c0.2-0.7,0.4-1.4,0.5-2.1c0.1-0.7,0.3-1.3,0.4-2
		c0.1-0.7,0.3-1.3,0.4-2c0.1-0.6,0.3-1.2,0.4-1.8c0.1-0.6,0.3-1.2,0.4-1.8c0.2-0.7,0.4-1.4,0.6-2.1s0.4-1.3,0.6-2
		c0.1-0.5,0.2-1,0.4-1.5c0.1-0.5,0.3-1,0.4-1.5c0.1-0.4,0.2-0.8,0.3-1.3c0.1-0.4,0.2-0.9,0.4-1.3c0.2-0.7,0.4-1.4,0.6-2
		c0.2-0.7,0.4-1.3,0.7-2.1c0.2-0.7,0.4-1.4,0.6-2c0.2-0.6,0.4-1.3,0.6-2c0.1-0.2,0.1-0.4,0.2-0.5c0-0.2,0.1-0.3,0.2-0.5
		c0-0.1,0-0.2,0-0.2c0,0,0-0.1,0-0.2l-0.2,0c-0.1,0.2-0.2,0.4-0.3,0.6c-0.1,0.6-0.3,1.1-0.5,1.7c-0.2,0.6-0.3,1.1-0.5,1.7
		c-0.3,1.2-0.7,2.3-1,3.5c-0.4,1.2-0.7,2.3-1,3.5c-0.4,1.3-0.7,2.6-1.1,3.9c-0.4,1.3-0.7,2.6-1,3.9c-0.2,0.8-0.4,1.5-0.6,2.3
		c-0.2,0.8-0.4,1.5-0.5,2.3c-0.1,0.6-0.3,1.2-0.4,1.9c-0.1,0.6-0.3,1.3-0.4,1.9c-0.3,1.1-0.6,2.3-1,3.4c-0.1,0.3-0.4,0.5-0.7,0.7
		c-0.3,0.1-0.7,0-1-0.4c-0.5-0.5-0.7-1-0.8-1.5c-0.1-0.7-0.1-1.5,0-2.2c0.2-1.2,0.4-2.3,0.6-3.5c0.2-1.2,0.4-2.4,0.6-3.5
		c0.1-0.8,0.3-1.5,0.4-2.2c0.2-0.7,0.3-1.5,0.4-2.2c0.3-1.7,0.6-3.3,1-4.9c0.4-1.6,0.8-3.3,1.3-4.9c0.3-1.4,0.7-2.7,1.1-4.1
		c0-0.3-0.1-0.4-0.4-0.4c-0.8,0.2-1.6,0.4-2.3,0.6c-0.8,0.2-1.6,0.4-2.3,0.6c-0.1,0.1-0.2,0.1-0.2,0.1
		C18.3,65.8,18.2,65.8,18.1,65.7L18.1,65.7z M17.9,66c-0.7,0.1-1.4,0.3-2,0.6c-0.6,0.3-1.3,0.5-2,0.6l0-0.1c0,0,0.1,0,0.1,0
		c0,0,0,0,0.1,0c0.5,0,1-0.1,1.4-0.4c0.4-0.2,0.8-0.4,1.4-0.6c0.2,0,0.4-0.1,0.5-0.1c0.2-0.1,0.4-0.1,0.6-0.1L17.9,66z M15.5,28.1
		c-0.2,0-0.4,0.1-0.5,0.1c-0.2,0-0.3,0-0.5,0.1l0-0.1c0.2,0,0.4,0,0.5,0C15.1,28,15.3,28,15.5,28.1L15.5,28.1z M51.7,59.7l0-0.1
		c-0.1,0-0.2,0-0.4,0c-0.4,0-0.8,0-1.1-0.1c-0.4,0-0.7,0-1.1,0c-0.7,0-1.4,0-2.1,0.1c-0.7,0-1.4,0-2.1,0c-0.4,0-0.9,0.1-1.3,0.2
		c-0.4,0.1-0.9,0.2-1.3,0.2c-0.4,0-0.7,0.1-1.1,0.1c-0.3,0.1-0.7,0.1-1.1,0.2c-0.7,0.1-1.4,0.2-2.1,0.3c-0.7,0.1-1.4,0.2-2.2,0.4
		c-0.4,0.1-0.9,0.2-1.3,0.3s-0.9,0.2-1.3,0.3c-0.5,0.1-1,0.3-1.5,0.3c-0.5,0.1-1,0.2-1.5,0.3c-0.1,0-0.3,0.1-0.5,0.2l0,0.1
		c0.1,0,0.2,0,0.3-0.1c0.1,0,0.2-0.1,0.3-0.1c0.4-0.1,0.7-0.1,1-0.2c0.3-0.1,0.6-0.1,1-0.3c0.5-0.1,0.9-0.2,1.4-0.3
		c0.4-0.1,0.9-0.2,1.4-0.3c0.1,0,0.3-0.1,0.4-0.1c0.1,0,0.3-0.1,0.4-0.1l3.3-0.6l0.6-0.1c0.3-0.1,0.6-0.1,0.9-0.1
		c0.3,0,0.6-0.1,0.9-0.1c0.4,0,0.8-0.1,1.2-0.1c0.4-0.1,0.9-0.1,1.3-0.2l2-0.1c0.3,0,0.7,0,1-0.1c0.3-0.1,0.6-0.1,0.9,0
		c0.5,0,1,0,1.4,0c0.4,0,0.9,0,1.4,0c0.1,0,0.2,0,0.4,0C51.4,59.7,51.6,59.7,51.7,59.7z M42.9,21.8c-0.1,0.1-0.4,0.7-0.8,1.8
		c-0.4,1.1-0.9,2.5-1.6,4.2c-0.6,1.7-1.3,3.6-2.1,5.7c-0.7,2.1-1.5,4.3-2.3,6.5c-0.8,2.2-1.5,4.4-2.3,6.5c-0.7,2.1-1.4,4-1.9,5.7
		c-0.6,1.7-1,3.1-1.3,4.1c-0.3,1.1-0.4,1.7-0.4,1.8c0.1-0.1,0.1-0.2,0.2-0.2c0,0,0.1-0.1,0.1-0.2c0.2-0.7,0.4-1.3,0.6-2
		c0.2-0.7,0.4-1.3,0.6-2c0.3-0.7,0.5-1.5,0.7-2.2c0.2-0.8,0.5-1.5,0.7-2.2c0.2-0.6,0.4-1.1,0.6-1.7c0.2-0.6,0.4-1.1,0.6-1.7
		c0.3-0.9,0.6-1.7,0.9-2.6c0.3-0.9,0.6-1.7,0.9-2.6c0.4-1.2,0.8-2.5,1.2-3.7c0.4-1.2,0.9-2.5,1.3-3.7c0.1-0.4,0.2-0.7,0.4-1.1
		c0.1-0.4,0.2-0.7,0.4-1.1l1.4-3.5c0.2-0.5,0.3-0.9,0.5-1.4c0.2-0.5,0.3-0.9,0.5-1.3l0.9-2.4c0-0.1,0-0.2,0-0.2
		C42.9,22,42.9,21.9,42.9,21.8z M89.2,12.5l0-0.1c-0.2,0-0.5,0.1-0.8,0.1c-0.3,0-0.6,0.1-0.8,0.1c-1,0.1-1.9,0.2-2.8,0.4
		c-0.9,0.1-1.9,0.2-2.8,0.4l-0.7,0.1c-0.7,0.1-1.3,0.2-2,0.3c-0.7,0.1-1.3,0.2-2,0.3l-2.5,0.4c-1.2,0.2-2.4,0.4-3.5,0.6
		c-1.2,0.2-2.3,0.4-3.5,0.6c-0.8,0.1-1.6,0.3-2.3,0.4c-0.7,0.2-1.5,0.3-2.3,0.4l-3.3,0.6c-0.7,0.2-1.3,0.3-1.9,0.4
		c-0.6,0.1-1.2,0.3-1.9,0.4c-0.7,0.2-1.3,0.3-1.9,0.4s-1.3,0.2-2,0.3c-1,0.2-2,0.4-3,0.7s-2,0.4-3,0.7c-0.6,0.1-1.1,0.3-1.7,0.4
		c-0.6,0.1-1.2,0.2-1.7,0.4c-0.2,0-0.4,0.1-0.7,0.3l0,0.1c0.1,0,0.2,0,0.2,0c0,0,0.1,0.1,0.2,0c0.5-0.1,0.9-0.2,1.4-0.4
		c0.5-0.1,0.9-0.2,1.4-0.4c0.4-0.1,0.7-0.1,1-0.2c0.3-0.1,0.6-0.2,1-0.3l2-0.4c0.6-0.1,1.1-0.3,1.7-0.4c0.6-0.1,1.1-0.3,1.8-0.4
		l2.1-0.4c0.5-0.1,1-0.2,1.5-0.3c0.5-0.1,1-0.2,1.5-0.3c0.3-0.1,0.6-0.2,1-0.2c0.3-0.1,0.7-0.1,1-0.2c0.1,0,0.2,0,0.3-0.1
		c0.1,0,0.2-0.1,0.4-0.1l2.6-0.5c0.1,0,0.2,0,0.2-0.1c0.1,0,0.1-0.1,0.2-0.1c0.4-0.1,0.9-0.1,1.3-0.2c0.4-0.1,0.9-0.1,1.3-0.2
		c0.5-0.1,1.1-0.2,1.6-0.3c0.6-0.1,1.1-0.2,1.6-0.3c0.3-0.1,0.7-0.1,1-0.2c0.3-0.1,0.7-0.1,1-0.1c0.2,0,0.4-0.1,0.5-0.2
		c0.2-0.1,0.3-0.1,0.5-0.1c0.5,0,1-0.1,1.4-0.2c0.5-0.2,1-0.2,1.5-0.2c0,0,0.1,0,0.1-0.1c0,0,0.1-0.1,0.1-0.1c0.2,0,0.4-0.1,0.5-0.1
		c0.2-0.1,0.3-0.1,0.5-0.1c0.4,0,0.7,0,0.9,0c0.4-0.1,0.7-0.1,1-0.1c0.3,0,0.7-0.1,1-0.1l0.3,0c0.5-0.1,1-0.2,1.6-0.3
		c0.5,0,0.9-0.1,1.4-0.2c0.4-0.1,0.9-0.2,1.4-0.2c0.4,0,0.8,0,1.1-0.1c0.3-0.1,0.7-0.2,1-0.2c0.4,0,0.9-0.1,1.3-0.2s0.8-0.1,1.2-0.1
		L89.2,12.5z M90.2,12.4l0,0.1c0.4,0,0.8,0,1.1,0c0.3,0,0.7-0.1,1.1-0.3l0-0.1c-0.4,0-0.7,0.1-1.1,0.1
		C90.9,12.3,90.5,12.3,90.2,12.4z"/>
	<path class="st1" d="M62.5,59.8c-0.1,0.1-0.2,0.1-0.3,0.2c-0.1,0.1-0.2,0.1-0.3,0.2c0,0,0.1,0,0.1,0.1c0.2-0.1,0.3-0.2,0.5-0.3
		c0.2-0.1,0.3-0.1,0.5-0.3c0.7-0.5,1.4-1,2-1.5c0.7-0.5,1.3-1,2-1.6c0.5-0.4,0.9-0.8,1.3-1.2c0.4-0.4,0.8-0.9,1.2-1.3
		c0.5-0.5,1-1.1,1.4-1.6c0.5-0.5,0.9-1.1,1.4-1.6c0.2-0.1,0.3-0.2,0.4-0.4c0.1,0,0.1,0.1,0.2,0c-0.1,0.2-0.1,0.3-0.2,0.4
		c-0.3,0.4-0.5,0.8-0.8,1.1c-0.3,0.3-0.5,0.7-0.9,1.1c0,0,0.1,0,0.1,0s0,0,0.1,0c0.4-0.5,0.9-1,1.3-1.5c0.4-0.5,0.8-1,1.3-1.6
		l0.1,0.1c0,0.1,0,0.3-0.1,0.4c-0.1,0.2-0.2,0.4-0.3,0.6s-0.3,0.4-0.4,0.5c-0.3,0.5-0.7,1-1.1,1.5c-0.4,0.5-0.7,1-1.1,1.5
		c-0.6,0.7-1.2,1.5-1.8,2.2c-0.6,0.7-1.2,1.5-1.9,2.2c-1.1,1.2-2.4,2.2-3.9,2.9c-0.7,0.4-1.4,0.3-1.9-0.2c-0.3-0.2-0.6-0.5-0.9-0.7
		c-0.3-0.2-0.6-0.4-0.9-0.6c-0.7-0.5-1-1.1-1.1-1.9c-0.3-2.3-0.1-4.6,0.6-7c0.4-1.4,0.8-2.8,1.2-4.2c0.4-1.4,0.9-2.8,1.5-4.1
		c0.5-1.2,1-2.4,1.5-3.6c0.5-1.2,1-2.3,1.5-3.5c0.4-0.9,0.9-1.8,1.3-2.7c0.4-0.9,0.9-1.8,1.5-2.7c0.5-1.1,1.1-2.1,1.7-3.1
		c0.6-1,1.3-2,2-2.9c0.8-1.1,1.7-2,2.6-3c0.5-0.5,1.2-0.6,1.9-0.3c1,0.4,1.8,0.9,2.7,1.5c0.2,0.2,0.2,0.4-0.1,0.5
		c-0.2,0.1-0.3,0.2-0.5,0.3c-0.2,0.1-0.3,0.2-0.4,0.4c-0.8,1-1.6,2.1-2.4,3.1c-0.7,1.1-1.4,2.1-2,3.1c-0.3,0.5-0.6,1-0.9,1.5
		c-0.3,0.5-0.6,1-0.9,1.5c-0.4,0.6-0.8,1.2-1.1,1.9c-0.4,0.7-0.7,1.3-1,1.9c-0.7,1.4-1.3,2.8-2,4.2c-0.6,1.4-1.3,2.8-1.9,4.1
		c-0.3,0.6-0.5,1.2-0.7,1.8c-0.2,0.6-0.4,1.2-0.6,1.7c-0.2,0.6-0.4,1.2-0.6,1.8c-0.2,0.6-0.4,1.2-0.6,1.8c-0.4,1.3-0.7,2.5-1,3.8
		c-0.1,0.6-0.3,1.1-0.3,1.6c-0.1,0.5-0.2,1.1-0.3,1.6c0,0.3,0,0.5,0.1,0.5s0.3,0,0.6-0.1L62.5,59.8L62.5,59.8z M59,53.4
		c-0.2,0.8-0.3,1.5-0.4,2.2c-0.1,0.7-0.1,1.5,0,2.2c0.1-0.7,0.1-1.5,0.2-2.2C58.9,54.9,58.9,54.1,59,53.4z M74.4,21.9l0-0.1
		c-0.4,0.3-0.7,0.6-1,0.9c-0.4,0.4-0.7,0.8-1,1.2c-0.2,0.3-0.4,0.5-0.6,0.8c-0.2,0.3-0.4,0.5-0.6,0.8l-1.5,2.1
		c-0.2,0.2-0.3,0.4-0.4,0.6c-0.1,0.2-0.2,0.4-0.4,0.6c-0.1,0.3-0.3,0.6-0.4,0.8c-0.1,0.3-0.3,0.6-0.5,0.9c-0.2,0.3-0.4,0.6-0.6,0.9
		c-0.1,0.3-0.3,0.7-0.5,0.9c-0.2,0.3-0.4,0.7-0.5,1c-0.2,0.3-0.3,0.7-0.5,1c0,0,0,0.1,0,0.2c-0.2,0.3-0.4,0.7-0.6,1
		c-0.2,0.3-0.4,0.7-0.6,1c-0.2,0.5-0.5,1.1-0.7,1.7c-0.2,0.6-0.5,1.1-0.7,1.6c-0.2,0.5-0.5,1-0.7,1.6c-0.4,1-0.8,2.1-1.2,3.2
		c-0.4,1.1-0.8,2.2-1.1,3.3c-0.1,0.6-0.3,1.1-0.4,1.6c-0.1,0.5-0.3,1-0.4,1.5c0,0.1,0,0.2,0,0.3c0,0.1,0,0.2,0,0.3l0.1,0.1
		c0.1-0.2,0.1-0.3,0.2-0.5c0.3-1,0.6-2,0.9-3c0.3-1,0.6-2,0.9-2.9c0.4-1.1,0.9-2.3,1.3-3.3c0.4-1.1,0.9-2.2,1.4-3.3
		c0.1-0.3,0.3-0.6,0.4-1c0.1-0.3,0.3-0.6,0.5-1c0.2-0.4,0.4-0.8,0.6-1.2c0.2-0.4,0.4-0.8,0.6-1.2c0.2-0.4,0.4-0.7,0.6-1.1
		c0.2-0.4,0.4-0.8,0.6-1.1c0.3-0.4,0.5-0.9,0.8-1.3c0.3-0.5,0.5-0.9,0.8-1.4c0.2-0.4,0.4-0.7,0.6-1.1c0.2-0.4,0.4-0.7,0.6-1.1
		c0.7-0.9,1.3-1.8,1.9-2.7C72.9,23.5,73.6,22.7,74.4,21.9z"/>
	<path class="st1" d="M86.7,44c-0.1,0.1-0.2,0.1-0.3,0.1c-0.1,0-0.2,0.1-0.3,0.1l0,0.1c0.1,0,0.2,0,0.3-0.1c0.1,0,0.2-0.1,0.3-0.1
		c0,0,0.1,0,0.1-0.1c0,0,0.1-0.1,0.1-0.1c0.1,0,0.3-0.1,0.4-0.1c0.1,0,0.3,0,0.4,0.2c0.3,0.4,0.2,0.9-0.1,1.3
		c-0.4,0.5-0.9,0.9-1.4,1.2c-0.5,0.3-1.1,0.6-1.7,0.8c-2,0.7-3.9,1.1-5.9,1l-0.1,0c0,0.1,0,0.2,0.1,0.2c0,0,0.1,0.1,0.1,0.1
		c0.3,0.3,0.4,0.7,0.5,1.1c0.1,0.4,0.1,0.8,0.1,1.2c0,1.1-0.1,2.1-0.4,3.1c-0.3,1-0.8,1.9-1.4,2.8c-0.3,0.3-0.5,0.7-0.8,1
		c-0.3,0.3-0.5,0.7-0.8,0.9c-0.3,0.4-0.7,0.7-1.1,0.9c-0.4,0.3-0.9,0.5-1.4,0.6c-0.6,0.1-1.1,0-1.6-0.2c-0.1-0.1-0.2-0.1-0.3-0.2
		c-0.1-0.1-0.2-0.1-0.3-0.2c-0.3-0.3-0.6-0.5-0.9-0.8c-0.3-0.2-0.6-0.4-0.9-0.6c-1.4-0.8-2-2-1.8-3.7c0-0.5,0.1-1.1,0.2-1.6
		c0.1-0.5,0.3-1,0.5-1.5c0.2-0.5,0.5-1,0.8-1.5c0.3-0.5,0.5-1,0.8-1.5c0.4-0.6,0.8-1.2,1.1-1.8c0.4-0.6,0.8-1.2,1.2-1.8
		c0.6-0.8,1.2-1.6,1.9-2.3c0.7-0.8,1.4-1.4,2.2-2.1c0.3-0.3,0.7-0.6,1.1-0.8c0.4-0.2,0.8-0.4,1.2-0.6c1-0.3,1.8-0.2,2.6,0.5
		c0.1,0.1,0.2,0.2,0.3,0.2c0.1,0.1,0.2,0.2,0.3,0.2c0.2,0.2,0.2,0.3,0,0.6c-0.4,0.4-0.8,0.7-1.2,1.1c-0.4,0.3-0.8,0.7-1.2,1
		c-0.3,0.3-0.6,0.6-0.8,0.9c-0.2,0.3-0.5,0.6-0.8,0.9c-0.1,0.1-0.2,0.3-0.4,0.4c-0.1,0.2-0.2,0.3-0.3,0.4c-0.1,0.1-0.1,0.1-0.1,0.2
		c0,0,0,0.1,0,0.2c0.1,0.1,0.2,0.1,0.3,0.2c0.9,0,1.8-0.1,2.7-0.2c0.9-0.1,1.8-0.3,2.6-0.6c0.6-0.2,1.3-0.4,1.9-0.6
		c0.6-0.2,1.3-0.4,1.9-0.6L86.7,44L86.7,44z M74.2,43.2C74.2,43.1,74.2,43.1,74.2,43.2c-0.2,0-0.3,0-0.3,0.1
		c-0.4,0.5-0.7,0.9-1.1,1.3c-0.3,0.4-0.7,0.8-1,1.3c-0.6,0.8-1.2,1.6-1.7,2.5c-0.5,0.9-1,1.8-1.4,2.7c-0.2,0.4-0.3,0.8-0.4,1.2
		c-0.1,0.4-0.3,0.8-0.4,1.2c0,0.1,0,0.2,0,0.3c0,0.1,0,0.2,0,0.3c0.1-0.2,0.2-0.3,0.2-0.4c0.1-0.4,0.2-0.8,0.3-1.2
		c0.1-0.4,0.2-0.7,0.4-1.1c0.3-0.6,0.6-1.2,0.9-1.7c0.3-0.6,0.6-1.1,1-1.7c0.4-0.7,0.8-1.4,1.2-2c0.4-0.7,0.9-1.3,1.5-1.9
		c0.2-0.2,0.3-0.3,0.4-0.5C74,43.5,74.1,43.3,74.2,43.2z M76.6,48.1c0-0.1-0.1-0.2-0.1-0.2c-0.1,0-0.3-0.1-0.6-0.2
		c-0.2,0-0.4,0.1-0.5,0.2c-0.6,0.9-1.2,1.8-1.8,2.7c-0.6,0.9-1.1,1.8-1.5,2.9c-0.5,1-0.7,2.2-0.8,3.6c-0.1,0.4,0,0.5,0.3,0.2
		c0.3-0.3,0.7-0.5,1-0.7c0.3-0.2,0.6-0.4,0.9-0.7c0.3-0.3,0.6-0.6,0.9-1s0.5-0.8,0.7-1.2c0.3-0.5,0.5-1,0.7-1.4s0.4-1,0.5-1.5
		c0.1-0.4,0.2-0.8,0.2-1.3C76.6,49.1,76.6,48.6,76.6,48.1z M76.6,50.5c-0.6,2.4-1.8,4.4-3.5,6.2c0.3-0.1,0.6-0.4,1.1-0.9
		c0.4-0.6,0.9-1.2,1.2-1.9c0.4-0.7,0.7-1.3,1-2C76.7,51.2,76.7,50.8,76.6,50.5z M79.6,46L79.6,46l1.9-0.3l0-0.1L79.6,46z M85,44.7
		c0,0,0-0.1-0.1-0.1c-0.5,0.2-1,0.4-1.6,0.5c-0.5,0.2-1,0.3-1.6,0.5l0,0.1c0.5-0.2,1-0.4,1.6-0.5C83.9,45.1,84.5,44.9,85,44.7z"/>
	<path class="st1" d="M91.5,48.8c0.2-0.2,0.4-0.4,0.5-0.6c0.2-0.2,0.4-0.5,0.5-0.7c0.2-0.2,0.3-0.5,0.5-0.8c0.1-0.2,0.1-0.3,0.2-0.4
		c0.5-0.4,0.7-0.8,0.7-1.2c-0.1,0.1-0.1,0.1-0.2,0.2c0,0.1-0.1,0.1-0.2,0.2c-0.1,0.1-0.2,0.2-0.4,0.4c0.3-0.4,0.5-0.8,0.8-1.2
		s0.5-0.8,0.6-1.2c0.2-0.4,0.3-0.8,0.5-1.2c0.2-0.4,0.4-0.8,0.5-1.2c0.3-0.5,0.5-1,0.8-1.5c0.3-0.5,0.7-0.9,1.1-1.3
		c0.1-0.1,0.2-0.1,0.2-0.2c0.1,0,0.1-0.1,0.2-0.2l0.1,0.1c-0.1,0.1-0.3,0.3-0.4,0.4c-0.1,0.1-0.3,0.3-0.4,0.4c0.1,0,0.1,0.1,0.1,0.1
		c0.2-0.2,0.3-0.3,0.5-0.5c0.1-0.1,0.3-0.3,0.5-0.5c0.4,0,0.7,0.1,1.1,0.3c0.3,0.2,0.7,0.4,1,0.6c0.2,0.2,0.3,0.3,0.4,0.3
		c0,0.1-0.1,0.2-0.2,0.5c-0.2,0.4-0.4,0.7-0.6,1.1c-0.2,0.4-0.4,0.7-0.6,1.2c-0.2,0.5-0.4,1-0.6,1.5c-0.2,0.5-0.4,1-0.6,1.6
		c-0.2,0.6-0.5,1.2-0.7,1.8c-0.2,0.6-0.4,1.3-0.5,1.9c-0.2,0.5-0.3,1-0.3,1.6c-0.1,0.5-0.1,1.1-0.1,1.6c-0.1,0.3-0.1,0.5-0.1,0.7
		c0,0.2,0,0.5,0,0.7c0,0.2,0.2,0.3,0.5,0.2c0.8-0.4,1.5-0.9,2-1.5c0.4-0.5,0.8-0.9,1.2-1.3c0.4-0.4,0.7-0.8,1.1-1.3
		c0.5-0.8,1.1-1.5,1.6-2.3c0.5-0.8,1-1.6,1.4-2.4c0.4-0.8,0.8-1.6,1.2-2.4c0.4-0.8,0.7-1.7,1-2.6c0.3-0.7,0.5-1.5,0.6-2.2
		c0.2-0.8,0.3-1.5,0.4-2.3c0,0,0-0.1,0.1-0.2c0,0.1,0,0.2,0,0.4c0,0.1,0,0.3,0,0.4c0,0.1-0.1,0.2-0.1,0.2c0,0,0,0.1-0.1,0.2
		c0,0.1,0,0.2,0,0.3s0,0.2,0,0.3c-0.1,0.4-0.2,0.7-0.3,1c-0.1,0.3-0.2,0.7-0.3,1c-0.1,0.6-0.3,1.1-0.5,1.6c-0.2,0.5-0.4,1-0.6,1.6
		c-0.3,0.7-0.7,1.5-1.1,2.3c-0.1,0.2-0.1,0.3-0.2,0.5c-0.1,0.2-0.2,0.4-0.2,0.5c0,0,0.1,0,0.1,0.1l0.2-0.2c0.3-0.7,0.6-1.5,1-2.1
		c0.3-0.7,0.6-1.4,0.9-2.1c0.2-0.5,0.4-1.1,0.6-1.6c0.1-0.5,0.3-1.1,0.4-1.7c0-0.3,0.1-0.6,0.1-0.9c0-0.3,0.1-0.6,0.1-0.9
		c0-0.1,0.1-0.2,0.1-0.3c0-0.1,0.1-0.2,0.1-0.3s0-0.2,0-0.4c0-0.1,0-0.3,0-0.4c0-0.4,0.2-0.5,0.7-0.4c0.3,0.1,0.6,0.3,0.7,0.6
		c0.2,0.2,0.3,0.5,0.5,0.8c0.1,0.1,0.1,0.1,0.1,0.2c0,0,0,0.1,0.1,0.2l0.1,0.6l0,0.2c0.1,0.5,0.1,0.9,0.1,1.4c0,0.5-0.1,0.9-0.2,1.4
		c-0.1,0.6-0.2,1.3-0.5,2c-0.4,1-0.8,2.1-1.2,3.1c-0.5,1-1,2.1-1.5,3.1c-0.4,0.8-0.8,1.5-1.3,2.2c-0.5,0.7-1,1.5-1.6,2.1
		c-0.4,0.5-0.7,0.9-1.1,1.3c-0.4,0.4-0.8,0.8-1.2,1.2c-0.3,0.3-0.7,0.6-1.1,0.9c-0.4,0.3-0.9,0.5-1.4,0.6c-0.5,0.2-1.1,0.2-1.6-0.2
		c-1-0.6-1.9-1.1-2.8-1.8c-0.5-0.3-0.9-0.9-1-1.7l-0.2-0.9l-0.1,0c0,0.1-0.1,0.1-0.1,0.1c0,0-0.1,0.1-0.1,0.2
		c-0.6,0.8-1.2,1.6-1.8,2.3c-0.6,0.8-1.2,1.5-2,2.1c-0.6,0.7-1.3,1.1-2,1.3c-0.5,0.2-0.9,0.1-1.3-0.1c-0.4-0.3-0.8-0.5-1.2-0.8
		c-0.4-0.3-0.8-0.5-1.2-0.7c-0.4-0.3-0.7-0.6-0.9-0.9s-0.2-0.7-0.2-1.2c0-0.4,0-0.7,0-1l0.1,0c0.1,0.1,0.2,0.2,0.2,0.3
		c0,0,0.1,0,0.1,0s0,0,0.1,0c0-0.3,0-0.7,0.1-0.9c0.1-0.3,0.1-0.6,0-0.9c0-0.1,0.1-0.1,0.2-0.1c0-0.4,0.1-0.7,0.1-0.9
		c0.2-0.2,0.3-0.5,0.2-0.7c0.1-0.2,0.1-0.4,0.2-0.5c0-0.2,0.1-0.3,0.2-0.5l0-0.1l0-0.1l0-0.1c0.5-0.2,0.5-0.4,0.2-0.8l0.1-0.1
		c0.4-0.1,0.5-0.4,0.4-0.8l0.1-0.5c0.2-0.1,0.3-0.2,0.4-0.4c0.1-0.2,0.2-0.4,0.2-0.5c0-0.1,0.1-0.1,0-0.2c0-0.1,0-0.2,0-0.3
		c0-0.1,0.1-0.2,0.1-0.2c0-0.1,0.1-0.1,0.1-0.2c0,0,0-0.1,0-0.1c0,0,0,0,0-0.1c0.1-0.2,0.2-0.4,0.3-0.6c0.1-0.2,0.2-0.4,0.3-0.6
		c0.1-0.1,0.1-0.2,0.1-0.2c0-0.1,0.1-0.1,0.1-0.2c0.2-0.1,0.4-0.3,0.5-0.5c0.1-0.2,0.2-0.5,0.3-0.7l-0.1,0l-0.2,0
		c0.2-0.4,0.4-0.8,0.6-1c0,0,0.1,0,0.2-0.2c0.2-0.2,0.3-0.3,0.4-0.3c0.1,0,0.2,0,0.4,0.1c0.3,0.2,0.7,0.4,1,0.6
		c0.3,0.2,0.6,0.4,0.9,0.6c0.3,0.1,0.4,0.4,0.2,0.8l-0.8,1.9c-0.4,0.8-0.8,1.6-1.1,2.3c-0.3,0.8-0.7,1.5-1,2.3
		c-0.2,0.5-0.4,1-0.6,1.5c-0.2,0.5-0.4,1-0.5,1.5c-0.1,0.6-0.3,1.1-0.4,1.6c-0.1,0.5-0.3,1-0.4,1.6c0,0.1,0,0.2,0,0.4
		c0.1-0.1,0.2-0.1,0.3-0.1c0.5-0.3,0.9-0.7,1.3-1.1c0.4-0.4,0.7-0.8,1.1-1.3c0.5-0.6,1-1.3,1.5-1.9c0.5-0.7,1-1.3,1.5-1.9
		c0-0.1,0.1-0.1,0.1-0.1C91.5,48.5,91.5,48.7,91.5,48.8c-0.2,0.2-0.4,0.4-0.6,0.5s-0.3,0.4-0.5,0.6l-0.5,0.8
		c-0.1,0.2-0.3,0.4-0.6,0.6c0,0,0,0.1,0,0.1c0,0,0,0,0,0.1c0.3-0.2,0.5-0.4,0.5-0.7c0-0.1,0.1-0.1,0.1-0.1c0,0,0.1-0.1,0.1-0.2
		c0.3-0.3,0.6-0.6,0.7-0.9c0.1-0.1,0.2-0.2,0.3-0.4C91.3,49.1,91.4,48.9,91.5,48.8z M82.7,52.5c0-0.2,0-0.4,0-0.6
		c0-0.2,0.1-0.3,0.1-0.5c0.1,0,0.1,0,0.2,0c0,0.2,0,0.3-0.1,0.5c0,0.2,0,0.4,0,0.6L82.7,52.5z M83.4,49.9c-0.2,0.2-0.3,0.4-0.4,0.4
		c0.1-0.3,0.2-0.6,0.2-0.8c0,0,0,0.1,0.1,0.1L83.4,49.9z M84,48.3c-0.1,0.2-0.1,0.3-0.2,0.5c0,0.2-0.1,0.3-0.2,0.5
		c-0.1,0.1-0.2,0.2-0.3,0.3c0,0-0.1,0-0.1-0.1c0.1-0.2,0.1-0.4,0.2-0.6c0.1-0.2,0.1-0.4,0.2-0.6c0,0,0.1,0,0.2-0.2L84,48.3L84,48.3z
		 M83.9,48L83.9,48L83.9,48l-0.1,0.1c-0.1-0.3,0-0.6,0.2-0.9c0.1,0,0.1,0.1,0.2,0l0,0.1C84.1,47.5,84,47.7,83.9,48L83.9,48z
		 M83.9,48.1L83.9,48.1L83.9,48.1L83.9,48.1L83.9,48.1z M84,48L84,48L84,48z M84.2,47.3c0,0-0.1,0-0.2,0c0.1-0.1,0.1-0.2,0.1-0.2
		C84.2,47,84.2,47.1,84.2,47.3L84.2,47.3z M84.6,45.8c0,0.1,0.1,0.1,0.2,0.1l-0.1,0.5c-0.2,0.1-0.3,0.3-0.4,0.4
		C84.3,46.5,84.5,46.1,84.6,45.8z M86.4,42.6c-0.1,0.2-0.2,0.4-0.3,0.6c-0.1,0.2-0.2,0.4-0.3,0.6c0,0,0,0.1,0,0.1c0,0,0,0,0,0.1
		c0,0.1-0.1,0.2-0.1,0.2c0,0.1-0.1,0.1-0.1,0.2c-0.2,0.1-0.4,0.3-0.5,0.5c0-0.1,0.1-0.3,0.3-0.6l0.6-1.4c0-0.1,0.1-0.2,0.1-0.2
		c0,0,0.1-0.1,0.1-0.1c0,0,0.1,0,0.1,0C86.3,42.7,86.3,42.7,86.4,42.6z M86.9,41.4c-0.1,0.1-0.1,0.2-0.1,0.4c0,0.1,0,0.3-0.1,0.4
		c-0.1,0.1-0.1,0.2-0.1,0.2c0,0.1-0.1,0.1-0.1,0.2c0,0-0.1,0-0.1,0c0,0-0.1,0-0.1,0C86.3,42,86.6,41.6,86.9,41.4z M86.9,54.2
		C87,54.2,87,54.3,86.9,54.2c0.3,0,0.5-0.2,0.7-0.5c0.3-0.3,0.4-0.6,0.4-0.8c-0.2,0.2-0.4,0.4-0.6,0.7C87.3,53.8,87.1,54,86.9,54.2z
		 M88.6,52.3c0.4,0,0.6-0.2,0.6-0.6C89,51.9,88.8,52.1,88.6,52.3z M93.2,45.9l-0.1,0.5c-0.1,0.2-0.3,0.4-0.7,0.8l-0.1-0.1
		c0.2-0.2,0.3-0.4,0.5-0.6S93.1,46.1,93.2,45.9z M96.6,40.2c-0.1,0.1-0.3,0.2-0.4,0.5c-0.2,0.2-0.3,0.5-0.4,0.8
		c-0.1,0.3-0.2,0.5-0.3,0.8c-0.1,0.3-0.1,0.4-0.1,0.5c0.2-0.4,0.4-0.9,0.7-1.3C96.2,41,96.4,40.6,96.6,40.2z M100.1,51.5
		C100.1,51.5,100.1,51.5,100.1,51.5c-0.1-0.1-0.1-0.1-0.1-0.1c-0.3,0.4-0.7,0.8-1.2,1.2c0,0,0,0.1,0.1,0.1c0.2-0.2,0.4-0.4,0.6-0.6
		C99.7,52,99.9,51.8,100.1,51.5z M104.1,45.9c-0.6,0.8-1.2,1.7-1.8,2.5c-0.6,0.8-1.2,1.7-1.8,2.5c0.2-0.1,0.5-0.4,0.9-0.9
		c0.4-0.5,0.8-1.1,1.2-1.6c0.4-0.6,0.8-1.1,1.1-1.6C104,46.3,104.1,46,104.1,45.9z"/>
</g>
</svg>
