<?xml version="1.0" encoding="utf-8"?>
<!-- Generator: Adobe Illustrator 23.0.2, SVG Export Plug-In . SVG Version: 6.00 Build 0)  -->
<svg version="1.1" id="レイヤー_1" xmlns="http://www.w3.org/2000/svg" xmlns:xlink="http://www.w3.org/1999/xlink" x="0px"
	 y="0px" viewBox="0 0 230 114" style="enable-background:new 0 0 230 114;" xml:space="preserve">
<style type="text/css">
	.st0{enable-background:new    ;}
	.st1{fill:#FFFFFF;}
</style>
<g class="st0">
	<path class="st1" d="M52.8,90.3c0.2-0.1,0.4-0.3,0.5-0.4c0.1-0.1,0.3-0.3,0.5-0.4c0.5-0.3,0.9-0.6,1.3-0.9c0.4-0.3,0.9-0.6,1.3-0.9
		c0.1-0.1,0.1-0.1,0.2-0.1c0,0,0.1,0,0.2-0.1c0.2,0.2,0.3,0.2,0.4,0.1c0.1-0.1,0.2-0.2,0.4-0.3c0.1-0.1,0.1-0.3,0-0.4
		c0.1-0.1,0.3-0.2,0.4-0.3c0.1-0.1,0.3-0.2,0.4-0.3c0.3-0.3,0.7-0.5,1-0.7c0.3-0.2,0.7-0.5,1-0.8c0.1,0,0.2,0.1,0.3,0.1
		c0.1,0,0.2,0,0.3,0c0.1-0.1,0.3-0.2,0.4-0.2c0.1-0.1,0.2-0.2,0.3-0.3c0.1-0.1,0.3-0.2,0.4-0.3c0.2-0.1,0.3-0.2,0.5-0.3l-0.2-0.3
		c0-0.1,0.1-0.1,0.1-0.2c0-0.1,0.1-0.1,0.2-0.2c0.4-0.3,0.8-0.6,1.3-1c0.4-0.3,0.8-0.7,1.2-1c0.1,0,0.2-0.1,0.3-0.1
		c0.2,0.1,0.3,0.2,0.4,0.2c0,0,0.1-0.1,0.3-0.3c0.2-0.2,0.4-0.4,0.7-0.6c0.3-0.2,0.5-0.4,0.7-0.6c0,0,0.1-0.1,0-0.2
		c0.1-0.1,0.2-0.2,0.3-0.2c0.1,0,0.2-0.1,0.2-0.2c0.1-0.1,0.2-0.1,0.2-0.1c0,0,0.1,0,0.2-0.1c0.1-0.1,0.3-0.2,0.6-0.5
		c0.2,0,0.3-0.1,0.2-0.3c0.4-0.1,0.7-0.3,0.9-0.8c0.3-0.2,0.5-0.3,0.6-0.5c0.2,0,0.3-0.3,0.3-0.6l0.1,0l0.1,0c0.1,0,0.1,0.1,0.2,0.2
		c0.1,0.1,0.1,0,0.2-0.1l0-0.2c0.2-0.1,0.4-0.3,0.6-0.5c0.2-0.2,0.3-0.4,0.6-0.6c0.2,0,0.3,0,0.3-0.2c0-0.1,0-0.2,0-0.3l0.2,0
		l0.4-0.1l0.1-0.2c0,0,0-0.1,0-0.1c0,0,0-0.1,0-0.1l-0.2-0.2c0.2-0.1,0.3-0.3,0.4-0.4c0.1-0.2,0.3-0.3,0.4-0.4
		c0.6-0.6,1.3-1.2,1.9-1.8c0.6-0.6,1.3-1.2,2-1.8c0.2-0.3,0.5-0.6,0.8-0.8c0.3-0.2,0.6-0.5,0.8-0.8c0,0,0.1-0.1,0.2-0.2
		c-0.1,0-0.1-0.1-0.1-0.1c-0.5,0.2-1,0.3-1.5,0.4c-0.5,0.1-1,0.2-1.5,0.4L73.8,69c-1,0.3-1.9,0.6-2.9,0.9c-1,0.3-1.9,0.6-2.9,1
		c-0.4,0.1-0.7,0.2-1,0.4c-0.3,0.2-0.6,0.3-0.9,0.5c-0.1,0-0.2,0.1-0.4,0.2c-0.2,0.4-0.4,0.6-0.7,0.8c-0.3,0.2-0.7,0.3-1,0.5
		c-0.4,0.2-0.6,0.2-0.6,0.2c-0.1,0-0.1-0.3-0.1-0.6c-0.2-1.2-0.2-2.5,0-3.8c0-0.4,0.3-0.8,0.7-1.2c0.9-0.7,1.9-1.2,3.2-1.6
		c1.3-0.4,2.6-0.8,3.8-1.2c1.3-0.4,2.5-0.7,3.8-1.1c0.7-0.2,1.5-0.4,2.2-0.6c0.7-0.1,1.4-0.3,2.2-0.5c1.4-0.3,2.8-0.7,4.3-0.9
		c1.4-0.3,2.9-0.6,4.3-0.9c0.8-0.1,1.6-0.2,2.4-0.3s1.6-0.1,2.5-0.2c0.3-0.1,0.7-0.1,1-0.1c0.3,0,0.6-0.1,1-0.1c0.5,0,0.9,0,1.1,0.1
		c0.1,0,0.2,0,0.2,0c0,0,0.1,0.1,0.2,0.1c-3,0-5.9,0.3-8.7,0.9l0,0.1c0.1,0,0.3,0,0.4,0c0.1,0,0.3,0,0.4,0c0.9-0.1,1.8-0.2,2.7-0.3
		c0.9-0.1,1.8-0.2,2.8-0.3l2-0.1c0.3,0,0.5,0.2,0.6,0.5c0.2,0.5,0.3,0.9,0.3,1.3c0,0.4,0,0.8-0.1,1.3c-0.1,0.3-0.3,0.4-0.5,0.5
		l-1.9,0.3c-0.4,0.1-0.7,0.2-1.1,0.3c-0.4,0.1-0.7,0.1-1.1,0.2c-0.2,0-0.5,0.1-0.8,0.1c-0.3,0-0.6,0.1-0.9,0.1l-1.8,0.3
		c-0.3,0-0.5,0.2-0.6,0.3c-0.1,0.2-0.2,0.4-0.3,0.6c-0.1,0.2-0.1,0.4-0.2,0.5c0,0.2-0.1,0.3-0.2,0.5c0,0.2,0,0.4-0.1,0.8
		c-0.1,0.3-0.1,0.5-0.2,0.7c-0.1,0.2-0.2,0.5-0.3,0.7c-0.1,0.2-0.1,0.4-0.2,0.5c0,0.2-0.1,0.3-0.2,0.5l-0.1,0.1
		c-0.1,0.4-0.2,0.7-0.2,1.1c-0.1,0.4-0.1,0.7-0.2,1c-0.1,0.3-0.1,0.5-0.2,0.8c-0.1,0.3-0.2,0.5-0.2,0.8c-0.1,0.4-0.2,0.7-0.2,1
		c-0.1,0.3-0.1,0.7-0.2,1c-0.1,0.3-0.1,0.5-0.2,0.7c-0.1,0.2-0.1,0.5-0.2,0.7c-0.1,0.1-0.1,0.2-0.1,0.3c0,0.1,0,0.2,0,0.3
		c-0.1,0.8-0.3,1.6-0.5,2.4c-0.2,0.8-0.3,1.6-0.5,2.4c-0.2,1-0.3,2-0.5,2.9c-0.2,0.9-0.3,1.9-0.5,2.8c-0.1,0.6-0.2,1.3-0.2,1.9
		c-0.1,0.6-0.1,1.2-0.2,1.8c-0.1,0.8-0.2,1.5-0.3,2.2c-0.1,0.7-0.2,1.4-0.3,2.1c0,0.3-0.1,0.6-0.1,0.9c0,0.3-0.1,0.6-0.1,0.8
		c-0.1,0.6-0.3,1.1-0.5,1.5c-0.1,0.3-0.3,0.5-0.6,0.6c-0.3,0.2-0.5,0.2-0.6-0.2c-0.2-0.4-0.4-0.8-0.7-1.2c-0.2-0.4-0.5-0.8-0.7-1.2
		c-0.1-0.2-0.3-0.6-0.5-1l-0.1-0.4c0-0.1-0.1-0.3-0.2-0.5c-0.1-0.2-0.2-0.3-0.2-0.5c-0.3-1.6-0.4-3.3-0.5-5c0.1-2.4,0.4-4.8,0.7-7.1
		c0.2-1.2,0.4-2.3,0.6-3.4c0.2-1.1,0.5-2.3,0.7-3.4c0-0.1,0.1-0.2,0.1-0.2c0,0,0.1-0.1,0.1-0.2c0.1,0.1,0.2,0.1,0.3,0.1
		c0.2-0.4,0.1-0.7-0.1-0.9c0-0.2-0.1-0.4-0.2-0.6c-0.2,0.1-0.3,0.3-0.5,0.5c-0.2,0.2-0.3,0.3-0.5,0.5c-0.2,0.2-0.3,0.3-0.5,0.5
		c-0.1,0.1-0.3,0.3-0.5,0.5c-0.2,0.3-0.5,0.6-0.8,0.8c-0.3,0.2-0.6,0.5-0.8,0.8c-0.2,0.2-0.4,0.4-0.6,0.6c-0.2,0.2-0.4,0.4-0.6,0.6
		c-0.1,0.1-0.2,0.2-0.4,0.4c-0.1,0.1-0.3,0.3-0.4,0.4c-0.1,0.2-0.3,0.3-0.4,0.4c-0.2,0.3-0.5,0.5-0.8,0.8c-0.3,0.2-0.5,0.4-0.8,0.7
		c-0.5,0.4-1,0.8-1.5,1.2c-0.4,0.3-0.8,0.7-1.2,1c-0.4,0.4-0.8,0.7-1.3,1c-0.4,0.3-0.8,0.6-1.2,0.9c-0.4,0.3-0.8,0.6-1.2,0.9
		c-0.3,0.3-0.7,0.6-1.1,0.8c-0.4,0.3-0.8,0.6-1.2,0.9l-1.7,1.4c-0.5,0.3-1,0.7-1.5,1.1c-0.5,0.4-1,0.7-1.6,1.1
		c-0.5,0.3-0.9,0.6-1.4,0.9c-0.4,0.2-0.9,0.5-1.4,0.8c-0.4,0.3-0.9,0.5-1.2,0.8c-0.4,0.3-0.8,0.5-1.2,0.8c-0.3,0.1-0.5,0.3-0.8,0.4
		c-0.3,0.1-0.5,0.3-0.8,0.4c-0.6,0.3-1.1,0.7-1.7,1c-0.6,0.3-1.1,0.6-1.8,1c-0.6,0.3-1.2,0.6-1.7,0.9c-0.6,0.3-1.2,0.6-1.8,0.9
		c-0.7,0.4-1.4,0.7-2.1,0.9c-0.7,0.3-1.4,0.6-2.1,0.9c-0.9,0.4-1.7,0.7-2.6,0.9c-0.9,0.2-1.7,0.5-2.6,0.7c-1.4,0.4-2.8,0.7-4.3,1
		c-2.7,0.5-5.4,0.4-8.1-0.1c-1.8-0.4-3.4-1.2-4.8-2.3c-0.5-0.4-1-0.8-1.5-1.2c-0.5-0.4-1-0.8-1.5-1.2c-1.5-1-2.7-2.3-3.5-3.8
		c-0.4-0.6-0.6-1.2-0.8-1.9c-0.2-0.6-0.3-1.3-0.5-1.9c-0.2-1-0.3-2-0.3-3c0-1,0-2,0.2-3c0-0.3,0.1-0.7,0.2-1c0.1-0.3,0.1-0.7,0.2-1
		c0-0.1,0.1-0.2,0.2-0.3s0.2-0.2,0.3-0.3c0.1-0.2,0.1-0.4,0-0.6c0.1-0.1,0.1-0.2,0.1-0.2c0,0,0.1-0.1,0.1-0.2l-0.1-0.4
		c0,0,0-0.1-0.1-0.1c0,0,0.1,0,0.1-0.1c0.1,0,0.2-0.1,0.4-0.2c-0.1,0-0.1-0.1-0.2-0.1c-0.1,0-0.1-0.1-0.2-0.2c0,0-0.1-0.1-0.1-0.2
		c0.1,0,0.2,0,0.2,0c0,0,0.1,0,0.2,0c0-0.1,0.1-0.1,0.1-0.2c0-0.1,0-0.1,0.1-0.2l0.1-0.2c0,0,0-0.1-0.1-0.1l0-0.1l0-0.1l0.1,0
		c0-0.1,0.1-0.1,0.1-0.1c0,0,0.1,0,0.1-0.1c0,0,0-0.1,0-0.1c0,0,0-0.1,0-0.1c0-0.1,0-0.2,0.1-0.3c0-0.1,0-0.2,0.1-0.3l0.2-0.3
		c0-0.1-0.1-0.2-0.2-0.4c0,0,0-0.1,0.1-0.1c0.3,0.1,0.4,0,0.4-0.1c0-0.1,0-0.3,0.1-0.4l0.1-0.7c0,0,0.1,0,0.1,0c0,0,0.1,0,0.1,0
		l0-0.1c0-0.1,0-0.2,0-0.4c0-0.1,0-0.3,0-0.4c0.4-0.1,0.5-0.3,0.3-0.6c0,0,0.1,0,0.1,0c0,0,0.1,0,0.1,0l0.1-0.2l0-0.2
		c0-0.1,0.1-0.1,0.1-0.2s0-0.1,0.1-0.2l0.1-0.2l-0.1-0.1l0-0.1c0.2,0,0.3,0,0.3-0.2c0-0.1-0.1-0.2-0.1-0.3l0.1,0c0,0,0,0.1,0.1,0.1
		l0.1-0.2l0-0.2c0,0,0.1,0,0.1-0.1c0,0,0.1,0,0.1-0.1l0.1-0.2l0-0.2l0.1,0l-0.1-0.1c0.1-0.2,0.2-0.4,0.3-0.6
		c0.1-0.2,0.2-0.3,0.3-0.5c0.1-0.1,0.1-0.2,0.2-0.4c0.1-0.1,0.1-0.3,0.2-0.4c0.1,0,0.1,0.1,0.2,0l0-0.1c0,0,0.1,0,0.1-0.1
		c0,0,0.1,0,0.1-0.1l0.1-0.2l0.1-0.2l0-0.2l0-0.1c0.1-0.1,0.2-0.2,0.2-0.3c0.1-0.1,0.1-0.2,0.1-0.4l0.1,0c0.1,0,0.2,0,0.2-0.1
		c0,0,0.1,0,0.1-0.1l0.1-0.2l0-0.2c0,0,0.1,0,0.1-0.1c0,0,0.1,0,0.1-0.1c0.1-0.1,0.1-0.2,0-0.1c-0.1,0-0.2,0-0.3,0L16.3,70
		c0.1-0.4,0.3-0.6,0.6-0.7l0.1,0c0.1,0,0.3,0,0.4,0l0-0.2c0-0.1,0.1-0.1,0.1-0.1c0,0,0-0.1,0.1-0.1l0.2,0c-0.2-0.3-0.2-0.5-0.2-0.5
		c0-0.1,0.1-0.2,0.2-0.3c0.1-0.1,0.2-0.2,0.2-0.3c0.1,0,0.2,0.1,0.3,0.1c0.1,0.1,0.2,0,0.2-0.1l0.1-0.5c0.2-0.2,0.3-0.4,0.5-0.6
		c0.2-0.2,0.3-0.4,0.5-0.7l0.2,0c0-0.1-0.1-0.2-0.1-0.2c0.1-0.1,0.1-0.2,0.2-0.2c0,0,0.1-0.1,0.2-0.2l0.2,0C20,65.1,20,65,19.9,65
		c0,0-0.1,0-0.1-0.1c0.2-0.1,0.4-0.2,0.5-0.4c0.1-0.2,0.2-0.3,0.3-0.5c0.1,0,0.2,0,0.3,0c0.1,0,0.1-0.1,0-0.3l0.1,0L21,63.7
		c0.1-0.2,0.2-0.3,0.3-0.6c0.1-0.2,0.2-0.3,0.3-0.3c0.2-0.1,0.2-0.2,0.2-0.4c0-0.1,0.1-0.1,0.1-0.1c0,0,0.1,0,0.1-0.1l0.2-0.3
		c0-0.1,0.1-0.2,0.1-0.2c0,0,0.1-0.1,0.1-0.2c0.1,0,0.1,0.1,0.2,0l0-0.1c0,0,0.1,0,0.1-0.1c0,0,0.1,0,0.1-0.1l-0.1-0.1l0-0.1
		c0.1,0,0.2,0,0.2,0c0.1,0,0-0.1-0.1-0.2c0.2-0.1,0.3-0.2,0.4-0.4l0.2,0c0,0,0-0.1-0.1-0.1c0,0,0-0.1-0.1-0.1
		c0.1-0.1,0.1-0.2,0.2-0.3c0.1-0.1,0.1-0.1,0.2-0.3c0-0.1,0.1-0.1,0.3-0.3c0.3,0,0.5-0.1,0.4-0.4l0.1,0c0-0.1,0-0.1,0-0.2l0.4-0.5
		c0,0,0.1,0,0.1,0c0,0,0,0,0.1,0l0.3-0.4l0.3-0.1l-0.5-0.3c0.2-0.2,0.3-0.4,0.5-0.6c0.2-0.2,0.3-0.4,0.5-0.6c0.2,0,0.3,0,0.4,0
		c0,0,0.1,0,0.1,0.1c0,0,0.1,0.1,0.2,0c0,0,0-0.1-0.1-0.1c0,0,0-0.1-0.1-0.1c0,0,0.1,0,0.1,0c0,0,0.1,0,0.2,0L27.1,56
		c0.1-0.1,0.1-0.2,0.2-0.3c0.1-0.1,0.1-0.1,0.2-0.3c0.1-0.1,0.3-0.2,0.5-0.3c-0.1-0.1-0.2-0.1-0.3-0.2c-0.1,0-0.1-0.1-0.2-0.1
		c0.2-0.1,0.3-0.3,0.5-0.4c0.1-0.1,0.3-0.3,0.4-0.5l0.2,0.1c0.2,0.1,0.3,0,0.3-0.1l0.2-0.3l0.1-0.2c0.1-0.1,0.2-0.2,0.3-0.3
		c0.1-0.1,0.2-0.2,0.2-0.3c0.2-0.2,0.4-0.4,0.6-0.6c0.2-0.2,0.4-0.4,0.6-0.6c0.1-0.1,0.2-0.1,0.2-0.2c0.1-0.1,0.1-0.1,0.2-0.3
		c0.4,0,0.5-0.2,0.4-0.7c0.2,0,0.4-0.1,0.6-0.3c0.1-0.2,0.3-0.4,0.5-0.5c0.1-0.2,0.3-0.4,0.6-0.6c0.1-0.1,0.3-0.2,0.4-0.4
		c0.1-0.1,0.3-0.2,0.4-0.4c0.1-0.1,0.2-0.2,0.3-0.3c0.1-0.1,0.2-0.2,0.3-0.3c0.2-0.1,0.3-0.2,0.5-0.3c-0.1-0.1-0.2-0.1-0.2-0.1
		c-0.1,0-0.1,0-0.2-0.1l0.6-0.5c0.2,0.1,0.3,0.1,0.4,0.1c0.2-0.1,0.3-0.3,0.4-0.4c0.1-0.1,0.3-0.2,0.4-0.4c0-0.1,0.1-0.1,0.1-0.1
		c0,0,0.1,0,0.1-0.1c0.2-0.1,0.3-0.3,0.5-0.5c0.2-0.2,0.3-0.3,0.5-0.5c0.4-0.2,0.7-0.4,0.8-0.7c0.1,0,0.2,0,0.2,0c0,0,0.1,0,0.2,0
		c0.1-0.3,0.1-0.5-0.1-0.6c0.2-0.1,0.4-0.3,0.6-0.5c0.2-0.2,0.3-0.3,0.5-0.5c0.2-0.2,0.4-0.4,0.7-0.5c0.2-0.2,0.5-0.3,0.7-0.5
		c0-0.1,0.1-0.1,0.1-0.1c0,0,0.1,0,0.2-0.1c0.2,0.2,0.4,0.2,0.5,0.2c0.2-0.2,0.4-0.4,0.7-0.6c0.2-0.2,0.5-0.3,0.7-0.5
		c0.3-0.2,0.5-0.4,0.8-0.6c0.3-0.2,0.5-0.4,0.9-0.6c0.2-0.1,0.2-0.2,0-0.4c0.1-0.1,0.2-0.2,0.2-0.3c2.8-1.9,5.6-3.5,8.3-4.9
		c1.8-1,3.8-1.8,5.9-2.4c1-0.3,2-0.6,3-0.8c1-0.2,2.1-0.3,3.1-0.3c0.9,0,1.7,0.1,2.5,0.4c0.8,0.3,1.5,0.6,2.3,1.1
		c0.5,0.3,1,0.6,1.4,1c0.4,0.3,0.9,0.7,1.3,1c0.3,0.2,0.6,0.4,0.8,0.6c0.7,0.6,1.2,1.3,1.4,2.1c0.3,0.8,0.4,1.6,0.3,2.6
		c-0.1,0.6-0.2,1.4-0.4,2.2c-0.1,0.3-0.2,0.5-0.3,0.9c-0.1,0.3-0.2,0.6-0.3,0.9c-0.1,0.4-0.3,0.7-0.4,1c-0.2,0.3-0.3,0.7-0.5,1
		c-0.2,0.4-0.3,0.7-0.5,1c-0.2,0.3-0.3,0.7-0.5,1c-0.2,0.5-0.4,0.9-0.7,1.4c-0.3,0.5-0.5,0.9-0.9,1.4c-0.5,0.8-1,1.5-1.5,2.2
		c-0.5,0.7-1,1.4-1.5,2.2c-0.2,0.3-0.4,0.5-0.6,0.8c-0.2,0.3-0.4,0.5-0.6,0.8c-0.4,0.5-0.8,0.9-1.2,1.3c-0.4,0.4-0.8,0.9-1.3,1.3
		c-0.8,1-1.8,2-2.8,2.9c-0.4,0.4-0.8,0.7-1.1,1c-0.4,0.3-0.8,0.6-1.2,0.9c-0.9,0.7-1.8,0.7-2.7,0c-0.2-0.2-0.3-0.3-0.5-0.5
		c-0.2-0.1-0.3-0.3-0.4-0.5c-0.4-0.4-0.4-0.8-0.2-1.1l0.1,0l0-0.1c0.4,0,0.6-0.2,0.8-0.6c0.2-0.1,0.3-0.3,0.4-0.4
		c0.1-0.1,0.2-0.3,0.4-0.4c0.5-0.2,0.7-0.4,0.7-0.8c0,0,0.1,0,0.1-0.1c0.3-0.1,0.5-0.2,0.4-0.4c0.2-0.2,0.4-0.4,0.6-0.5
		c0.2-0.2,0.4-0.4,0.6-0.5c0-0.1,0.1-0.1,0.1-0.2c0-0.1,0-0.2,0.1-0.3l0-0.1c0.1,0,0.1,0.1,0.2,0c0,0,0.1,0,0.2,0
		c0-0.1,0.1-0.1,0.1-0.1c0,0,0.1-0.1,0.1-0.1c0-0.1,0.1-0.1,0.1-0.1c0,0,0.1-0.1,0.1-0.2l0.1-0.3c0.3,0.1,0.4,0.1,0.4-0.1
		c0.1-0.1,0.2-0.2,0.2-0.3c0.2,0,0.3-0.2,0.4-0.5c0.3-0.4,0.6-0.7,0.8-0.9c0.1-0.1,0.1-0.2,0.2-0.3c0.1-0.1,0.1-0.2,0.2-0.3l0.3-0.1
		c0-0.1,0.1-0.1,0.1-0.2c0-0.1,0-0.1,0.1-0.2c0-0.1,0.1-0.1,0.1-0.1l0.1-0.2c0,0,0.1,0,0.1,0c0,0,0,0,0.1,0L64,53l0.2-0.3l0.1-0.2
		c0.3-0.1,0.4-0.3,0.4-0.6c0.1-0.2,0.2-0.3,0.4-0.5c0.1-0.2,0.2-0.4,0.3-0.6c0.2,0,0.4-0.2,0.4-0.5l0.1,0l0.1-0.2
		c0-0.1,0.1-0.1,0.1-0.1c0-0.1,0-0.2,0.1-0.2c-0.1,0-0.1-0.1-0.2,0c0.4-0.2,0.5-0.4,0.4-0.7l0.2,0c0.4-0.1,0.5-0.4,0.4-0.8l0.1,0
		l0.1,0.1c0,0,0.1,0,0.1-0.1c0,0,0.1,0,0.1-0.1c0-0.1,0.1-0.1,0.1-0.2c0-0.1,0-0.1,0.1-0.2l-0.3-0.2l0-0.2c0.2,0,0.4,0,0.5-0.1
		c0.1-0.1,0.1-0.2,0.1-0.5c0.1-0.2,0.2-0.3,0.3-0.6c0-0.1,0.1-0.1,0.1-0.1c0,0,0.1,0,0.1-0.1l0.1-0.2l0.2-0.3l-0.1-0.1l0-0.1l0.1,0
		l0.1-0.1c0.1-0.2,0.1-0.4,0.3-0.6c0.1-0.1,0.1-0.2,0.1-0.2c0.3-0.1,0.4-0.3,0.3-0.6c0-0.1,0.1-0.2,0.1-0.2c0,0,0-0.1,0.1-0.2
		c0.2,0,0.2-0.1,0.1-0.1c-0.1-0.1-0.2-0.1-0.2-0.2l0.1-0.1c0.3,0.1,0.4,0,0.4-0.1c0-0.1,0-0.3,0-0.4c0-0.1,0-0.2,0.1-0.2
		c0.2-0.2,0.1-0.4,0-0.6l0-0.1l0-0.1l0.1,0c0.3,0.1,0.4,0,0.4-0.1c0-0.1,0-0.3,0-0.4l0-0.1c0,0,0.1,0,0.2,0l0.1-0.1
		c-0.1,0-0.1-0.1-0.1-0.1c0,0-0.1,0-0.1-0.1l0.1-0.1c0.2-0.1,0.3-0.3,0.4-0.4c0-0.2,0-0.3,0.1-0.5l0-0.1l0.3-0.7
		c0.4-0.2,0.5-0.5,0.2-0.8c0.1-0.3,0.1-0.5,0.2-0.7c0.1-0.2,0.1-0.5,0.2-0.7c0.1-0.3,0-0.4-0.2-0.5c0,0,0-0.1-0.1-0.1
		c0,0-0.1-0.1-0.1-0.1c0-0.4,0-0.8,0-1.1c0-0.3,0-0.7,0-1.1c-0.1-0.4-0.3-0.6-0.7-0.6c-0.8-0.1-1.7-0.1-2.6,0
		c-0.9,0.1-1.7,0.3-2.5,0.5c-1.6,0.3-3.2,0.9-4.9,1.7c-0.7,0.3-1.4,0.6-2,0.9c-0.7,0.3-1.3,0.6-1.9,1c-0.5,0.2-0.9,0.4-1.3,0.7
		c-0.4,0.3-0.8,0.5-1.2,0.7c-0.4,0.2-0.7,0.4-1.1,0.6c-0.4,0.2-0.7,0.4-1.1,0.6c-0.5,0.3-0.9,0.7-1.4,1c-0.5,0.3-0.9,0.6-1.4,1
		c-0.2,0.2-0.4,0.4-0.7,0.5c-0.2,0.2-0.5,0.3-0.7,0.5c-0.2,0.1-0.4,0.3-0.7,0.5c-0.2,0.2-0.5,0.4-0.7,0.6c-0.3,0.2-0.6,0.4-0.8,0.6
		c-0.3,0.2-0.5,0.4-0.8,0.6c-0.3,0.3-0.7,0.6-1,0.8c-0.3,0.3-0.6,0.5-1,0.8c-0.3,0.3-0.7,0.6-1,0.8c-0.3,0.3-0.6,0.5-1,0.8
		c-0.3,0.2-0.5,0.5-0.8,0.7c-0.2,0.2-0.5,0.5-0.8,0.7c-0.2,0.2-0.3,0.3-0.5,0.5c-0.1,0.1-0.3,0.3-0.4,0.4c-0.2,0.3-0.5,0.5-0.8,0.7
		c-0.3,0.2-0.5,0.4-0.7,0.7c-0.1,0.2-0.2,0.3-0.4,0.4c-0.2,0.1-0.3,0.3-0.5,0.4l-1.3,1.3c-0.3,0.4-0.7,0.7-1,1c-0.3,0.3-0.7,0.7-1,1
		c-0.2,0.1-0.3,0.3-0.4,0.4c-0.1,0.2-0.2,0.3-0.4,0.4c-0.2,0.2-0.4,0.5-0.7,0.7c-0.2,0.2-0.4,0.5-0.6,0.7c-0.3,0.3-0.6,0.6-0.8,1
		c-0.1,0.3-0.3,0.5-0.5,0.7c-0.2,0.2-0.3,0.4-0.5,0.7c-0.1,0.1-0.1,0.2-0.2,0.2c-0.1,0-0.1,0.1-0.2,0.2l-0.9,1.3
		c-0.2,0.3-0.4,0.5-0.6,0.7c-0.2,0.2-0.4,0.5-0.6,0.7c-0.1,0.1-0.2,0.2-0.3,0.4c-0.1,0.1-0.2,0.3-0.3,0.4c-0.1,0.2-0.2,0.3-0.4,0.5
		c-0.1,0.2-0.3,0.3-0.4,0.5c-0.1,0.1-0.1,0.2-0.2,0.2c0,0-0.1,0.1-0.1,0.2c-0.1,0.1-0.2,0.2-0.3,0.4c-0.1,0.2-0.2,0.3-0.3,0.4
		c-0.3,0.3-0.5,0.7-0.8,1.1c-0.3,0.4-0.5,0.7-0.8,1.1c-0.2,0.2-0.3,0.4-0.4,0.7c-0.1,0.2-0.3,0.5-0.4,0.7c-0.2,0.3-0.4,0.7-0.6,1
		c-0.2,0.3-0.4,0.7-0.6,1c-0.1,0.1-0.2,0.2-0.3,0.4c-0.1,0.2-0.2,0.3-0.3,0.5l-0.4,0.6c-0.1,0.2-0.2,0.3-0.3,0.6
		c-0.1,0.2-0.2,0.4-0.4,0.6c-0.1,0.2-0.3,0.4-0.4,0.7l-0.3,0.7c-0.1,0.2-0.2,0.4-0.5,0.7c-0.1,0.2-0.2,0.4-0.3,0.6
		c-0.1,0.2-0.2,0.5-0.3,0.7c-0.1,0.3-0.2,0.5-0.3,0.8c-0.1,0.3-0.2,0.6-0.3,0.8c-0.1,0.2-0.1,0.3-0.2,0.5c-0.1,0.2-0.1,0.4-0.2,0.6
		c-0.1,0.1-0.2,0.2-0.2,0.4c-0.1,0.2-0.1,0.3-0.2,0.5c-0.1,0.1-0.1,0.3-0.1,0.4c0,0.2-0.1,0.3-0.1,0.5L15,85.1
		c-0.1,0.4-0.2,0.7-0.3,1c-0.1,0.3-0.2,0.7-0.2,1c-0.2,1.3-0.3,2.6-0.5,3.8c-0.1,1.2-0.2,2.5,0,3.8c0.1,1.1,0.3,2.2,0.7,3.2
		c0.3,1,0.9,2,1.6,2.9c0.2,0.4,0.5,0.6,1,0.8c1,0.3,2,0.5,3.1,0.6c1,0.1,2.1,0.2,3.1,0.1c1.3-0.1,2.7-0.3,4.2-0.5
		c0.6-0.1,1.1-0.2,1.7-0.4c0.6-0.1,1.1-0.3,1.7-0.5c0.7-0.2,1.4-0.4,2.1-0.6c0.7-0.2,1.4-0.4,2-0.7c0.9-0.3,1.7-0.6,2.5-1
		c0.8-0.4,1.6-0.7,2.4-1.1c1.4-0.6,2.8-1.3,4.1-2c1.3-0.7,2.6-1.5,3.9-2.2c0.6-0.4,1.2-0.7,1.8-1.1s1.2-0.8,1.8-1.1
		c0.1-0.1,0.2-0.1,0.2-0.1c0,0,0.1,0,0.2-0.1c0.1,0.1,0.2,0.1,0.2,0.1c0.1,0,0.1,0.1,0.2,0.2c0.1-0.2,0.2-0.3,0.2-0.3
		c0.2-0.1,0.3-0.2,0.3-0.2C52.9,90.5,52.9,90.4,52.8,90.3z M10.9,83.1c-0.1,0.1-0.1,0.2-0.1,0.2c0,0.1-0.1,0.1-0.1,0.2
		c0-0.1-0.1-0.2-0.2-0.3c-0.1-0.1-0.1-0.2,0.1-0.4C10.6,83,10.7,83.1,10.9,83.1z M11.2,82c-0.1,0-0.2,0-0.2,0c0,0-0.1,0-0.2,0
		c0-0.1,0.1-0.1,0.1-0.2c0-0.1,0-0.1,0.1-0.2c0,0,0.1,0,0.1,0c0,0,0,0,0.1,0c0,0,0,0.1,0,0.1c0,0,0,0,0,0.1l-0.2,0L11.2,82z
		 M10.9,81.6c0,0,0.1,0,0.1-0.1c0,0,0.1-0.1,0.1-0.1c0.1,0,0.1,0.1,0.1,0.1c0,0,0,0.1,0.1,0.1c0,0-0.1,0-0.1,0c-0.1,0-0.1,0-0.1,0
		C11,81.7,11,81.7,10.9,81.6C11,81.6,11,81.6,10.9,81.6z M11.4,81.2L11.4,81.2c-0.1,0-0.2,0-0.2,0c0,0-0.1,0-0.1-0.1
		c0-0.1,0.1-0.1,0.1-0.1c0,0,0-0.1,0.1-0.1c0,0,0,0.1,0,0.1c0,0,0,0,0,0.1c0,0,0,0.1,0.1,0.1C11.4,81.1,11.4,81.1,11.4,81.2z
		 M11.4,81.2l0,0.1c-0.1,0-0.1-0.1-0.1-0.1c0,0-0.1-0.1-0.1-0.1c0.1,0,0.1,0.1,0.1,0.1C11.3,81.1,11.3,81.2,11.4,81.2z M11.2,80.9
		C11.2,80.8,11.2,80.8,11.2,80.9c0-0.1,0.1-0.1,0-0.2c0.1,0.1,0.1,0.1,0.2,0.2c0.1,0,0.1,0.1,0.2,0.2c0,0-0.1,0-0.1,0s-0.1,0-0.1,0
		C11.3,80.9,11.3,80.9,11.2,80.9C11.2,80.9,11.2,80.9,11.2,80.9z M11.8,80.2c0,0.1,0,0.2-0.1,0.3c0,0.1,0,0.2-0.1,0.3
		c-0.2-0.1-0.3-0.1-0.4-0.1C11.2,80.4,11.4,80.2,11.8,80.2z M11.3,81.5L11.3,81.5l0.2,0L11.3,81.5z M12.3,78.9
		c-0.1,0.1-0.1,0.2-0.1,0.4c0,0.1-0.1,0.2-0.4,0.1c-0.1-0.3-0.1-0.5,0.1-0.7c0.1,0,0.2,0.1,0.2,0.1C12.1,78.9,12.2,78.9,12.3,78.9z
		 M12.3,78.9c-0.1,0-0.2-0.1-0.2-0.1c0,0-0.1,0-0.2-0.1c0-0.3,0.1-0.5,0.4-0.5l0.1,0L12.3,78.9z M12.7,77.5c0,0.1,0,0.2,0,0.4
		c0,0.1,0,0.3,0,0.4l-0.2,0l-0.1,0C12.1,77.7,12.2,77.4,12.7,77.5z M13.2,76.8c0,0-0.1,0-0.1,0c0,0-0.1,0-0.1,0
		c-0.1,0-0.1-0.1-0.2-0.1c-0.1,0-0.1-0.1,0-0.2c0.1,0,0.1,0.1,0.1,0.1c0,0,0.1,0,0.1,0.1C13,76.7,13.1,76.8,13.2,76.8z M12.8,76.5
		c0-0.1,0.1-0.1,0.1-0.2c0-0.1,0-0.1,0.1-0.2c0,0,0.1,0,0.1,0c0,0,0,0,0.1,0c0.1,0,0.1,0.1,0.1,0.1c0,0,0,0.1,0.1,0.1
		c0,0-0.1,0-0.1,0c-0.1,0-0.1,0-0.1,0c0.1,0,0.1,0.1,0.1,0.1c0,0,0,0.1,0.1,0.1l-0.1,0c-0.1,0-0.1-0.1-0.1-0.1
		C12.9,76.6,12.9,76.6,12.8,76.5z M13,76.2l0.1-0.2l0.1,0.1c0,0,0,0.1,0,0.1c0,0,0,0,0,0.1l-0.1,0C13.1,76.3,13,76.3,13,76.2
		C13,76.2,13,76.2,13,76.2z M13.1,76.1C13.1,76.1,13.2,76,13.1,76.1c0.1-0.1,0.2-0.1,0.2-0.1c0.1,0,0.1,0.1,0.1,0.1
		c0,0,0,0.1,0.1,0.1c0,0-0.1,0-0.1,0C13.3,76.1,13.2,76.1,13.1,76.1L13.1,76.1z M13.3,76.7C13.3,76.7,13.3,76.7,13.3,76.7
		c-0.1,0-0.1-0.1-0.2,0C13.2,76.6,13.3,76.6,13.3,76.7C13.3,76.7,13.3,76.7,13.3,76.7z M13.6,76l-0.2,0L13.6,76
		C13.5,75.9,13.6,75.9,13.6,76z M13.8,75.3l-0.1,0c-0.3-0.1-0.3-0.2-0.1-0.4l0.4,0.3c0,0-0.1,0-0.1,0c-0.1,0-0.1,0-0.1,0l-0.1-0.1
		l0.1,0.1C13.7,75.2,13.8,75.2,13.8,75.3z M13.8,74.8C13.9,74.8,13.9,74.8,13.8,74.8c0.1,0.1,0.1,0.1,0.2,0.2c-0.1,0-0.2,0-0.2,0
		c0,0-0.1,0-0.2,0c0,0,0.1,0,0.1-0.1C13.7,74.8,13.8,74.8,13.8,74.8z M14.1,74.6c-0.1,0-0.2,0-0.2,0c0,0-0.1,0-0.2,0
		c0.1-0.1,0.1-0.2,0.2-0.3l0.1,0.1l0.3,0.2c0,0-0.1,0-0.1,0c-0.1,0-0.1,0-0.1,0C14,74.5,14,74.5,14.1,74.6
		C14.1,74.6,14.1,74.6,14.1,74.6z M13.8,75.3L13.8,75.3C13.9,75.3,13.8,75.3,13.8,75.3z M15.3,72.5c-0.1,0.2-0.1,0.3-0.2,0.4
		c0,0.1-0.1,0.3-0.2,0.4c-0.1,0.2-0.2,0.3-0.3,0.5c-0.1,0.2-0.2,0.4-0.3,0.6c-0.1,0-0.2,0-0.3,0l-0.1-0.1c0.1-0.2,0.1-0.3,0.2-0.5
		c0.1-0.2,0.1-0.3,0.2-0.4c0.1-0.2,0.2-0.4,0.3-0.6s0.2-0.3,0.4-0.5L15.3,72.5z M14.2,74.7C14.2,74.7,14.2,74.7,14.2,74.7
		C14.2,74.7,14.2,74.7,14.2,74.7C14.2,74.6,14.2,74.6,14.2,74.7C14.2,74.6,14.2,74.6,14.2,74.7z M15,72.3c0-0.1,0.1-0.1,0.1-0.2
		c0-0.1,0-0.1,0.1-0.2c0,0,0.1,0,0.1,0c0,0,0,0,0.1,0c0.1,0,0.1,0.1,0.1,0.1c0,0,0,0.1,0.1,0.1c0,0-0.1,0-0.1,0c-0.1,0-0.1,0-0.1,0
		c0,0,0,0.1,0,0.1c0,0,0,0,0,0.1c0,0-0.1,0-0.1,0C15.1,72.3,15.1,72.3,15,72.3z M15.2,72l0.1-0.2c0.1,0,0.1,0.1,0.1,0.1
		c0,0,0,0.1,0.1,0.1l-0.1,0C15.3,72,15.3,72,15.2,72C15.3,72,15.3,71.9,15.2,72z M15.5,71.5c0.1,0,0.1,0.1,0.2,0.1
		c0.1,0,0.1,0,0.2,0.1l0,0.1c-0.1,0-0.2,0-0.3,0c0.1,0,0.1,0.1,0.1,0.1c0,0,0,0.1,0.1,0.1c-0.1,0-0.2,0-0.2,0c0,0-0.1,0-0.2,0
		C15.4,71.7,15.5,71.6,15.5,71.5z M16.1,70.9c0,0.2,0,0.3-0.1,0.4c-0.1,0.1-0.2,0.2-0.2,0.3c-0.1,0-0.1-0.1-0.2-0.1
		c-0.1,0-0.1,0-0.2-0.1c0.1-0.1,0.3-0.3,0.4-0.7c0.1,0,0.1,0.1,0.1,0.1C16,70.9,16.1,70.9,16.1,70.9z M15.6,72c0,0-0.1,0-0.1-0.1
		C15.6,72,15.6,72,15.6,72c0,0,0.1,0,0.1,0.1C15.7,72,15.6,72,15.6,72z M15.7,71.9C15.7,71.9,15.8,71.9,15.7,71.9
		c0.1,0,0.1,0.1,0.2,0C15.8,71.9,15.8,71.9,15.7,71.9C15.8,71.9,15.7,71.9,15.7,71.9z M16.1,70.9c-0.1,0-0.1-0.1-0.1-0.1
		c0,0-0.1,0-0.1-0.1c0-0.1,0.1-0.1,0.1-0.2c0,0,0-0.1,0.1-0.2c0.1,0,0.1,0.1,0.1,0.1c0,0,0.1,0,0.1,0.1c0,0,0,0.1,0,0.1
		c0,0,0,0,0,0.1l-0.2,0l-0.1-0.1l0.1,0.1L16.1,70.9L16.1,70.9z M16,70.5l0.1-0.2c0.1,0,0.1,0.1,0.1,0.1c0,0,0.1,0.1,0.1,0.1l-0.1,0
		c-0.1,0-0.1-0.1-0.1-0.1C16.1,70.5,16.1,70.5,16,70.5z M16.3,70l0.2,0.1l0.2,0.1l-0.2,0l-0.1-0.1l0.1,0.1c0,0,0,0.1,0,0.1
		c0,0,0,0,0,0.1c-0.1,0-0.2,0-0.2,0c0,0-0.1,0-0.2,0C16.2,70.2,16.3,70.1,16.3,70z M16.6,70.6C16.5,70.6,16.5,70.6,16.6,70.6
		c-0.1,0-0.1-0.1-0.2,0C16.5,70.6,16.5,70.6,16.6,70.6C16.5,70.6,16.5,70.6,16.6,70.6z M17.4,68.9c0,0.1-0.1,0.1-0.1,0.1
		c0,0,0,0.1-0.1,0.1c-0.1,0-0.2,0-0.2,0c0,0-0.1,0-0.2,0l0-0.1c0-0.1,0.1-0.1,0.1-0.1c0,0,0.1-0.1,0.1-0.1L17.4,68.9z M18.2,67.1
		c0.1,0.1,0.2,0.1,0.2,0.1l-0.1,0.5c-0.1,0.2-0.1,0.2-0.2,0.1c-0.1-0.1-0.2-0.1-0.3-0.1C17.8,67.4,17.9,67.2,18.2,67.1z M19.4,65.9
		c-0.1,0.3-0.3,0.5-0.5,0.7c-0.2,0.2-0.3,0.4-0.5,0.6c0,0-0.1,0-0.2-0.1c0-0.1,0.1-0.1,0-0.2c0-0.1,0-0.1,0-0.2
		c0.1-0.2,0.2-0.3,0.3-0.5c0.1-0.1,0.2-0.3,0.3-0.4c0.1-0.2,0.2-0.2,0.3-0.2C19.2,65.7,19.3,65.8,19.4,65.9z M19.7,64.9L19.7,64.9
		c0,0.1,0,0.2,0.1,0.2c0,0,0,0.1,0.1,0.1c-0.1,0.1-0.1,0.2-0.2,0.2c0,0-0.1,0.1-0.2,0.2c-0.1,0-0.1-0.1-0.2,0c0,0-0.1,0-0.2,0
		c0.1-0.1,0.2-0.2,0.2-0.4C19.4,65,19.5,64.9,19.7,64.9z M20.6,64.1c-0.1,0.2-0.2,0.3-0.3,0.5c-0.1,0.2-0.3,0.3-0.5,0.4l-0.1,0
		l0-0.1c0.1-0.3,0.3-0.6,0.4-0.7c0-0.1,0.1-0.1,0.2-0.3L20.6,64.1z M20.6,63.8C20.7,63.9,20.7,63.9,20.6,63.8
		c0.1,0.1,0.1,0.1,0.1,0.1C20.6,63.9,20.6,63.9,20.6,63.8c-0.1,0.1-0.2,0.1-0.3,0c0,0,0.1,0,0.1-0.1C20.5,63.8,20.5,63.8,20.6,63.8
		L20.6,63.8z M20.9,63.8c0,0-0.1,0-0.1,0c-0.1,0-0.1,0-0.1,0l-0.1-0.1c0,0,0.1,0,0.1-0.1c0,0,0.1,0,0.1-0.1
		C20.8,63.7,20.8,63.7,20.9,63.8C20.9,63.8,20.9,63.8,20.9,63.8z M21,63c0.1,0,0.2,0.1,0.3,0.2c-0.2,0.2-0.3,0.4-0.3,0.6
		c-0.1,0-0.1-0.1-0.2,0c-0.1-0.2-0.1-0.4,0-0.4C20.8,63.2,20.9,63.1,21,63z M21.6,62.2l0.3,0.2c0,0.2,0,0.4-0.2,0.4
		c-0.2,0.1-0.3,0.2-0.3,0.3C21.2,63,21.1,63,21,63C21.2,62.8,21.4,62.5,21.6,62.2z M22.6,61.4c0,0.1-0.1,0.2-0.1,0.2
		c0,0-0.1,0.1-0.1,0.2l-0.2,0.3c0,0.1-0.1,0.1-0.1,0.1c0,0-0.1,0-0.1,0.1l-0.3-0.2c0.1-0.3,0.2-0.5,0.3-0.6s0.3-0.1,0.5-0.1
		L22.6,61.4L22.6,61.4z M22.5,61.5l-0.1,0c-0.2-0.1-0.2-0.2-0.1-0.4c0.1-0.1,0.2-0.1,0.2-0.1c0.1,0,0.2,0.1,0.3,0.1l0,0.1
		c-0.1,0-0.2,0-0.3,0c0,0,0,0.1,0,0.1c0,0,0,0,0,0.1l-0.2,0C22.4,61.4,22.4,61.4,22.5,61.5z M23.3,60.5c-0.1,0.1-0.2,0.2-0.4,0.4
		c-0.1,0-0.1-0.1-0.2,0c0,0-0.1,0-0.2,0c0.1-0.3,0.2-0.4,0.3-0.4C23,60.3,23.1,60.4,23.3,60.5z M22.9,61.2L22.9,61.2
		C22.9,61.2,22.9,61.2,22.9,61.2z M23.9,59.7c-0.1,0.1-0.1,0.2-0.2,0.3c-0.1,0.1-0.1,0.1-0.2,0.3c-0.1,0-0.1-0.1-0.2,0
		c0,0-0.1,0-0.2,0l0-0.1c0.2-0.1,0.4-0.2,0.5-0.4C23.7,59.7,23.8,59.8,23.9,59.7z M23.9,59.7c0,0-0.1,0-0.2-0.1
		c-0.1-0.1-0.1-0.2,0-0.3c0.1,0,0.2-0.1,0.3-0.2c0.1,0.2,0.2,0.3,0.3,0.3C24,59.6,23.9,59.7,23.9,59.7z M24.5,58.9
		c-0.1,0-0.2,0-0.2,0c0-0.1,0.1-0.1,0-0.2C24.4,58.8,24.4,58.8,24.5,58.9C24.4,58.8,24.5,58.9,24.5,58.9z M25.2,58.4
		c-0.1,0.1-0.2,0.2-0.4,0.4l-0.5-0.1c0.1-0.1,0.2-0.2,0.2-0.3c0.1-0.1,0.2-0.2,0.2-0.3c0.1,0,0.1,0.1,0.2,0.1
		C25.1,58.3,25.1,58.3,25.2,58.4z M24.5,58.9c0.1,0,0.1,0.1,0.1,0.1c0,0,0.1,0,0.1,0.1l-0.1,0C24.6,59,24.6,59,24.5,58.9
		C24.6,59,24.5,58.9,24.5,58.9z M25.6,57.8l-0.3,0.4l-0.5-0.1c0.1-0.3,0.3-0.4,0.3-0.4C25.2,57.7,25.4,57.7,25.6,57.8z M27.5,55.5
		c-0.1,0.1-0.1,0.2-0.2,0.3c-0.1,0.1-0.1,0.1-0.2,0.3l-0.3-0.1c0.2-0.2,0.3-0.4,0.4-0.6c0.1,0,0.1,0.1,0.2,0.1
		C27.4,55.5,27.5,55.5,27.5,55.5z M27.5,55.5c-0.1,0-0.1-0.1-0.2-0.1c-0.1,0-0.1,0-0.2-0.1c0.1-0.1,0.2-0.2,0.4-0.4
		c0.1,0,0.2,0.1,0.2,0.1c0.1,0,0.1,0.1,0.3,0.2C27.8,55.4,27.6,55.5,27.5,55.5z M28.8,53.5c0.1,0,0.2,0.1,0.2,0.1c0,0,0.1,0,0.2,0.1
		L29,53.9l-0.2,0.3l-0.3,0.1L28.4,54C28.4,53.9,28.5,53.7,28.8,53.5z M29.5,52.8c0.1,0,0.1,0.1,0.1,0.1c0,0,0.1,0.1,0.1,0.1
		c-0.1,0.1-0.2,0.2-0.2,0.3c-0.1,0.2-0.2,0.3-0.3,0.3c-0.1,0-0.2-0.1-0.2-0.1c0,0-0.1,0-0.2-0.1c0.1-0.1,0.2-0.2,0.3-0.4
		C29.2,53.1,29.3,53,29.5,52.8z M31.3,51.4c-0.1,0.1-0.1,0.2-0.2,0.3c-0.1,0.1-0.1,0.1-0.2,0.2c-0.2,0.2-0.4,0.4-0.6,0.6
		c-0.2,0.2-0.4,0.4-0.6,0.6c-0.1,0-0.1-0.1-0.1-0.1c0,0-0.1-0.1-0.1-0.1c0.2-0.2,0.3-0.4,0.4-0.5l0.9-1c0-0.1,0.1-0.1,0.1-0.1
		c0,0,0.1,0,0.2-0.1c0.1,0.1,0.1,0.1,0.1,0.2C31.2,51.3,31.3,51.3,31.3,51.4z M32.8,50c-0.2,0.1-0.3,0.3-0.5,0.5
		c-0.1,0.2-0.3,0.3-0.6,0.3l-0.1,0c0.1-0.3,0.2-0.5,0.3-0.6c0.2-0.2,0.4-0.3,0.6-0.4c0.1,0,0.1,0.1,0.1,0.1
		C32.7,49.9,32.7,50,32.8,50z M33.1,49.2l0.2,0.2c-0.2,0.2-0.4,0.4-0.6,0.6c-0.1,0-0.1-0.1-0.1-0.1c0,0-0.1-0.1-0.1-0.1L33.1,49.2z
		 M34.1,48.6c-0.1,0.1-0.3,0.2-0.4,0.4c-0.1,0.1-0.3,0.2-0.4,0.4l-0.2-0.2c0.1-0.1,0.3-0.3,0.4-0.4c0.1-0.1,0.3-0.3,0.4-0.4
		C33.9,48.5,34,48.6,34.1,48.6z M34.1,48.6c-0.1-0.1-0.2-0.2-0.3-0.2l0.6-0.5c0.1,0,0.1,0.1,0.2,0.1c0.1,0,0.1,0,0.2,0.1
		c-0.1,0.1-0.2,0.2-0.3,0.3C34.3,48.4,34.2,48.5,34.1,48.6z M34.7,48c-0.1,0-0.1-0.1-0.2-0.1c-0.1,0-0.1,0-0.2-0.1
		c0.1-0.1,0.2-0.1,0.2-0.2c0.1,0,0.1-0.1,0.2-0.2c0.1,0,0.1,0.1,0.2,0.1c0.1,0,0.1,0.1,0.2,0.1C35.1,47.8,34.9,47.9,34.7,48z
		 M36.4,46c0.1,0,0.1,0.1,0.1,0.1c0,0,0.1,0.1,0.1,0.1c-0.2,0.1-0.3,0.3-0.4,0.4c-0.1,0.1-0.3,0.2-0.4,0.4c0,0-0.2,0-0.4-0.1
		c0.2-0.1,0.3-0.3,0.5-0.4C36.1,46.4,36.3,46.2,36.4,46z M37.9,45.2c-0.2,0.1-0.3,0.3-0.5,0.5c-0.2,0.2-0.3,0.3-0.5,0.5
		c0,0.1-0.1,0.1-0.1,0.1c0,0-0.1,0-0.1,0.1c-0.1,0-0.1-0.1-0.1-0.1c0,0-0.1-0.1-0.1-0.1c0.4-0.3,0.8-0.7,1.2-1L37.9,45.2z
		 M37.9,45.2L37.7,45c0.2-0.1,0.3-0.3,0.4-0.4c0.1-0.1,0.3-0.2,0.4-0.4c0.1,0,0.1,0.1,0.1,0.1c0,0,0,0.1,0.1,0.1
		C38.6,44.8,38.3,45,37.9,45.2z M38.7,44.5C38.7,44.4,38.6,44.4,38.7,44.5c-0.1-0.1-0.1-0.1-0.2-0.2c0.1-0.1,0.2-0.1,0.2-0.2
		c0.1,0,0.1-0.1,0.2-0.2c0.2,0.1,0.2,0.3,0.1,0.6c-0.1,0-0.2,0-0.2,0C38.9,44.5,38.8,44.5,38.7,44.5z M45.3,39.2
		c0.2,0.2,0.2,0.4,0,0.4c-0.3,0.2-0.6,0.3-0.9,0.6c-0.3,0.2-0.5,0.4-0.8,0.6c-0.2,0.2-0.4,0.4-0.7,0.5c-0.2,0.2-0.5,0.4-0.7,0.6
		c-0.1,0-0.3,0-0.5-0.2c0,0,0.1,0,0.1,0c0,0,0,0,0.1,0c0.5-0.4,1-0.8,1.6-1.2c0.5-0.4,1.1-0.8,1.6-1.2
		C45.1,39.3,45.2,39.2,45.3,39.2z M52.8,90.3c0.1,0.1,0.2,0.1,0.3,0.2c0.1,0.1,0,0.1-0.3,0.2c0,0-0.1,0.1-0.2,0.3
		c-0.1-0.1-0.1-0.1-0.2-0.2c-0.1,0-0.1-0.1-0.2-0.1c0.1-0.1,0.2-0.1,0.3-0.2C52.6,90.5,52.7,90.4,52.8,90.3z M57.7,59.3l0.2,0.1
		l-0.5,0.8c-0.1,0.1-0.2,0.3-0.4,0.4c-0.1,0.1-0.3,0.3-0.4,0.4c-0.2,0-0.3,0-0.4,0.2c-0.1,0.1-0.2,0.3-0.3,0.4l-0.1,0l0-0.2
		c0.3-0.4,0.7-0.7,1-1C57,59.9,57.4,59.6,57.7,59.3z M55.7,61.5L55.7,61.5L55.7,61.5L55.7,61.5L55.7,61.5z M57.6,86.9
		c0.1,0.2,0.1,0.3,0,0.4c-0.1,0.1-0.2,0.2-0.4,0.3c-0.1,0.1-0.3,0-0.4-0.1L57.6,86.9z M58.2,59.2c0,0.1-0.1,0.1-0.1,0.1l-0.1,0
		l-0.2-0.1c0.2-0.1,0.3-0.3,0.4-0.4c0.1-0.2,0.3-0.3,0.4-0.4c0.1-0.1,0.3-0.3,0.4-0.4c0.1-0.2,0.3-0.3,0.4-0.4
		c0.1-0.1,0.2-0.1,0.3-0.1c0.1,0,0.2-0.1,0.3-0.1c0,0.1-0.1,0.2-0.1,0.3c0,0.1,0,0.1-0.1,0.2c-0.2,0.2-0.4,0.4-0.6,0.5
		c-0.2,0.2-0.4,0.4-0.6,0.5c-0.1,0.1-0.2,0.1-0.3,0.2C58.2,59,58.1,59.1,58.2,59.2z M60.1,56.9l0.2,0.1l-0.1,0c0,0,0,0.1,0,0.1
		c0,0,0,0,0,0.1c-0.1,0-0.2,0-0.2,0c0,0-0.1,0-0.2,0C59.9,57,60,57,60.1,56.9z M60.9,56.4l-0.1,0.3c0,0.1-0.1,0.2-0.1,0.2
		c0,0-0.1,0.1-0.1,0.1c-0.1,0-0.2,0-0.2,0c0,0-0.1,0-0.2,0C60.2,56.6,60.4,56.4,60.9,56.4L60.9,56.4L60.9,56.4z M61.2,84.2
		c0.1,0,0.2,0.1,0.2,0.1c0,0,0.1,0,0.2,0.1c-0.1,0.1-0.2,0.2-0.3,0.3c-0.1,0.1-0.2,0.2-0.4,0.2c-0.1,0-0.2,0-0.3,0
		c-0.1,0-0.2-0.1-0.3-0.1L61.2,84.2z M61,56c0,0,0-0.1,0.1-0.2c0,0,0.1,0,0.1,0.1c0,0,0.1,0,0.1,0.1l0,0.1l-0.1,0L61,56z M61.1,56
		C61.1,56.1,61.1,56.1,61.1,56c0.1,0.1,0.1,0.1,0.1,0.1C61.1,56.1,61.1,56.1,61.1,56c0,0.1-0.1,0.1-0.1,0L61.1,56z M63.1,53.9
		c-0.1,0.1-0.1,0.2-0.2,0.3c-0.1,0.1-0.1,0.2-0.2,0.3c-0.2,0.3-0.5,0.6-0.8,0.9l-0.4,0.1c-0.1,0.2-0.2,0.3-0.3,0.3l-0.1,0
		c0-0.1,0.1-0.1,0-0.2c0,0,0-0.1,0-0.2c0.2-0.3,0.5-0.6,0.8-0.9c0.3-0.3,0.5-0.6,0.8-0.9C62.9,53.8,63,53.9,63.1,53.9z M62.3,83.4
		l0.2,0.3c-0.2,0.1-0.3,0.2-0.5,0.3c-0.2,0.1-0.3,0.2-0.4,0.3c-0.1,0-0.2-0.1-0.2-0.1c0,0-0.1,0-0.2-0.1c0.2-0.2,0.3-0.3,0.5-0.5
		C61.8,83.5,62,83.4,62.3,83.4z M63.1,53.9c-0.1,0-0.2,0-0.3-0.1c0-0.1,0.1-0.1,0.1-0.1c0,0,0.1-0.1,0.1-0.1l0.1,0.1l0.1,0.1l0,0.1
		c-0.1,0-0.2,0-0.2,0C63,53.7,63,53.8,63.1,53.9C63,53.8,63,53.8,63.1,53.9z M63,53.5l0.2-0.3c0,0,0.1,0.1,0.2,0.2l-0.1,0
		c0,0,0,0.1,0,0.1c0,0,0,0,0,0.1l-0.1,0L63,53.5L63,53.5z M63.2,53.2C63.2,53.2,63.2,53.2,63.2,53.2c0.1-0.1,0.2-0.1,0.2-0.1
		l0.1,0.1c0,0,0,0.1,0,0.1c0,0,0,0,0,0.1c-0.1,0-0.2,0-0.2,0C63.3,53.3,63.2,53.3,63.2,53.2z M63.5,53.5l-0.2,0
		C63.4,53.5,63.5,53.5,63.5,53.5z M63.4,53.1C63.4,53.1,63.4,53.1,63.4,53.1c0-0.1,0.1-0.1,0-0.2l0.1,0.1c0,0,0,0.1,0,0.1
		c0,0,0,0,0,0.1L63.4,53.1L63.4,53.1z M63.4,53l0.3-0.4l0,0.2c0,0,0,0.1,0,0.1c0,0,0,0,0,0.1l-0.1,0c0,0,0,0.1,0,0.1c0,0,0,0,0,0.1
		c0,0-0.1,0-0.1,0C63.6,53,63.5,53,63.4,53L63.4,53z M63.7,53.2l-0.2,0C63.6,53.2,63.7,53.2,63.7,53.2z M64,52.5
		C64,52.6,64,52.6,64,52.5c0.1,0.1,0.1,0.1,0.1,0.1l-0.3-0.1L64,52.5z M63.8,52.9c0.1,0,0.1,0.1,0.2,0L63.8,52.9z M64.3,52.5
		c-0.1,0-0.1-0.1-0.2,0L64.3,52.5C64.2,52.5,64.3,52.5,64.3,52.5z M65.4,50.9c-0.1,0.2-0.2,0.4-0.3,0.6c-0.1,0.2-0.2,0.3-0.4,0.5
		c-0.1,0-0.1-0.1-0.2,0c0,0-0.1,0-0.2,0c0-0.3,0.1-0.5,0.3-0.7c0.2-0.2,0.4-0.3,0.6-0.5C65.3,50.7,65.3,50.8,65.4,50.9
		C65.4,50.8,65.4,50.8,65.4,50.9z M65.7,80.6l0.3,0.2c-0.2,0.2-0.3,0.3-0.3,0.3c0,0-0.2,0-0.4-0.2c0.1-0.1,0.2-0.1,0.2-0.1
		C65.5,80.8,65.6,80.7,65.7,80.6z M65.8,50.3c0,0-0.1,0-0.1,0c0,0-0.1,0-0.2,0c0-0.1,0.1-0.1,0.1-0.2c0-0.1,0-0.1,0.1-0.2l0,0.2
		C65.7,50.2,65.7,50.2,65.8,50.3C65.8,50.2,65.8,50.2,65.8,50.3z M66,49.7c0.1,0,0.1,0.1,0.1,0.1l-0.1,0l-0.1-0.1l0.1,0.1
		c0,0,0,0.1,0,0.1c0,0,0,0,0,0.1c-0.1,0-0.2,0-0.2,0c0,0-0.1,0-0.2,0C65.8,49.8,65.9,49.8,66,49.7z M67.4,79.4c0,0.1,0,0.1,0,0.2
		c-0.2,0.2-0.4,0.4-0.7,0.6c-0.3,0.2-0.5,0.4-0.7,0.6l-0.3-0.2c0.4-0.5,0.8-1,1.4-1.4L67.4,79.4z M65.8,50.3L65.8,50.3L65.8,50.3
		L65.8,50.3z M66.1,50.1L66.1,50.1L66.1,50.1z M66.2,49.9c-0.1,0-0.1-0.1-0.2,0C66.1,49.9,66.2,49.9,66.2,49.9z M66.5,49.2
		c-0.1,0-0.1-0.1-0.2,0c0.1-0.2,0.2-0.4,0.4-0.7c0,0.2,0,0.4,0,0.7L66.5,49.2z M67,48.3l-0.1,0c0-0.2,0-0.3,0.1-0.4
		c0,0,0,0.1,0.1,0.1L67,48.3L67,48.3z M67,48c0-0.1,0.1-0.1,0.1-0.1c0,0,0.1-0.1,0.1-0.1c0,0,0,0.1,0.1,0.1c0,0,0,0.1,0,0.1
		c0,0,0,0,0,0.1l-0.1,0l-0.1-0.1l0.1,0.1l0,0.1c-0.1,0-0.2,0-0.2,0C67.1,48,67,48,67,48z M67.1,48.1c0.1,0,0.1,0.1,0.2,0L67.1,48.1z
		 M67.5,78.9l0.2,0.2c0,0.2-0.1,0.2-0.2,0.2c-0.1,0-0.2,0-0.3,0.2l-0.2-0.2c0.1-0.1,0.2-0.1,0.2-0.2C67.4,79.1,67.5,79,67.5,78.9z
		 M67.2,48.4C67.2,48.4,67.1,48.4,67.2,48.4L67.2,48.4z M67.2,48.1L67.2,48.1L67.2,48.1z M67.6,47.9l-0.2,0
		C67.5,47.9,67.5,47.9,67.6,47.9z M68.3,46.5c-0.2,0.2-0.3,0.4-0.3,0.6c-0.1,0-0.1-0.1-0.2,0c0,0-0.1,0-0.2,0
		c0.1-0.4,0.3-0.6,0.6-0.6C68.2,46.4,68.2,46.5,68.3,46.5z M68.8,78.4c-0.2,0.2-0.4,0.4-0.6,0.5c-0.1,0.1-0.2,0.1-0.2,0.1
		c0,0-0.1,0-0.2,0.1l-0.2-0.2c0.2-0.1,0.3-0.3,0.5-0.5c0.2-0.2,0.3-0.3,0.5-0.5C68.6,78.2,68.7,78.3,68.8,78.4z M68.1,46.2
		c0-0.1,0.1-0.2,0.1-0.2c0-0.1,0.1-0.1,0.1-0.2l0,0.2c0,0,0,0.1,0,0.1c0,0,0,0,0,0.1l-0.1,0c0,0,0,0.1,0,0.1c0,0,0,0,0,0.1
		C68.2,46.3,68.1,46.3,68.1,46.2z M69.4,66l0-0.1C69.2,65.9,69,66,68.8,66c-0.2,0.1-0.4,0.1-0.5,0.2l0,0.1c0.2-0.1,0.4-0.2,0.6-0.2
		C69,66,69.2,66,69.4,66z M68.7,45.8l-0.3-0.1c0.1,0,0.2,0,0.2,0C68.6,45.8,68.6,45.8,68.7,45.8L68.7,45.8z M68.6,46.1l-0.2,0
		C68.5,46.1,68.5,46.2,68.6,46.1z M68.8,44.9c0.1,0,0.1,0.1,0.1,0.1c0,0,0.1,0.1,0.1,0.1c-0.1,0.2-0.2,0.4-0.3,0.6l-0.1,0
		C68.4,45.4,68.4,45.2,68.8,44.9z M69.8,77.2c-0.2,0.5-0.5,0.7-0.9,0.8c-0.1,0-0.2,0-0.2,0c0,0-0.1,0-0.2,0c0.2-0.1,0.3-0.3,0.5-0.5
		c0.2-0.2,0.3-0.3,0.5-0.5L69.8,77.2z M68.7,45.9L68.7,45.9C68.7,45.8,68.7,45.9,68.7,45.9z M68.7,45.7L68.7,45.7L68.7,45.7
		L68.7,45.7z M69.6,43.8c0,0.1-0.1,0.2-0.1,0.2c0,0,0,0.1-0.1,0.2l-0.3,0c0,0.1,0,0.2,0,0.3s0,0.2,0,0.3c0,0,0,0.1-0.1,0.2
		c-0.1,0-0.1-0.1-0.1-0.1c0,0-0.1-0.1-0.1-0.1c0.1-0.2,0.1-0.4,0.2-0.6c0.1-0.2,0.2-0.3,0.2-0.6c0,0,0.1,0,0.2,0
		C69.5,43.8,69.5,43.9,69.6,43.8z M70.1,43c0,0.1,0,0.2,0,0.4c0,0.1-0.1,0.2-0.4,0.1l-0.1,0l0-0.1c-0.1-0.3,0.1-0.5,0.3-0.6L70.1,43
		z M69.8,77.2l-0.2-0.2l0.6-0.5c0.1,0,0.1,0.1,0.1,0.1c0,0,0.1,0.1,0.2,0.1C70.3,76.9,70.1,77.1,69.8,77.2z M69.9,42.8
		c-0.1-0.3,0-0.5,0.3-0.6c0.2,0.2,0.2,0.4,0,0.6L69.9,42.8z M70.5,76.7c-0.1,0-0.2-0.1-0.2-0.1c0,0-0.1-0.1-0.1-0.1
		c0.3-0.1,0.5-0.3,0.6-0.4C70.8,76.5,70.7,76.7,70.5,76.7z M70.6,41.5c0,0.1,0,0.2,0,0.4c0,0.1-0.1,0.2-0.4,0.1
		C70.1,41.7,70.3,41.6,70.6,41.5z M71,40.3c0,0.2,0,0.4-0.1,0.5c0,0.1-0.1,0.3-0.4,0.4C70.4,40.6,70.6,40.3,71,40.3z M72.4,74.9
		c-0.2,0.2-0.4,0.4-0.6,0.6c-0.2,0.2-0.3,0.4-0.6,0.5c0,0-0.1,0-0.1,0c0,0,0,0-0.1,0c0,0-0.1,0-0.1,0c-0.1,0-0.1,0-0.1,0l0-0.1
		c0-0.1,0-0.2,0-0.2c0.2-0.2,0.4-0.4,0.6-0.5c0.2-0.2,0.4-0.4,0.6-0.5L72.4,74.9z M71.3,39.5L71,40.2c0,0,0-0.1-0.1-0.1
		c-0.1,0-0.1-0.1-0.1-0.1c0.1-0.2,0.1-0.4,0.1-0.6c0-0.2,0.2-0.4,0.4-0.5C71.3,39.1,71.3,39.3,71.3,39.5z M71.6,36.7
		c0.2,0.1,0.3,0.3,0.2,0.5c-0.1,0.3-0.1,0.5-0.2,0.7c-0.1,0.2-0.1,0.5-0.2,0.7l-0.2,0c0-0.2,0-0.4,0-0.5c0-0.3,0-0.7,0.2-1.2
		C71.6,36.9,71.6,36.8,71.6,36.7z M71.6,65.1l0,0.1c0.3-0.1,0.6-0.2,0.9-0.3c0.3-0.1,0.6-0.1,0.9-0.2l0-0.2
		c-0.3,0.1-0.6,0.2-0.9,0.3C72.1,65,71.8,65.1,71.6,65.1z M72.4,74.9l-0.2-0.2c0.1-0.1,0.2-0.1,0.2-0.2c0.1-0.1,0.1-0.1,0.2-0.2
		c0,0,0.1,0,0.1,0c0,0,0,0,0.1,0c0,0.1,0,0.2,0,0.3C72.7,74.8,72.6,74.9,72.4,74.9z M72.7,74.4C72.7,74.4,72.7,74.4,72.7,74.4
		c-0.1,0-0.1-0.1-0.2,0c0-0.1,0.1-0.1,0.1-0.1c0,0,0.1-0.1,0.1-0.1c0.1,0,0.1,0.1,0.1,0.1c0,0,0.1,0,0.1,0.1c0,0,0,0.1,0,0.1
		c0,0,0,0,0,0.1c0,0-0.1,0-0.1,0c-0.1,0-0.1,0-0.1,0l0,0.1C72.8,74.4,72.8,74.4,72.7,74.4z M73.2,73.8l0.2,0.2l-0.3,0
		c0,0,0,0.1,0,0.1c0,0,0,0,0,0.1l-0.1,0c-0.1,0-0.1-0.1-0.1-0.1c0,0-0.1,0-0.1-0.1C72.9,74,73,74,73,73.9
		C73,73.9,73.1,73.9,73.2,73.8z M73.4,74.2l-0.2,0C73.3,74.2,73.3,74.2,73.4,74.2z M75.9,64.1c0,0,0-0.1-0.1-0.1
		c-0.2,0.1-0.5,0.2-0.7,0.2c-0.3,0-0.5,0.1-0.7,0.2l0,0.1c0.3-0.1,0.5-0.2,0.8-0.2C75.4,64.2,75.7,64.2,75.9,64.1z M81.2,62.8l0-0.1
		c-0.8,0.2-1.6,0.4-2.5,0.6c-0.8,0.2-1.7,0.4-2.5,0.6l0,0.1c0.8-0.2,1.7-0.5,2.5-0.7C79.6,63.2,80.4,63,81.2,62.8z M79,76
		c0.2,0.2,0.3,0.5,0.1,0.9c-0.1,0-0.2,0-0.3-0.1C78.6,76.4,78.7,76.1,79,76z M82.3,62.4l0,0.1c0.2-0.1,0.5-0.2,0.7-0.2
		c0.3,0,0.5-0.1,0.7-0.1l0-0.1c-0.2,0-0.5,0.1-0.7,0.2C82.8,62.4,82.5,62.4,82.3,62.4z M85,62l2-0.4C86.2,61.5,85.6,61.6,85,62z"/>
	<path class="st1" d="M109.4,64.3c0.2-0.3,0.2-0.6,0.1-0.8c-0.2,0.2-0.4,0.4-0.5,0.6c-0.1,0.2-0.3,0.4-0.4,0.6
		c-0.3,0.4-0.5,0.8-0.8,1.1c-0.3,0.4-0.6,0.7-0.8,1.1c-0.2,0.4-0.5,0.8-0.7,1.1c-0.2,0.4-0.5,0.7-0.8,1.1c-0.4,0.6-0.8,1.1-1.2,1.6
		c-0.4,0.5-0.9,1-1.3,1.5c-0.7,0.9-1.5,1.6-2.3,2.1c-0.2,0.1-0.5,0.3-0.9,0.4c-0.4,0.1-0.8,0.1-1.1-0.2c-0.4-0.3-0.9-0.5-1.3-0.8
		c-0.4-0.3-0.8-0.5-1.3-0.8c-0.4-0.2-0.6-0.5-0.8-0.8c-0.1-0.3-0.2-0.7-0.2-1.1c0-1.6,0.3-3.2,0.9-4.7c0.4-0.9,0.8-1.8,1.2-2.7
		c0.4-0.9,0.9-1.9,1.4-2.8c0-0.1,0.1-0.2,0.1-0.2c0,0,0.1-0.1,0.2-0.2l0,0.1c0,0,0.1,0,0.1,0s0,0,0.1,0l0.1,0
		c0.1-0.1,0.1-0.2,0.1-0.3c0.4-0.2,0.6-0.5,0.8-1l-0.1,0c0.1-0.1,0.1-0.1,0.2-0.1c0,0,0.1-0.1,0.2-0.1c0.1-0.2,0.1-0.3,0.1-0.4
		c0.1-0.1,0.2-0.2,0.2-0.3l0-0.1c0.1-0.1,0.1-0.2,0.2-0.2c0.3-0.1,0.5-0.4,0.7-0.8c0-0.1,0.1-0.2,0.1-0.2c0,0,0.1-0.1,0.1-0.1
		c0,0,0.1,0,0.1-0.1c0.2-0.2,0.4-0.3,0.6-0.3c0.2,0.1,0.4,0.1,0.6,0.3c0.3,0.1,0.5,0.3,0.7,0.4c0.2,0.1,0.4,0.3,0.6,0.4
		c0.3,0.2,0.4,0.6,0.2,1l-1.5,2.7c-0.3,0.4-0.5,0.9-0.8,1.3c-0.2,0.5-0.5,0.9-0.7,1.4c-0.3,0.5-0.6,1-0.8,1.5
		c-0.3,0.5-0.5,1-0.7,1.6c-0.2,0.6-0.5,1.2-0.6,1.8c-0.2,0.6-0.4,1.2-0.6,1.8c-0.1,0.4-0.2,0.7-0.2,1c0.6-0.3,1.1-0.8,1.6-1.3
		c0.5-0.5,0.9-1,1.4-1.5c0.1,0,0.1,0.1,0.1,0.1c-0.2,0.2-0.4,0.5-0.7,0.7c-0.3,0.2-0.5,0.5-0.7,0.8c0,0,0.1,0,0.1,0.1
		c0.1-0.1,0.2-0.2,0.4-0.4l2.8-2.9c0.4-0.5,0.9-1,1.3-1.5c0.4-0.5,0.9-1,1.3-1.5c0.6-0.6,1.1-1.3,1.6-1.9s1-1.3,1.5-2.1
		c0.4-0.5,0.8-1.1,1.1-1.6c0.3-0.6,0.7-1.2,1-1.8c0.1-0.2,0.2-0.3,0.3-0.5c0.1-0.2,0.1-0.4,0.2-0.7c0.3,0.1,0.5,0.3,0.8,0.4
		c0.2,0.1,0.5,0.2,0.8,0.3c0.1,0.1,0.2,0.2,0.4,0.3c0.1,0.1,0.3,0.2,0.5,0.3c0.3,0.3,0.4,0.6,0.3,0.9c-0.1,0.5-0.2,0.9-0.3,1.4
		c-0.1,0.5-0.3,0.9-0.4,1.4c-0.3,0.8-0.5,1.5-0.8,2.3c-0.3,0.8-0.5,1.5-0.7,2.3c-0.2,0.7-0.3,1.4-0.4,2.1c-0.1,0.7-0.2,1.4-0.3,2.1
		c0,0.4,0,0.8,0,1.1c0,0.3,0.1,0.7,0.1,1.1c0,0.3-0.1,0.6-0.4,0.8l-0.4,0.1c-0.4-0.2-0.8-0.4-1.1-0.8c-0.3-0.4-0.6-0.7-0.9-1.1
		c-0.3-0.4-0.5-0.8-0.5-1.3c0-0.5,0-0.9,0-1.3c0-0.3,0-0.7,0-0.9c0-0.3,0-0.6,0.1-0.9l0.1,0c0,0.1,0,0.2,0.1,0.2c0,0,0,0.1,0.1,0.1
		c-0.1,0.2-0.1,0.3-0.1,0.4c0,0.1,0,0.3,0.1,0.5l0.1,0c0-0.2,0-0.3,0-0.4c0-0.1,0-0.3,0-0.4c0.2-0.2,0.2-0.4,0-0.7l0-0.2l0-0.1
		c0,0,0-0.1,0.1-0.1c0.1,0,0.2-0.1,0.3-0.4c0.1-0.4,0.2-0.7,0.2-0.9C109.4,64.6,109.4,64.5,109.4,64.3z M95.4,70.3l0.1,0
		c0-0.2,0.1-0.3,0.1-0.5c0-0.2,0-0.3,0-0.4l-0.1,0L95.4,70.3z M96.4,66.8c-0.3,0.1-0.4,0.3-0.3,0.6c0.1-0.1,0.1-0.2,0.2-0.3
		C96.3,67,96.3,66.9,96.4,66.8z M98.9,61l-0.1,0.1c0,0-0.1,0-0.1,0.1c-0.3,0.5-0.5,1-0.7,1.4c-0.2,0.5-0.4,0.9-0.7,1.4
		c0,0.1,0,0.2,0,0.3c0.1-0.1,0.2-0.3,0.4-0.6c0.2-0.3,0.4-0.7,0.5-1c0.2-0.4,0.3-0.7,0.5-1C98.9,61.3,98.9,61.1,98.9,61z M99.5,59.7
		c-0.1,0.1-0.1,0.2-0.1,0.4c0,0.1,0,0.2-0.1,0.3c0,0.1,0,0.2-0.1,0.3l-0.1,0c0,0-0.1,0-0.1,0s0,0-0.1,0l0-0.1
		C98.9,60.2,99.1,59.9,99.5,59.7z M99,72.1c0,0,0,0.1,0.1,0.1c0.1-0.1,0.3-0.2,0.4-0.4c0.1-0.1,0.3-0.2,0.4-0.4c0,0,0-0.1-0.1-0.1
		C99.5,71.6,99.3,71.9,99,72.1z M99.7,59.2l0.4-0.5l0.1,0.1c0,0,0,0.1,0,0.1c0,0,0,0.1,0,0.1l-0.1,0.1c0,0.1-0.1,0.1-0.1,0.1
		c0,0,0,0.1-0.1,0.1l-0.1,0L99.7,59.2C99.7,59.3,99.7,59.3,99.7,59.2z M99.8,59.3L99.8,59.3L99.8,59.3L99.8,59.3L99.8,59.3z
		 M99.9,59.4L99.9,59.4L99.9,59.4L99.9,59.4z M99.9,59.3L99.9,59.3L99.9,59.3L99.9,59.3L99.9,59.3z M100.1,59.1L100.1,59.1
		L100.1,59.1L100.1,59.1z M100.1,58.8L100.1,58.8L100.1,58.8L100.1,58.8L100.1,58.8z M100.8,58.2c0,0-0.1,0.1-0.2,0.2l0,0.1
		c-0.1,0.1-0.2,0.2-0.2,0.3l-0.1,0l-0.1-0.1c0-0.3,0.2-0.6,0.6-0.9c0,0.1,0,0.2,0,0.2C100.8,58.1,100.8,58.1,100.8,58.2z
		 M101.7,57.1c0,0.1-0.1,0.1-0.1,0.1c0,0-0.1,0.1-0.1,0.2c-0.1,0-0.2,0-0.4,0c0.1-0.2,0.2-0.3,0.4-0.5c0.1-0.1,0.3-0.3,0.5-0.3
		C101.8,56.9,101.7,57,101.7,57.1z"/>
	<path class="st1" d="M119.4,69.6l-0.1,0.2l0.3,0c0.3-0.3,0.6-0.6,0.9-0.8c0.3-0.2,0.6-0.5,0.9-0.8c0.5-0.5,0.9-1,1.3-1.5
		c0.4-0.5,0.8-1.1,1.2-1.6c0.1-0.1,0.2-0.3,0.4-0.4c0.1-0.2,0.2-0.3,0.3-0.5l0.3-0.1l0,0.2c0,0.1-0.1,0.2-0.1,0.3
		c0,0.1,0,0.2-0.1,0.3c0,0,0.1,0,0.1,0.1c0.1-0.3,0.2-0.6,0.2-0.7c0.1,0,0.1,0.1,0.1,0.1s0.1,0,0.1,0.1l0.1,0.4
		c0,0.5-0.1,0.9-0.3,1.3c-0.2,0.4-0.4,0.8-0.6,1.2c-0.7,1.4-1.6,2.6-2.6,3.7c-0.2,0.2-0.3,0.3-0.5,0.4s-0.3,0.2-0.5,0.4
		c-0.5,0.3-1,0.3-1.5,0l-1.3-0.9c-0.1-0.1-0.2-0.2-0.4-0.3c-0.2-0.1-0.3-0.2-0.4-0.3c-0.5-0.3-0.8-0.6-1-1c-0.2-0.4-0.3-0.9-0.4-1.4
		c0-0.7,0-1.4,0-2.1c0-0.7,0.1-1.4,0.3-2.1c0.1-0.4,0.2-0.8,0.3-1.1c0.1-0.3,0.2-0.7,0.4-1.1c0.2-0.7,0.4-1.3,0.7-2
		c0.2-0.6,0.5-1.3,0.7-2c0.6-1.7,1.3-3.2,2.2-4.7c0.2-0.3,0.4-0.7,0.7-1c0.3-0.3,0.5-0.7,0.7-1c0.2-0.4,0.4-0.4,0.8-0.2
		c0.4,0.2,0.8,0.5,1.1,0.7c0.4,0.2,0.7,0.4,1.1,0.6c0.2,0.1,0.2,0.3,0,0.6c-0.2,0.5-0.5,1-0.7,1.5c-0.2,0.5-0.4,1-0.7,1.5
		c-0.4,0.9-0.7,1.8-1.1,2.6c-0.3,0.8-0.7,1.7-1,2.6c-0.5,1.2-0.9,2.4-1.2,3.6c-0.3,1.2-0.6,2.4-0.9,3.6c-0.1,0.2-0.1,0.4-0.1,0.6
		c0,0.2,0,0.5-0.1,0.7c0,0,0,0.1,0.1,0.1C119.2,69.4,119.3,69.5,119.4,69.6z M116.2,67.7C116.2,67.6,116.2,67.7,116.2,67.7
		c0.1,0,0.1-0.1,0.1-0.2c0-0.5,0-1.1,0-1.6s0.1-1,0.2-1.6c0.1-0.5,0.2-1,0.4-1.5c0.2-0.5,0.3-1,0.5-1.5l2.3-5.9
		c0.5-1.4,1.3-2.7,2.2-4c0-0.1,0.1-0.2,0.2-0.4l-0.1-0.1c-0.1,0.1-0.1,0.2-0.2,0.3c-0.1,0.1-0.1,0.1-0.2,0.3c-0.5,0.8-1,1.6-1.4,2.4
		c-0.4,0.8-0.8,1.7-1.2,2.5c-0.2,0.6-0.5,1.2-0.6,1.8c-0.2,0.6-0.4,1.2-0.6,1.8c-0.2,0.5-0.3,1-0.5,1.5c-0.2,0.5-0.3,1.1-0.5,1.6
		c-0.2,0.9-0.4,1.8-0.4,2.9c-0.1,0.3-0.1,0.5,0,0.8C116.2,67.2,116.2,67.4,116.2,67.7z M123.7,46.7c0-0.1,0-0.2,0-0.2s0-0.1,0-0.2
		c0.2-0.4,0.4-0.9,0.6-1.3c0.2-0.4,0.4-0.9,0.7-1.3c0.3-0.6,0.8-1.3,1.3-2c0.4-0.6,0.9-0.7,1.4-0.5l2,1.2c0.3,0.1,0.4,0.4,0.2,0.7
		c-0.3,0.6-0.7,1.2-1,1.8c-0.3,0.6-0.6,1.2-1,1.8c-0.4,0.8-0.9,1.5-1.4,2.1c-0.2,0.2-0.4,0.3-0.7,0.3c-0.3,0-0.6-0.1-0.8-0.3
		c-0.1-0.1-0.3-0.2-0.4-0.3c-0.1-0.1-0.3-0.2-0.4-0.3c-0.3-0.1-0.4-0.3-0.5-0.5c0-0.2,0-0.4,0-0.7c0.1-0.6,0.3-1.1,0.6-1.5
		c0.2-0.5,0.5-0.9,0.8-1.3c0.2-0.4,0.5-0.8,0.7-1.2c0.3-0.4,0.5-0.8,0.8-1.2c0.1-0.1,0.2-0.2,0.2-0.2c0.1,0,0.1-0.1,0.2-0.2
		c0,0,0-0.1-0.1-0.1c-0.1,0.1-0.2,0.1-0.2,0.2c-0.1,0-0.1,0.1-0.2,0.2c-0.6,0.7-1,1.5-1.5,2.2c-0.4,0.8-0.8,1.6-1.2,2.4
		c0,0.1-0.1,0.1-0.1,0.1c0,0,0,0.1-0.1,0.1c0,0,0,0.1,0,0.1c0,0,0,0.1,0,0.1L123.7,46.7z"/>
	<path class="st1" d="M145,36.6c0.1,0.1,0.2,0.1,0.3,0.1c0.1,0,0.2,0.1,0.3,0.1l1.7,1c0.2,0.1,0.3,0.3,0.2,0.6
		c-0.3,0.9-0.6,1.9-1,2.8s-0.6,1.9-0.9,2.9c-0.3,0.7-0.5,1.5-0.7,2.2c-0.2,0.7-0.4,1.4-0.6,2.2c-0.2,0.6-0.4,1.2-0.6,1.8
		c-0.2,0.6-0.4,1.2-0.5,1.7c-0.2,0.8-0.5,1.6-0.7,2.5c-0.2,0.8-0.4,1.6-0.6,2.5c-0.2,0.9-0.4,1.7-0.6,2.5c-0.2,0.8-0.3,1.6-0.5,2.5
		c-0.1,0.8-0.2,1.6-0.3,2.4c-0.1,0.8-0.2,1.6-0.3,2.5c-0.1,1-0.2,1.9-0.3,2.8c-0.1,0.9-0.1,1.8,0,2.7c0,0.6,0,1.2,0.1,1.8
		c0.1,0.6,0.1,1.2,0.2,1.8c0,0.2,0,0.4,0,0.5c0,0.2,0,0.3,0,0.5c0,0.3-0.1,0.4-0.3,0.2c-0.8-0.5-1.4-1.1-1.9-1.7
		c-0.5-0.7-0.9-1.5-1.2-2.4c-0.3-0.9-0.4-1.9-0.4-2.8c0-0.9,0-1.9,0.1-2.8c0.1-0.9,0.2-1.8,0.3-2.7c0.1-0.9,0.2-1.8,0.3-2.6
		c0-0.3,0.1-0.6,0.1-0.9c0-0.3,0.1-0.5,0.2-0.8c0-0.2,0-0.3,0-0.4l-0.1,0l-0.6,0.9c-0.1,0.2-0.2,0.4-0.3,0.6
		c-0.1,0.2-0.2,0.4-0.4,0.6c-0.4,0.7-0.8,1.3-1.3,2c-0.4,0.7-0.9,1.3-1.3,2c-0.5,0.7-1,1.3-1.6,1.9s-1.2,1.2-1.9,1.7
		c-0.2,0.1-0.4,0.3-0.8,0.4c-0.7,0.4-1.3,0.3-2-0.1c-0.4-0.3-0.8-0.5-1.2-0.7c-0.4-0.2-0.8-0.4-1.1-0.6c-0.7-0.4-1.1-1-1-1.8
		c0-1.1,0.3-2.1,0.8-3.1c0.4-0.7,0.7-1.5,1.1-2.1c0.3-0.7,0.7-1.3,1.1-2c0.5-0.8,1.1-1.5,1.7-2.2c0.6-0.7,1.2-1.5,1.7-2.2
		c0.4-0.6,0.9-1.1,1.4-1.5c0.5-0.4,1-0.8,1.6-1.2c0.7-0.5,1.6-0.7,2.6-0.8c0.4,0,0.7,0,1,0.1c0.3,0.1,0.6,0.3,0.9,0.4
		c0.4,0.2,0.7,0.2,0.8,0.2c0.1,0,0.2-0.2,0.4-0.7c0.2-0.4,0.3-0.7,0.4-1.1c0.1-0.4,0.2-0.7,0.4-1.1c0.3-0.8,0.5-1.6,0.7-2.3
		c0.2-0.8,0.5-1.5,0.8-2.3c0.7-2,1.5-4.1,2.4-6.1c0.1-0.3,0.3-0.6,0.4-0.9c0.1-0.3,0.3-0.6,0.4-0.8c-0.3,0.8-0.6,1.6-0.9,2.4
		c-0.3,0.8-0.6,1.6-0.9,2.4c-0.3,0.8-0.6,1.6-0.9,2.4c-0.3,0.8-0.6,1.6-0.9,2.4l0.1,0.1c0-0.1,0.1-0.1,0.1-0.2c0-0.1,0-0.1,0.1-0.2
		c0.3-0.9,0.6-1.7,0.9-2.6c0.3-0.8,0.6-1.7,1-2.5c0.3-0.7,0.6-1.4,0.9-2.1c0.3-0.7,0.6-1.3,0.9-2c0.1-0.2,0.1-0.3,0.1-0.5
		c0-0.1,0-0.3,0-0.4L145,36.6z M127.9,58.5l-0.8,1.1c-0.1,0.1-0.2,0.2-0.2,0.3c-0.3,0.4-0.6,0.9-0.9,1.4c-0.3,0.5-0.6,0.9-0.8,1.4
		c-0.4,0.7-0.7,1.3-0.9,2c-0.2,0.7-0.4,1.4-0.5,2.2c0,0.1,0,0.2,0,0.2c0,0,0,0.1,0,0.2c0.1,0,0.1,0.1,0.2,0c0-0.1,0-0.3,0.1-0.4
		c0.1-0.4,0.2-0.8,0.2-1.1c0.1-0.4,0.2-0.7,0.3-1.1c0.1-0.3,0.3-0.6,0.4-1c0.1-0.3,0.3-0.6,0.5-1c0.3-0.4,0.5-0.9,0.8-1.3
		c0.3-0.4,0.5-0.9,0.8-1.3c0-0.1,0.1-0.2,0.1-0.3c0-0.1,0.1-0.2,0.1-0.3L127.9,58.5c0.1-0.1,0.2-0.3,0.4-0.4
		c0.1-0.2,0.3-0.3,0.4-0.4c-0.1,0-0.1,0-0.2-0.1c-0.1,0.2-0.2,0.3-0.3,0.5C128.2,58.1,128.1,58.3,127.9,58.5z M130.9,63.9
		c0,0.1-0.1,0.1,0,0.2c0,0,0,0.1,0,0.2c-0.5,0.5-1,1.1-1.5,1.6c-0.5,0.5-1,1.1-1.4,1.6c-0.2,0.2-0.4,0.4-0.5,0.5l0.2,0
		c0.2-0.2,0.4-0.4,0.7-0.6c0.2-0.2,0.5-0.4,0.7-0.6c0.9-1,1.7-2.1,2.5-3.1c0.3-0.4,0.6-0.8,0.9-1.1c0.3-0.3,0.6-0.7,0.8-1.1
		c0.3-0.3,0.5-0.7,0.8-1c0.2-0.4,0.5-0.7,0.7-1.1c0.5-0.8,0.9-1.5,1.3-2.4c0.4-0.8,0.9-1.6,1.3-2.3l0.1-0.3
		c-0.1,0.1-0.3,0.1-0.4,0.1c-0.1,0-0.3,0.1-0.4,0.2c-0.2,0.1-0.5,0.3-0.7,0.5c-0.3,0.2-0.5,0.3-0.7,0.5c-1.3,1.1-2.4,2.4-3.4,3.8
		c-0.6,0.7-1.2,1.5-1.6,2.3c-0.5,0.8-1,1.6-1.5,2.4c-0.1,0.3-0.3,0.6-0.4,0.8c-0.1,0.3-0.3,0.6-0.4,0.8c-0.1,0.3-0.3,0.6-0.4,1
		c-0.1,0.3-0.2,0.7-0.4,1.1l0,0.2c0-0.1,0.1-0.1,0.1-0.1c0,0,0.1,0,0.1-0.1l2.4-2.4c0.2-0.2,0.4-0.5,0.6-0.7
		C130.5,64.4,130.7,64.2,130.9,63.9z M130.9,63.9c0.1-0.1,0.2-0.2,0.3-0.4c0.1-0.1,0.2-0.3,0.3-0.5l0.2,0.1
		c-0.1,0.1-0.2,0.2-0.4,0.4C131.1,63.6,131,63.8,130.9,63.9z M137.7,59.5c-0.2,0.2-0.3,0.8-0.5,2c-0.2,1.2-0.4,2.4-0.5,3.8
		s-0.2,2.7-0.3,3.9c0,1.2,0,1.9,0.2,2.2c0-2,0.1-4,0.3-6C137.1,63.4,137.4,61.4,137.7,59.5z"/>
	<path class="st1" d="M158.8,57.1c0.2-0.2,0.4-0.4,0.6-0.6c0.2-0.2,0.4-0.3,0.5-0.6c0.4-0.6,0.9-1.1,1.3-1.6
		c0.4-0.5,0.8-1.1,1.3-1.6c0.2-0.2,0.3-0.4,0.4-0.5c0.1-0.2,0.2-0.4,0.4-0.6c0.1-0.2,0.2-0.3,0.3-0.5c0.1-0.2,0.3-0.3,0.4-0.4
		c0.2-0.1,0.4-0.2,0.4-0.1c0.2,0.1,0.4,0.2,0.6,0.3c0.2,0.1,0.4,0.2,0.4,0.5c0.1,0.4,0.1,0.7,0,1.1c-0.2,0.7-0.5,1.3-0.8,1.9
		c-0.3,0.6-0.6,1.2-1.1,1.8c-0.2,0.3-0.5,0.7-0.8,1c-0.3,0.3-0.5,0.6-0.8,1c-0.5,0.8-1.1,1.5-1.8,2.1c-0.6,0.6-1.3,1.2-2,1.8
		c-1,0.9-2,1.6-3,2.3c-1,0.7-2.1,1.3-3.3,1.7c-0.6,0.2-1.1,0.3-1.7,0.4c-0.6,0-1.1-0.1-1.6-0.4c-1.1-0.7-2.2-1.4-3.3-2.1
		c-0.4-0.3-0.8-0.7-0.9-1.3c-0.2-0.5-0.2-1.1-0.2-1.6c0-0.8,0.1-1.6,0.3-2.4c0.3-0.8,0.6-1.5,1-2.2c0.5-0.9,1.1-1.7,1.7-2.4
		c0.6-0.7,1.3-1.4,2-2.1c1-1,2.3-1.8,3.7-2.4c0.9-0.3,1.7-0.3,2.5,0.3c0.6,0.3,1.2,0.7,1.7,1.2c0.3,0.2,0.5,0.5,0.4,0.9
		c-0.1,0.3-0.3,0.6-0.3,1c-0.1,0.3-0.2,0.6-0.4,0.9c-0.5,0.9-1.1,1.7-1.8,2.5c-0.7,0.8-1.4,1.4-2.3,2c-0.5,0.3-1.1,0.5-1.7,0.7
		c-0.6,0.2-1.2,0-1.9-0.3c-0.1-0.1-0.1-0.1-0.2-0.2c-0.1,0-0.1-0.1-0.2-0.2c-0.6,0.9-0.9,1.7-1,2.5c-0.1,0.4-0.2,0.8-0.3,1.2
		c-0.1,0.4-0.1,0.8-0.1,1.2l0.2,0.9c0,0.2,0.2,0.3,0.5,0.3c0.5,0,1-0.2,1.5-0.4c0.5-0.2,1-0.5,1.5-0.7c0.8-0.5,1.6-1,2.4-1.5
		c0.8-0.5,1.5-1.1,2.2-1.8c0.6-0.6,1.2-1.2,1.7-1.7c0.6-0.6,1.2-1.1,1.7-1.7c0-0.1,0.1-0.1,0.1-0.1c0,0,0.1-0.1,0.1-0.1l0.1,0
		c0,0.1-0.1,0.2-0.2,0.3C159,56.7,158.8,56.9,158.8,57.1c-0.1,0-0.2,0.1-0.4,0.2c-0.4,0.4-0.8,0.8-1.2,1.2c-0.4,0.4-0.8,0.8-1.3,1.2
		c-0.5,0.4-0.9,0.8-1.4,1.2c-0.5,0.4-1,0.8-1.5,1.1c-0.2,0.1-0.5,0.3-0.7,0.5c-0.3,0.2-0.5,0.3-0.7,0.5c0.2,0,0.3-0.1,0.4-0.1
		c0.6-0.4,1.1-0.8,1.7-1.2s1.1-0.8,1.7-1.2c0.6-0.5,1.1-1,1.6-1.5c0.5-0.5,1-1,1.6-1.6c0-0.1,0.1-0.1,0.1-0.2
		C158.6,57.2,158.7,57.2,158.8,57.1z M144.6,61.9L144.6,61.9c0.1-0.1,0.1-0.1,0.1-0.1c0,0,0-0.1,0-0.1c-0.1-0.8,0-1.6,0.3-2.5
		c0.4-1.3,0.9-2.5,1.6-3.5c0.5-0.8,1.1-1.6,1.8-2.3c0.7-0.7,1.3-1.3,2.1-2c0.9-0.7,1.7-1.2,2.6-1.6c0.1,0,0.2,0,0.2-0.1
		c0,0,0.1-0.1,0.2-0.1c-1.2,0.3-2.2,0.8-3.2,1.6c-0.3,0.2-0.5,0.4-0.7,0.6c-0.2,0.2-0.5,0.5-0.7,0.7c-0.6,0.4-1,0.9-1.4,1.4
		c-0.4,0.5-0.8,1.1-1.2,1.7c-0.2,0.3-0.5,0.7-0.6,1.1c-0.2,0.4-0.4,0.8-0.6,1.2c-0.4,1.1-0.6,2.2-0.6,3.4L144.6,61.9z M149.5,57.3
		c1.2-0.6,2.1-1.3,2.9-2.2c0.8-0.9,1.5-1.9,2.2-2.9c-0.4,0.2-0.7,0.3-0.9,0.4c-0.9,0.7-1.6,1.4-2.4,2.1
		C150.6,55.5,150,56.3,149.5,57.3z M160.3,55.2c-0.1,0.1-0.1,0.2-0.2,0.3c-0.1,0.1-0.1,0.1-0.2,0.3c-0.1,0-0.1-0.1-0.1-0.1
		c0.2-0.2,0.3-0.4,0.4-0.5C160.2,55.1,160.2,55.1,160.3,55.2C160.2,55.1,160.3,55.1,160.3,55.2z"/>
	<path class="st1" d="M164.5,61.6c-0.1,0.1-0.2,0.1-0.3,0.2c-0.1,0.1-0.2,0.1-0.3,0.2c0,0,0.1,0,0.1,0.1c0.2-0.1,0.3-0.2,0.5-0.3
		c0.2-0.1,0.3-0.1,0.5-0.3c0.7-0.5,1.4-1,2-1.5c0.7-0.5,1.3-1,2-1.6c0.5-0.4,0.9-0.8,1.3-1.2c0.4-0.4,0.8-0.9,1.2-1.3
		c0.5-0.5,1-1.1,1.4-1.6c0.5-0.5,0.9-1.1,1.4-1.6c0.2-0.1,0.3-0.2,0.4-0.4c0.1,0,0.1,0.1,0.2,0c-0.1,0.2-0.1,0.3-0.2,0.4
		c-0.3,0.4-0.5,0.8-0.8,1.1c-0.3,0.3-0.5,0.7-0.9,1.1c0,0,0.1,0,0.1,0c0,0,0,0,0.1,0c0.4-0.5,0.9-1,1.3-1.5c0.4-0.5,0.8-1,1.3-1.6
		l0.1,0.1c0,0.1,0,0.3-0.1,0.4c-0.1,0.2-0.2,0.4-0.3,0.6c-0.1,0.2-0.3,0.4-0.4,0.5c-0.4,0.5-0.7,1-1.1,1.5c-0.4,0.5-0.7,1-1.1,1.5
		c-0.6,0.7-1.2,1.5-1.8,2.2c-0.6,0.7-1.2,1.5-1.9,2.2c-1.1,1.2-2.4,2.2-3.9,2.9c-0.7,0.4-1.4,0.3-1.9-0.2c-0.3-0.2-0.6-0.5-0.9-0.7
		c-0.3-0.2-0.6-0.4-0.9-0.6c-0.7-0.5-1-1.1-1.1-1.9c-0.3-2.3-0.1-4.6,0.6-7c0.4-1.4,0.8-2.8,1.2-4.2c0.4-1.4,0.9-2.8,1.5-4.1
		c0.5-1.2,1-2.4,1.5-3.6c0.5-1.2,1-2.3,1.5-3.5c0.4-0.9,0.9-1.8,1.3-2.7c0.4-0.9,0.9-1.8,1.5-2.7c0.5-1.1,1.1-2.1,1.7-3.1
		c0.6-1,1.3-2,2-2.9c0.8-1.1,1.7-2,2.6-3c0.5-0.5,1.2-0.6,1.9-0.3c1,0.4,1.8,0.9,2.7,1.5c0.2,0.2,0.2,0.4-0.1,0.5
		c-0.2,0.1-0.3,0.2-0.5,0.3c-0.2,0.1-0.3,0.2-0.4,0.4c-0.8,1-1.6,2.1-2.4,3.1c-0.7,1.1-1.4,2.1-2,3.1c-0.3,0.5-0.6,1-0.9,1.5
		c-0.3,0.5-0.6,1-0.9,1.5c-0.4,0.6-0.8,1.2-1.1,1.9c-0.4,0.7-0.7,1.3-1,1.9c-0.7,1.4-1.3,2.8-2,4.2s-1.3,2.8-1.9,4.1
		c-0.3,0.6-0.5,1.2-0.7,1.8c-0.2,0.6-0.4,1.2-0.6,1.7c-0.2,0.6-0.4,1.2-0.6,1.8c-0.2,0.6-0.4,1.2-0.6,1.8c-0.4,1.3-0.7,2.5-1,3.8
		c-0.1,0.6-0.3,1.1-0.3,1.6c-0.1,0.5-0.2,1.1-0.3,1.6c0,0.3,0,0.5,0.1,0.5c0.1,0.1,0.3,0,0.6-0.1L164.5,61.6L164.5,61.6z M161,55.2
		c-0.2,0.8-0.3,1.5-0.4,2.2c-0.1,0.7-0.1,1.5,0,2.2c0.1-0.7,0.1-1.5,0.2-2.2C160.9,56.7,160.9,55.9,161,55.2z M176.4,23.7l0-0.1
		c-0.4,0.3-0.7,0.6-1,0.9c-0.4,0.4-0.7,0.8-1,1.2c-0.2,0.3-0.4,0.5-0.6,0.8c-0.2,0.3-0.4,0.5-0.6,0.8l-1.5,2.1
		c-0.2,0.2-0.3,0.4-0.4,0.6c-0.1,0.2-0.2,0.4-0.4,0.6c-0.1,0.3-0.3,0.6-0.4,0.8c-0.1,0.3-0.3,0.6-0.5,0.9c-0.2,0.3-0.4,0.6-0.6,0.9
		c-0.1,0.3-0.3,0.7-0.5,0.9c-0.2,0.3-0.4,0.7-0.5,1c-0.2,0.3-0.3,0.7-0.5,1c0,0,0,0.1,0,0.2c-0.2,0.3-0.4,0.7-0.6,1
		c-0.2,0.3-0.4,0.7-0.6,1c-0.2,0.5-0.5,1.1-0.7,1.7c-0.2,0.6-0.5,1.1-0.7,1.6c-0.2,0.5-0.5,1-0.7,1.6c-0.4,1-0.8,2.1-1.2,3.2
		c-0.4,1.1-0.8,2.2-1.1,3.3c-0.1,0.6-0.3,1.1-0.4,1.6c-0.1,0.5-0.3,1-0.4,1.5c0,0.1,0,0.2,0,0.3c0,0.1,0,0.2,0,0.3l0.1,0.1
		c0.1-0.2,0.1-0.3,0.2-0.5c0.3-1,0.6-2,0.9-3c0.3-1,0.6-2,0.9-2.9c0.4-1.1,0.9-2.3,1.3-3.3c0.4-1.1,0.9-2.2,1.4-3.3
		c0.1-0.3,0.3-0.6,0.4-1c0.1-0.3,0.3-0.6,0.5-1c0.2-0.4,0.4-0.8,0.6-1.2c0.2-0.4,0.4-0.8,0.6-1.2c0.2-0.4,0.4-0.7,0.6-1.1
		c0.2-0.4,0.4-0.8,0.6-1.1c0.3-0.4,0.5-0.9,0.8-1.3c0.3-0.5,0.5-0.9,0.8-1.4c0.2-0.4,0.4-0.7,0.6-1.1c0.2-0.4,0.4-0.7,0.6-1.1
		c0.7-0.9,1.3-1.8,1.9-2.7C174.9,25.3,175.6,24.5,176.4,23.7z"/>
	<path class="st1" d="M175,59.7l-0.1,0.2l0.3-0.1c0.3-0.3,0.6-0.6,0.9-0.8c0.3-0.2,0.6-0.5,0.9-0.8c0.5-0.5,0.9-1,1.3-1.5
		c0.4-0.5,0.8-1.1,1.2-1.6c0.1-0.1,0.2-0.3,0.4-0.4c0.1-0.2,0.2-0.3,0.4-0.5l0.3-0.1l0,0.2c0,0.1-0.1,0.2-0.1,0.3
		c0,0.1,0,0.2-0.1,0.3c0,0,0.1,0,0.1,0.1c0.1-0.3,0.2-0.6,0.2-0.7c0.1,0,0.1,0.1,0.1,0.1c0,0,0.1,0,0.1,0.1l0.1,0.4
		c0,0.5-0.1,0.9-0.3,1.3c-0.2,0.4-0.4,0.8-0.6,1.2c-0.7,1.4-1.6,2.6-2.6,3.7c-0.2,0.2-0.3,0.3-0.5,0.4c-0.1,0.1-0.3,0.2-0.5,0.4
		c-0.5,0.3-1,0.3-1.5,0l-1.3-0.9c-0.1-0.1-0.2-0.2-0.4-0.3c-0.2-0.1-0.3-0.2-0.4-0.3c-0.5-0.3-0.8-0.6-1-1s-0.3-0.9-0.4-1.4
		c0-0.7,0-1.4,0-2.1c0-0.7,0.1-1.4,0.3-2.1c0.1-0.4,0.2-0.8,0.3-1.1c0.1-0.3,0.2-0.7,0.4-1.1c0.2-0.7,0.4-1.3,0.7-2
		c0.2-0.6,0.5-1.3,0.7-2c0.6-1.7,1.3-3.2,2.2-4.7c0.2-0.3,0.4-0.7,0.7-1c0.3-0.3,0.5-0.7,0.7-1c0.2-0.4,0.4-0.4,0.8-0.2
		c0.4,0.2,0.7,0.5,1.1,0.7c0.4,0.2,0.7,0.4,1.1,0.6c0.2,0.1,0.2,0.3,0,0.7c-0.2,0.5-0.5,1-0.7,1.5c-0.2,0.5-0.4,1-0.7,1.5
		c-0.4,0.9-0.7,1.8-1.1,2.6c-0.3,0.8-0.7,1.7-1,2.6c-0.5,1.2-0.9,2.4-1.2,3.6c-0.3,1.2-0.6,2.4-0.9,3.6c-0.1,0.2-0.1,0.4-0.1,0.6
		s0,0.5-0.1,0.7c0,0,0,0.1,0.1,0.1C174.9,59.6,175,59.7,175,59.7z M171.8,57.8C171.9,57.8,171.9,57.8,171.8,57.8
		c0.1,0,0.1-0.1,0.1-0.2c0-0.5,0-1.1,0-1.6c0-0.5,0.1-1,0.2-1.6c0.1-0.5,0.2-1,0.4-1.5c0.2-0.5,0.3-1,0.5-1.5l2.3-5.9
		c0.5-1.4,1.3-2.7,2.2-4c0-0.1,0.1-0.2,0.2-0.4l-0.1-0.1c-0.1,0.1-0.1,0.2-0.2,0.3c-0.1,0.1-0.1,0.1-0.2,0.3c-0.5,0.8-1,1.6-1.4,2.4
		c-0.4,0.8-0.8,1.7-1.2,2.5c-0.2,0.6-0.5,1.2-0.6,1.8c-0.2,0.6-0.4,1.2-0.6,1.8c-0.2,0.5-0.3,1-0.5,1.5c-0.2,0.5-0.3,1.1-0.5,1.6
		c-0.2,0.9-0.4,1.8-0.4,2.9c-0.1,0.3-0.1,0.5,0,0.8S171.8,57.6,171.8,57.8z M179.4,36.9c0-0.1,0-0.2,0-0.2c0,0,0-0.1,0-0.2
		c0.2-0.4,0.4-0.9,0.6-1.3c0.2-0.4,0.4-0.9,0.7-1.3c0.3-0.6,0.8-1.3,1.3-2c0.4-0.6,0.9-0.7,1.4-0.5l2,1.2c0.3,0.1,0.4,0.4,0.2,0.7
		c-0.3,0.6-0.7,1.2-1,1.8c-0.3,0.6-0.6,1.2-1,1.8c-0.4,0.8-0.9,1.5-1.4,2.1c-0.2,0.2-0.4,0.3-0.7,0.3c-0.3,0-0.6-0.1-0.8-0.3
		c-0.1-0.1-0.2-0.2-0.4-0.3c-0.1-0.1-0.3-0.2-0.4-0.3c-0.3-0.1-0.4-0.3-0.5-0.5s0-0.4,0-0.7c0.1-0.6,0.3-1.1,0.6-1.5
		c0.2-0.5,0.5-0.9,0.8-1.3c0.2-0.4,0.5-0.8,0.7-1.2c0.3-0.4,0.5-0.8,0.8-1.2c0.1-0.1,0.2-0.2,0.2-0.2c0.1,0,0.1-0.1,0.2-0.2
		c0,0,0-0.1-0.1-0.1c-0.1,0.1-0.2,0.1-0.2,0.2c-0.1,0-0.1,0.1-0.2,0.2c-0.6,0.7-1,1.5-1.5,2.2c-0.4,0.8-0.8,1.6-1.2,2.4
		c0,0.1-0.1,0.1-0.1,0.1c0,0,0,0.1-0.1,0.1c0,0,0,0.1,0,0.1c0,0,0,0.1,0,0.1L179.4,36.9z"/>
	<path class="st1" d="M194.3,46c-0.2,0.2-0.3,0.4-0.5,0.6c-0.4,0.6-0.9,1.2-1.4,1.8c-0.5,0.6-0.9,1.2-1.4,1.8
		c-0.4,0.5-0.7,0.9-1.1,1.4c-0.4,0.5-0.7,0.9-1,1.4c-0.4,0.7-0.8,1.4-1.2,2.1c-0.4,0.7-0.8,1.4-1.2,2.1c-0.2,0.4-0.5,0.8-0.7,1.2
		c-0.2,0.4-0.6,0.7-1,1c-0.4,0.2-0.7,0.2-0.9,0c-0.4-0.3-0.9-0.6-1.3-1c-0.4-0.3-0.9-0.7-1.3-1c-0.2-0.2-0.4-0.4-0.4-0.7
		c0-0.4,0-0.9,0-1.3c0-0.4,0-0.9,0-1.3c0.1-1.1,0.3-2.1,0.7-3.1c0.4-1,0.8-2,1.3-3c0.6-1.3,1.2-2.6,2-3.9c0.3-0.6,0.6-1.2,1-1.8
		c0.4-0.6,0.7-1.2,1-1.8c0.1-0.2,0.2-0.4,0.4-0.6c0.2-0.2,0.3-0.4,0.5-0.5c0.3-0.3,0.7-0.3,1-0.1c0.7,0.4,1.4,0.8,2,1.2
		c0.3,0.2,0.4,0.5,0.2,0.9c-0.3,0.4-0.5,0.9-0.8,1.4c-0.3,0.5-0.5,0.9-0.8,1.4c-0.5,0.9-0.9,1.8-1.4,2.8c-0.4,1-0.9,1.9-1.4,2.8
		c-0.3,0.6-0.5,1.3-0.8,1.9c-0.3,0.6-0.5,1.3-0.8,1.9c-0.1,0.2-0.1,0.4-0.1,0.6c0,0.2-0.1,0.5-0.1,0.7c0.3-0.4,0.5-0.6,0.6-0.7
		l2.8-3.8c1.4-1.9,2.8-3.7,4.2-5.5c0.1-0.2,0.3-0.3,0.4-0.5c0.2-0.2,0.3-0.3,0.4-0.5c0.2-0.4,0.4-0.7,0.5-0.9
		c0.2-0.2,0.3-0.4,0.5-0.6c0.2-0.2,0.3-0.4,0.5-0.6l0.2-0.3l0-0.1c-0.1,0.1-0.3,0.2-0.4,0.4l-0.1-0.1c0.3-0.4,0.6-0.6,0.8-0.7
		c0-0.1,0.1-0.1,0.2-0.1c0.1,0,0.2,0,0.2,0.1c0.4,0.3,0.9,0.6,1.3,0.9c0.4,0.3,0.9,0.6,1.3,0.9c0.8,0.5,1.1,1.3,0.8,2.3
		c-0.3,1.1-0.6,2.1-0.9,3.2c-0.3,1-0.6,2.1-0.9,3.2c-0.1,0.6-0.3,1.1-0.4,1.6c-0.1,0.5-0.2,1.1-0.4,1.6c0,0.1,0,0.2,0,0.3
		c0,0.1,0,0.3,0,0.4c0.2-0.2,0.4-0.3,0.5-0.5c0.1-0.1,0.3-0.3,0.5-0.4c0.3-0.4,0.7-0.9,1-1.2c0.4-0.4,0.7-0.8,1-1.2
		c0.2-0.3,0.4-0.5,0.6-0.8c0.2-0.2,0.4-0.5,0.6-0.8c0.5-0.6,1-1.2,1.4-1.8c0.5-0.6,1-1.2,1.4-1.8l0.5-0.7c0.2-0.1,0.3-0.2,0.3-0.3
		c0.1,0,0.1,0.1,0.2,0c-0.1,0.3-0.2,0.5-0.3,0.7c-0.1,0.2-0.2,0.4-0.2,0.7l0.1,0.1c0.1-0.3,0.3-0.5,0.5-0.7c0.2-0.2,0.3-0.5,0.5-0.8
		c0.2,0.2,0.2,0.4,0,0.7c-0.1,0.3-0.3,0.6-0.4,0.9c-0.1,0.3-0.3,0.6-0.5,1c-0.4,0.7-0.7,1.5-1.1,2.2c-0.4,0.7-0.8,1.4-1.4,2
		c-0.7,0.9-1.4,1.8-2.1,2.7c-0.7,0.9-1.5,1.7-2.5,2.5l-0.4,0.3c-0.2,0.2-0.5,0.3-0.9,0.1c-0.4-0.3-0.9-0.6-1.3-0.9
		c-0.4-0.3-0.8-0.6-1.3-0.9c-0.3-0.2-0.5-0.4-0.5-0.7c-0.1-0.3-0.2-0.6-0.2-1c0-0.1,0.1-0.1,0-0.2c-0.3-0.9-0.3-1.7,0-2.6
		c0.2-0.8,0.4-1.7,0.7-2.5c0.1-0.6,0.3-1.1,0.5-1.7c0.2-0.6,0.4-1.2,0.5-1.7c0-0.1,0.1-0.1,0-0.2c0,0,0-0.1,0-0.2l-0.1-0.1
		C194.6,45.6,194.5,45.8,194.3,46z M184.7,45.9C184.7,45.8,184.7,45.8,184.7,45.9c0.1-0.1,0.1-0.1,0.2-0.2c0.1-0.3,0.2-0.5,0.3-0.8
		c0.1-0.2,0.3-0.5,0.4-0.8c0.3-0.7,0.7-1.3,1-2c0.4-0.6,0.7-1.2,1.2-1.8c0.1-0.1,0.1-0.2,0.2-0.3c0.1-0.1,0.1-0.2,0.2-0.3l-0.1-0.1
		c-0.3,0.3-0.6,0.5-0.8,0.7c-0.5,0.8-0.9,1.5-1.3,2.4c-0.4,0.8-0.9,1.6-1.3,2.4C184.7,45.3,184.6,45.5,184.7,45.9
		c-0.1,0-0.2,0-0.2,0.1c0,0-0.1,0.1-0.1,0.1c-0.3,0.6-0.6,1.3-0.9,1.9s-0.6,1.3-0.9,1.9c-0.6,1.3-1,2.7-1.3,4.3c0,0.2,0,0.4,0,0.5
		l0.1,0c0,0,0-0.1,0-0.1c0,0,0-0.1,0-0.1c0.1-0.8,0.3-1.6,0.5-2.3c0.2-0.7,0.5-1.5,0.8-2.2c0.1-0.2,0.1-0.3,0.2-0.5
		c0.1-0.2,0.2-0.4,0.2-0.6c0.2-0.3,0.4-0.7,0.6-1c0.2-0.3,0.4-0.7,0.5-1c0.1-0.1,0.1-0.2,0.2-0.4C184.5,46.2,184.6,46.1,184.7,45.9z
		 M195.4,45.1C195.4,45.1,195.3,45.1,195.4,45.1c-0.1,0-0.2,0.2-0.3,0.3c-0.1,0.4-0.2,0.8-0.3,1.2s-0.2,0.7-0.3,1.1
		c-0.2,0.9-0.5,1.7-0.7,2.6c-0.3,0.9-0.4,1.8-0.5,2.7c-0.1,0.6,0,1,0.2,1.3c0-0.2,0-0.5,0-0.7c0-0.2,0-0.4,0-0.6
		c0.1-0.4,0.1-0.9,0.2-1.4c0.1-0.5,0.2-0.9,0.3-1.4c0.2-0.8,0.5-1.6,0.7-2.4c0.2-0.8,0.5-1.6,0.7-2.4
		C195.4,45.4,195.4,45.2,195.4,45.1z"/>
	<path class="st1" d="M216.4,47c0.2-0.2,0.4-0.4,0.6-0.6c0.2-0.2,0.4-0.3,0.5-0.6c0.4-0.6,0.9-1.1,1.3-1.6c0.4-0.5,0.8-1.1,1.3-1.6
		c0.2-0.2,0.3-0.4,0.4-0.5c0.1-0.2,0.2-0.4,0.4-0.6c0.1-0.2,0.2-0.3,0.4-0.5c0.1-0.2,0.3-0.3,0.4-0.4c0.2-0.1,0.4-0.2,0.4-0.1
		c0.2,0.1,0.4,0.2,0.6,0.3c0.2,0.1,0.4,0.2,0.4,0.5c0.1,0.4,0.1,0.7,0,1.1c-0.2,0.7-0.5,1.3-0.8,1.9c-0.3,0.6-0.6,1.2-1.1,1.8
		c-0.2,0.3-0.5,0.7-0.8,1c-0.3,0.3-0.5,0.6-0.8,1c-0.5,0.8-1.1,1.5-1.8,2.1c-0.6,0.6-1.3,1.2-2,1.8c-1,0.9-2,1.6-3,2.3
		c-1,0.7-2.1,1.3-3.3,1.7c-0.6,0.2-1.1,0.3-1.7,0.4c-0.6,0-1.1-0.1-1.6-0.4c-1.1-0.7-2.2-1.4-3.3-2.1c-0.4-0.3-0.8-0.7-0.9-1.3
		c-0.2-0.5-0.2-1.1-0.2-1.6c0-0.8,0.1-1.6,0.3-2.4c0.3-0.8,0.6-1.5,1-2.2c0.5-0.9,1.1-1.7,1.7-2.4c0.6-0.7,1.3-1.4,2-2.1
		c1-1,2.3-1.8,3.7-2.4c0.9-0.3,1.7-0.3,2.5,0.3c0.6,0.3,1.2,0.7,1.7,1.2c0.3,0.2,0.5,0.5,0.4,0.9c-0.1,0.3-0.3,0.6-0.3,1
		c-0.1,0.3-0.2,0.6-0.4,0.9c-0.5,0.9-1.1,1.7-1.8,2.5c-0.7,0.8-1.4,1.4-2.3,2c-0.5,0.3-1.1,0.5-1.7,0.7c-0.6,0.2-1.2,0-1.9-0.3
		c-0.1-0.1-0.1-0.1-0.2-0.2c-0.1,0-0.1-0.1-0.2-0.2c-0.6,0.9-0.9,1.7-1,2.5c-0.1,0.4-0.2,0.8-0.3,1.2c-0.1,0.4-0.1,0.8-0.1,1.2
		l0.2,0.9c0,0.2,0.2,0.3,0.5,0.3c0.5,0,1-0.2,1.5-0.4c0.5-0.2,1-0.5,1.5-0.7c0.8-0.5,1.6-1,2.4-1.5c0.8-0.5,1.5-1.1,2.2-1.8
		c0.6-0.6,1.2-1.2,1.7-1.7c0.6-0.6,1.2-1.1,1.7-1.7c0-0.1,0.1-0.1,0.1-0.1c0,0,0.1-0.1,0.1-0.1l0.1,0c0,0.1-0.1,0.2-0.2,0.3
		C216.6,46.5,216.4,46.8,216.4,47c-0.1,0-0.2,0.1-0.4,0.2c-0.4,0.4-0.8,0.8-1.2,1.2c-0.4,0.4-0.8,0.8-1.3,1.2
		c-0.5,0.4-0.9,0.8-1.4,1.2c-0.5,0.4-1,0.8-1.5,1.1c-0.2,0.1-0.5,0.3-0.7,0.5c-0.3,0.2-0.5,0.3-0.7,0.5c0.2,0,0.3-0.1,0.4-0.1
		c0.6-0.4,1.1-0.8,1.7-1.2c0.6-0.4,1.1-0.8,1.7-1.2c0.6-0.5,1.1-1,1.6-1.5c0.5-0.5,1-1,1.6-1.6c0-0.1,0.1-0.1,0.1-0.2
		C216.2,47.1,216.3,47,216.4,47z M202.1,51.7L202.1,51.7c0.1-0.1,0.1-0.1,0.1-0.1c0,0,0-0.1,0-0.1c-0.1-0.8,0-1.6,0.3-2.5
		c0.4-1.3,0.9-2.5,1.6-3.5c0.5-0.8,1.1-1.6,1.8-2.3c0.7-0.7,1.3-1.3,2.1-2c0.9-0.7,1.7-1.2,2.6-1.6c0.1,0,0.2,0,0.2-0.1
		c0,0,0.1-0.1,0.2-0.1c-1.2,0.3-2.2,0.8-3.2,1.6c-0.3,0.2-0.5,0.4-0.7,0.6c-0.2,0.2-0.5,0.5-0.7,0.7c-0.6,0.4-1,0.9-1.4,1.4
		c-0.4,0.5-0.8,1.1-1.2,1.7c-0.2,0.3-0.4,0.7-0.6,1.1s-0.4,0.8-0.6,1.2c-0.4,1.1-0.6,2.2-0.6,3.4L202.1,51.7z M207.1,47.1
		c1.2-0.6,2.1-1.3,2.9-2.2c0.8-0.9,1.5-1.9,2.2-2.9c-0.4,0.2-0.7,0.3-0.9,0.4c-0.9,0.7-1.6,1.4-2.4,2.1
		C208.2,45.3,207.6,46.2,207.1,47.1z M217.8,45c-0.1,0.1-0.1,0.2-0.2,0.3c-0.1,0.1-0.1,0.1-0.2,0.3c-0.1,0-0.1-0.1-0.1-0.1
		c0.2-0.2,0.3-0.4,0.4-0.5C217.8,44.9,217.8,44.9,217.8,45C217.8,44.9,217.8,45,217.8,45z"/>
</g>
</svg>
