<svg xmlns="http://www.w3.org/2000/svg" width="56" height="77" viewBox="0 0 56 77"><g transform="translate(-932 -6443)"><g transform="translate(932 6443)"><path d="M4,14.852H14.852V4H4ZM20.279,47.41H31.131V36.557H20.279ZM4,47.41H14.852V36.557H4ZM4,31.131H14.852V20.279H4Zm16.279,0H31.131V20.279H20.279ZM36.557,4V14.852H47.41V4ZM20.279,14.852H31.131V4H20.279ZM36.557,31.131H47.41V20.279H36.557Zm0,16.279H47.41V36.557H36.557Z" transform="translate(2.295 2.295)" fill="#1d364d"/><path d="M0,0H56V56H0Z" fill="none"/></g><text transform="translate(960 6516)" fill="#1d364d" font-size="16" font-family="JosefinSans-SemiBold, Josefin Sans" font-weight="600"><tspan x="-26.192" y="0">INDEX</tspan></text></g></svg>